<svg xmlns="http://www.w3.org/2000/svg" width="169.358" height="188.646" viewBox="0 0 169.358 188.646"><defs><style>.a{fill:#cdcdcd;opacity:0.27;}.b{fill:#e5e5e5;}.c{fill:#cecece;}.d{fill:#555;}.e{fill:#a5a5a5;}.f{fill:#bcbcbc;}.g{fill:none;}.h{fill:#b22747;}.i{fill:rgba(59,85,36,0.2);}.j{fill:#333;}.k{fill:#f99f91;}.l{fill:#f9c7a5;}.m{fill:#251760;}.n{fill:#fff;}.o{fill:#f3f3f3;}.p{fill:#222;opacity:0.65;}</style></defs><g transform="translate(0 0)"><path class="a" d="M466.653,274.989s25.552,21.438,8.886,53.7-31.178,39.4-6.053,59.329,15.6,67.129-33.351,60.416-41.364-46.35-76.887-40.51c-35.5,5.84-51.53-21.438-43.75-52.4s36.377-35.951,61.716-33.137,37.949-10.011,33.778-27.938C406.024,273.03,437.2,249.438,466.653,274.989Z" transform="translate(-313.572 -263.866)"/><path class="a" d="M471.181,1048.323s20.352-8.44,32.264,5.413,1.513,29.665-8.013,22.952-6.713-18.412-18.839-14.726S464.468,1050.264,471.181,1048.323Z" transform="translate(-436.971 -894.076)"/></g><g transform="translate(6.315 3.933)"><g transform="translate(0.388 3.818)"><path class="b" d="M364.857,367.547c.854,1.746,2.658,2.639,4.035,1.96l52.287-25.649c1.358-.679,1.766-2.639.912-4.385l-16.317-33.254a4.286,4.286,0,0,0-5.743-1.96l-49.512,24.29a4.286,4.286,0,0,0-1.96,5.743Z" transform="translate(-348.117 -303.817)"/></g><rect class="c" width="5.859" height="44.778" transform="translate(24.926 17.718) rotate(-26.142)"/><rect class="c" width="63.112" height="7.198" transform="translate(7.517 47.206) rotate(-26.142)"/><g transform="translate(0 3.411)"><path class="d" d="M366.312,368.417a3.987,3.987,0,0,1-3.4-2.406L346.6,332.757a4.68,4.68,0,0,1,2.134-6.267l49.512-24.29a4.68,4.68,0,0,1,6.267,2.134l16.316,33.254a4.5,4.5,0,0,1,.407,2.852,2.884,2.884,0,0,1-1.494,2.057l-52.287,25.668A2.654,2.654,0,0,1,366.312,368.417Zm-2.716-2.736c.757,1.552,2.328,2.367,3.512,1.785l52.287-25.649a2.152,2.152,0,0,0,1.086-1.513,3.627,3.627,0,0,0-.349-2.348l-16.316-33.273a3.914,3.914,0,0,0-5.238-1.785l-49.512,24.29a3.914,3.914,0,0,0-1.785,5.238Z" transform="translate(-346.119 -301.719)"/></g><path class="d" d="M410.208,323.321l-.194-.757c2.949-.776,6.887-11.427,10.36-20.837.019-.039.019-.078.039-.116a27.273,27.273,0,0,1-7.431-1.339c-1.4-.427-6.034-1.921-6.868-3.434a.909.909,0,0,1,.155-1.164,4.271,4.271,0,0,1,3.046-.854,18.24,18.24,0,0,1,11.563,5.452c3.9-10.554,6.48-16.879,8.769-16.064.718.252,1.533.931,1.436,2.7-.136,2.115-1.572,5.394-3.88,8.769-1.766,2.561-4.229,5.452-5.917,5.82h-.019c-.058.155-.116.31-.175.485C416.669,313.97,413.312,322.506,410.208,323.321Zm-1.086-27.705a3.427,3.427,0,0,0-2.309.621c-.058.058-.1.1-.019.252.912,1.669,9.895,4.462,13.542,4.365a17.35,17.35,0,0,0-11.039-5.219A.538.538,0,0,0,409.122,295.616Zm20.139-10.671c-.485,0-1.474.737-3.3,4.676-1.339,2.91-2.794,6.79-4.346,10.942,1.242-.66,3.143-2.677,4.947-5.316,2.192-3.221,3.647-6.422,3.744-8.362.1-1.552-.66-1.824-.912-1.921A.288.288,0,0,0,429.26,284.945Z" transform="translate(-394.361 -284.138)"/></g><g transform="translate(99.82 150.04)"><g transform="translate(0 2.745)"><path class="e" d="M844.981,1088.433h-13.93s-3.492-9.157,2.91-8.711c6.4.427-4.365-12.068-.155-15.7s8.866-.427,10.457,3.492,5.82.873,5.82.873-1.3-13.814,3.2-14.823,8.731,3.919,7.858,15.987c4.21-7.7,10.438-11.039,12.844-3.783s-4.133,13.814-4.133,13.814,9.584-10.9,13.367-7.7-1.009,11.33-1.009,11.33,11.912-6.538,11.621,5.238H878.623l-33.642-.019Z" transform="translate(-829.707 -1053.039)"/><path class="d" d="M892.587,1087.149H829.145l-.1-.252c-.078-.214-2.037-5.432-.175-7.935a3.688,3.688,0,0,1,3.473-1.3q1.106.087,1.455-.407c.64-.873-.291-3.318-1.2-5.665-1.377-3.551-2.93-7.586-.679-9.546a6.075,6.075,0,0,1,5.529-1.513,8.574,8.574,0,0,1,5.549,5.161,2.538,2.538,0,0,0,1.63,1.669,4.835,4.835,0,0,0,3.415-.854c-.155-1.9-.99-13.988,3.512-15a5.168,5.168,0,0,1,4.7,1.2c1.571,1.358,4.055,4.889,3.725,13.581,2.7-4.346,5.9-6.829,8.556-6.6,1.3.116,3.085.951,4.191,4.288a12.66,12.66,0,0,1-1.281,10.127c.563-.524,1.164-1.048,1.8-1.552,3.977-3.221,6.868-4.113,8.595-2.639,1.668,1.416,2.018,3.938,1.028,7.276a24.451,24.451,0,0,1-1.4,3.492c1.9-.834,5.84-2.212,8.517-.582,1.8,1.106,2.677,3.356,2.6,6.674Zm-62.9-.776h62.123c0-2.833-.737-4.715-2.231-5.626-3.182-1.94-8.769,1.086-8.828,1.125l-1.242.679.718-1.222c.039-.078,4.579-7.9,1.106-10.845-2.658-2.25-9.177,3.725-12.184,6.965a5.67,5.67,0,0,1-.66.718l-.563-.524s.175-.194.466-.524a18.977,18.977,0,0,0,2.445-3.609c1.707-3.279,2.1-6.4,1.125-9.293-.776-2.309-1.979-3.609-3.512-3.745-2.6-.233-5.976,2.755-8.634,7.586l-.854,1.572.136-1.785c.5-6.965-.718-12.281-3.356-14.551a4.427,4.427,0,0,0-4.016-1.028c-3.415.776-3.259,10.671-2.891,14.415l.019.213-.175.136c-.1.058-2.309,1.649-4.268,1.086A3.341,3.341,0,0,1,842.28,1066a7.807,7.807,0,0,0-5.006-4.7,5.323,5.323,0,0,0-4.85,1.358c-1.843,1.591-.388,5.355.892,8.672,1.067,2.774,2,5.18,1.106,6.4a2.311,2.311,0,0,1-2.134.718,3.048,3.048,0,0,0-2.794.989C828.1,1081.329,829.339,1085.345,829.688,1086.373Z" transform="translate(-828.072 -1051.367)"/></g><path class="c" d="M843.823,1077.009s-12.2-9.157-7.993-16.724c4.21-7.547,10.612,3.2,10.612,3.2s-8.44-20.061,0-23.825,13.232,20.643,13.232,20.643-.155-18.315,8.149-18.16,2.755,19.479,2.755,19.479,7.12-10.166,11.777-7.838,0,12.494-2.173,13.95,8.129-6.693,10.748-4.074-2.328,11.777-4.656,13.368C882.761,1077.009,843.823,1077.009,843.823,1077.009Z" transform="translate(-833.613 -1038.869)"/><path class="f" d="M983.769,1062.381a35.446,35.446,0,0,1,0,12.65s.466-.776,1.164-2.057c-.291.369-.446.6-.446.6s5.529-19.324-2.755-19.479c-2.5-.039-4.229,1.591-5.432,3.9C976.3,1058,982.45,1055.979,983.769,1062.381Z" transform="translate(-947.542 -1050.821)"/><g transform="translate(43.231 14.551)"><path class="f" d="M1050.9,1129.5a36.751,36.751,0,0,0,5.335-5.665c1.96-3.609,3.57-9.565.155-11.272-1.358-.679-2.91-.291-4.443.582,0,0,5.316,2.619,2.406,10.031A22.8,22.8,0,0,1,1050.9,1129.5Z" transform="translate(-1050.9 -1112.218)"/></g><path class="f" d="M894.194,1060.3s-4.792-24.407-13.232-20.643a5.838,5.838,0,0,0-3.162,3.725C883.892,1041.271,889.557,1050.293,894.194,1060.3Z" transform="translate(-868.152 -1038.869)"/><path class="f" d="M846.541,1140.657a12.666,12.666,0,0,0-.97-2.1c-1.862-2.58-6.5-7.877-9.8-1.96a6.816,6.816,0,0,0-.873,3.4C835,1139.92,842.214,1136.312,846.541,1140.657Z" transform="translate(-833.575 -1115.148)"/><path class="f" d="M1024.344,1162.713c-.892-.893-2.677-.543-4.54.252.058,0,3.783-.213-.679,7.159-2.6,4.288-11.544,5.607-18.625,5.956h19.207C1022.016,1174.49,1026.963,1165.332,1024.344,1162.713Z" transform="translate(-967.047 -1137.941)"/><path class="d" d="M884.816,1075.744H842.133l-.1-.078a33.727,33.727,0,0,1-5.646-5.588c-3.415-4.365-4.249-8.381-2.445-11.621,1.067-1.9,2.367-2.871,3.861-2.891h.039c2.134,0,4.21,1.94,5.626,3.628-2-5.743-5.549-18.489,1.261-21.555a4.439,4.439,0,0,1,4.016.116c4.734,2.445,7.819,12.785,9.08,17.927.078-1.086.194-2.367.407-3.725.718-4.85,2.057-8.284,3.958-10.166a5.513,5.513,0,0,1,4.055-1.688,4.1,4.1,0,0,1,3.434,1.727c1.474,2,1.882,5.685,1.164,10.981-.272,2.115-.7,4.055-1.009,5.413,2.251-2.813,7.334-8.323,11.1-6.441a4.244,4.244,0,0,1,2.192,3.8c.175,2.774-1.086,6.189-2.425,8.478.757-.485,1.61-.99,2.483-1.436,3.2-1.649,5.355-1.959,6.441-.873a3.858,3.858,0,0,1,.834,3.162c-.369,3.977-3.706,9.545-5.529,10.787Zm-42.411-.776h42.178c1.688-1.281,4.773-6.635,5.1-10.147a3.139,3.139,0,0,0-.6-2.561,1.65,1.65,0,0,0-1.261-.407c-2.445.019-6.6,2.677-8.381,3.958a3.864,3.864,0,0,1-.621.563c-.272.175-.582.388-.815.078-.078-.116-.175-.349.136-.621a10.158,10.158,0,0,1,.815-.621c1.494-1.688,3.647-6.286,3.434-9.623a3.442,3.442,0,0,0-1.766-3.143c-4.307-2.154-11.214,7.625-11.272,7.722l-1.319,1.9.64-2.212c.039-.136,3.706-13.154.427-17.578a3.34,3.34,0,0,0-2.833-1.4,4.707,4.707,0,0,0-3.492,1.455c-4.288,4.249-4.249,16.2-4.249,16.317l-.776.078c-.039-.175-3.453-17.228-9.332-20.274a3.658,3.658,0,0,0-3.356-.078c-7.993,3.589.116,23.126.194,23.32l-.7.349c-.039-.058-3.434-5.7-6.693-5.7h-.039c-1.2.019-2.289.854-3.2,2.483C830.8,1065.655,841.241,1074.075,842.405,1074.968Z" transform="translate(-832.059 -1037.216)"/></g><g transform="translate(84.054 6.813)"><path class="c" d="M767.2,747.007s5.82,10.535,15.211,4.016c5.335-4.113-.116-11.68-3.841-10.632-3.725,1.028-4.753,4.132-7.858,2.483S765.339,744.523,767.2,747.007Z" transform="translate(-762.702 -654.672)"/><path class="f" d="M770.725,751.756a3.051,3.051,0,0,0,2.561.33c-.155,1.921.039,5.005,2.425,6.752,2.968,2.173,7.237-2.794,8.944-3.453a5.269,5.269,0,0,1-2.231,4.521c-9.39,6.519-15.211-4.016-15.211-4.016C765.351,753.405,767.64,750.107,770.725,751.756Z" transform="translate(-762.713 -663.554)"/><path class="d" d="M774.884,752.066a8.164,8.164,0,0,1-1.94-.233c-4.656-1.086-7.334-5.685-7.567-6.092a3.351,3.351,0,0,1,0-4.171,3.107,3.107,0,0,1,4.016-.5c1.688.912,2.639.252,4.055-.718a11,11,0,0,1,3.512-1.785c1.959-.543,4.5,1.067,5.8,3.647a5.91,5.91,0,0,1-1.61,7.664l-.019.019A11.122,11.122,0,0,1,774.884,752.066Zm-7.334-10.71a2,2,0,0,0-1.591.718,2.59,2.59,0,0,0,.039,3.221l.039.039c.019.039,2.658,4.714,7.081,5.743,2.425.563,4.967-.058,7.567-1.843a5.187,5.187,0,0,0,1.378-6.713c-1.125-2.27-3.279-3.686-4.889-3.24a10.6,10.6,0,0,0-3.279,1.688c-1.474,1.009-2.755,1.882-4.87.776A3.147,3.147,0,0,0,767.551,741.356Z" transform="translate(-761.188 -653.193)"/><path class="c" d="M785.846,300.872s-14.241-1.455-18.1,10.632c-3.628,11.33,4,17.694-7.237,24.135-16.413,9.41-21.962,45.38,27.763,47.068,36.455-.718,36.688-33.312,26.075-42.489-11.757-10.166-13.271-14.726-8.925-20.759C809.729,313.425,808.041,300.387,785.846,300.872Z" transform="translate(-748.461 -300.461)"/><path class="f" d="M777.053,381.647c-37.677-6.305-31.779-37.367-16.685-46,11.233-6.441,3.628-12.824,7.237-24.135,3.861-12.068,18.1-10.632,18.1-10.632.815-.019,1.591-.019,2.367,0-7.295,2.542-18.742,9.1-15.385,24.872,4.831,22.7-17.384,22.932-6.267,44.41C769.487,376.118,773.231,379.649,777.053,381.647Z" transform="translate(-748.341 -300.468)"/><path class="d" d="M786.6,381.614h0c-11.777-.407-21.206-2.736-28.035-6.926-5.82-3.589-9.662-8.556-11.117-14.357a24.844,24.844,0,0,1,11.195-26.483c6.752-3.88,6.5-7.586,6.131-12.727a27.99,27.99,0,0,1,.931-11.195,14.952,14.952,0,0,1,10.768-10.089,22.38,22.38,0,0,1,7.722-.8c5.626-.116,10.321.621,13.93,2.192a13.3,13.3,0,0,1,6.713,5.82,10.779,10.779,0,0,1-.776,11.195c-2.27,3.143-2.716,5.607-1.533,8.459,1.242,3.007,4.443,6.635,10.4,11.777,5.859,5.044,7.9,16.064,4.656,25.047a25,25,0,0,1-9.933,12.475c-5.471,3.55-12.553,5.452-21.05,5.607Zm-3.822-81.874a22.715,22.715,0,0,0-6.111.834c-5.219,1.494-8.653,4.715-10.205,9.584a27.116,27.116,0,0,0-.892,10.9c.369,5.219.64,9.332-6.519,13.445A24.1,24.1,0,0,0,748.2,360.156c1.4,5.607,5.122,10.418,10.768,13.891,6.713,4.132,16.006,6.422,27.647,6.829,20.934-.427,27.938-11.214,30.247-17.6,3.512-9.72.5-19.945-4.424-24.193-6.131-5.3-9.313-8.905-10.612-12.068-1.281-3.1-.8-5.859,1.61-9.216a9.958,9.958,0,0,0,.718-10.38c-3.628-6.907-14.066-7.722-19.945-7.605h-.039A6.477,6.477,0,0,0,782.776,299.74Z" transform="translate(-746.808 -298.98)"/><g transform="translate(39.306 0.411)"><line class="g" y2="156.122" transform="translate(0.388)"/><rect class="d" width="0.776" height="156.122"/></g><g transform="translate(17.778 95.492)"><line class="g" x1="21.632" y1="20.818" transform="translate(0.283 0.276)"/><rect class="d" width="0.776" height="30.014" transform="matrix(0.693, -0.72, 0.72, 0.693, 0, 0.559)"/></g><g transform="translate(25.562 2.536)"><line class="g" x2="13.853" y2="13.756" transform="translate(0.279 0.281)"/><rect class="d" width="0.776" height="19.518" transform="matrix(0.705, -0.71, 0.71, 0.705, 0, 0.551)"/></g><g transform="translate(39.317 18.741)"><line class="g" x1="17.306" y2="17.131" transform="translate(0.299 0.257)"/><rect class="d" width="24.349" height="0.776" transform="matrix(0.711, -0.703, 0.703, 0.711, 0, 17.115)"/></g><g transform="translate(39.335 1.09)"><line class="g" x1="7.896" y2="7.702" transform="translate(0.281 0.291)"/><rect class="d" width="11.039" height="0.776" transform="translate(0 7.703) rotate(-44.25)"/></g><g transform="translate(17.335 29.569)"><line class="g" x2="22.117" y2="20.992" transform="translate(0.241 0.293)"/><rect class="d" width="0.776" height="30.479" transform="translate(0 0.563) rotate(-46.499)"/></g><g transform="translate(2.604 45.044)"><line class="g" x2="36.843" y2="34.03" transform="translate(0.246 0.262)"/><rect class="d" width="0.776" height="50.152" transform="matrix(0.678, -0.735, 0.735, 0.678, 0, 0.57)"/></g><g transform="translate(39.307 41.418)"><line class="g" x1="28.229" y2="25.571" transform="translate(0.251 0.28)"/><rect class="d" width="38.104" height="0.776" transform="translate(0 25.579) rotate(-42.167)"/></g></g><g transform="translate(13.773 45.343)"><path class="h" d="M491.032,821.215c-2.425-29.587-33.952-13.562-30.188-5.3,0,0,17.519,34.9-18.043,51.937a6.78,6.78,0,0,0,2.348,4.87,38.981,38.981,0,0,1,6.053-1.63C473.571,866.789,493.457,850.821,491.032,821.215Z" transform="translate(-431.501 -744.633)"/><path class="i" d="M493.933,821.776a29.45,29.45,0,0,0-1.3-6.849A75.4,75.4,0,0,0,477.4,804.8c-6.616.834-12.882,5.277-13.853,9.216a15.276,15.276,0,0,0,.892,4.074c.175.427.388.951.6,1.552a48.577,48.577,0,0,0,7.295,11.272c10.554,12.766-2,31.721-25.94,40.3a6.158,6.158,0,0,0,1.649,2.1,38.973,38.973,0,0,1,6.053-1.63C476.472,867.35,496.358,851.383,493.933,821.776Z" transform="translate(-434.403 -745.195)"/><path class="j" d="M443.3,871.607l-.175-.136a7.094,7.094,0,0,1-2.5-5.141l-.019-.272.233-.116c10.457-5.006,17.306-12.068,20.333-20.973,5.122-15.017-2.406-30.285-2.483-30.441-.834-1.824-.194-4.016,1.8-6.208,3.958-4.365,12.359-7.683,19.033-5.432,4.094,1.4,9.177,5.413,10.089,16.724a50.457,50.457,0,0,1-2.076,19.828,41.081,41.081,0,0,1-8.634,14.881c-7.12,7.858-17.306,13.251-29.432,15.579a38.666,38.666,0,0,0-5.995,1.61Zm-1.863-5.064a6.172,6.172,0,0,0,2.018,4.191,41.733,41.733,0,0,1,5.9-1.572c11.971-2.309,21.982-7.605,29-15.346a40.2,40.2,0,0,0,8.478-14.609,49.3,49.3,0,0,0,2.037-19.518h0c-.7-8.614-4.016-14.182-9.565-16.064-6.383-2.154-14.415,1.028-18.2,5.219-1.766,1.96-2.367,3.861-1.668,5.355a45.835,45.835,0,0,1,3.24,9.7c1.183,5.316,2,13.329-.737,21.341C458.837,854.282,451.95,861.441,441.434,866.544Z" transform="translate(-429.728 -743.069)"/><g transform="translate(4.237 122.64)"><path class="k" d="M417.663,1137.57a6.78,6.78,0,0,1-2.348-4.87,70.854,70.854,0,0,1-6.616,2.736,14.906,14.906,0,0,0,2.134,6.228A17.007,17.007,0,0,1,417.663,1137.57Z" transform="translate(-408.254 -1132.118)"/><path class="j" d="M408.9,1139.886l-.272-.427a15.139,15.139,0,0,1-2.192-6.383l-.039-.31.291-.1c2.328-.834,4.559-1.746,6.6-2.716l.5-.252.039.563a6.268,6.268,0,0,0,2.212,4.6l.524.427-.64.233a17.072,17.072,0,0,0-6.693,4Zm-1.649-6.6a14.675,14.675,0,0,0,1.766,5.335,17.787,17.787,0,0,1,6.053-3.609,7.131,7.131,0,0,1-1.96-4.152A60.4,60.4,0,0,1,407.254,1133.289Z" transform="translate(-406.4 -1129.7)"/></g><g transform="translate(0 125.454)"><path class="j" d="M390.666,1163.779c1.106-1.94-1.533-6.48,2.348-10.651a15.186,15.186,0,0,1-2.134-6.228c-1.028.369-2.1.718-3.2,1.067C384.341,1150.373,390.045,1164.846,390.666,1163.779Z" transform="translate(-386.235 -1146.376)"/><path class="j" d="M388.915,1162.049h-.078c-.213-.039-.64-.078-1.746-2.736a40.162,40.162,0,0,1-1.8-5.471c-.776-3.1-1.319-7.082.485-8.381l.058-.039.058-.019c1.067-.33,2.1-.679,3.2-1.048l.466-.155.058.485a14.394,14.394,0,0,0,2.076,6.073l.155.252-.194.213c-2.386,2.58-2.192,5.3-2.037,7.469a5.71,5.71,0,0,1-.272,3.124h0A.533.533,0,0,1,388.915,1162.049Zm-.252-.64Zm-2.464-15.288c-.563.446-.854,1.416-.834,2.852.019,4.191,2.483,10.612,3.453,12.068a7.5,7.5,0,0,0,.019-2.309c-.155-2.153-.388-5.083,2.037-7.838a15.223,15.223,0,0,1-1.96-5.665C387.984,1145.558,387.091,1145.849,386.2,1146.121Z" transform="translate(-384.562 -1144.2)"/></g><path class="h" d="M628.089,839.511a72.064,72.064,0,0,0,2.988-16.821c1.494-45.05-36.106-56.943-36.106-56.943-18.606-3.725-32.749,4.094-27.724,17.675s18.8,11.718,40.762,20.468c14.978,5.976,15.23,22.835,13.891,34.69A14.907,14.907,0,0,0,628.089,839.511Z" transform="translate(-530.978 -712.971)"/><path class="i" d="M566.965,777.811a12.888,12.888,0,0,0,.272,9.371c5.025,13.581,18.8,11.718,40.762,20.468,14.978,5.976,15.23,22.835,13.891,34.69a14.65,14.65,0,0,0,2.522.7,198.319,198.319,0,0,0-.019-26.269c-1.494-20.856-29.587-20.856-26.793-29.975s-2.6-17.306-2.6-17.306C581.263,769.372,572.242,772.864,566.965,777.811Z" transform="translate(-530.968 -716.731)"/><path class="j" d="M625.4,838.224a15.012,15.012,0,0,1-5.394-.99l-.291-.116.039-.291c.892-7.819.621-14.163-.815-19.4-2-7.276-6.325-12.281-12.844-14.881a170.5,170.5,0,0,0-18.412-5.956c-11.486-3.182-19.071-5.3-22.564-14.745-1.843-4.986-1.261-9.448,1.688-12.882,4.773-5.588,14.92-7.625,26.483-5.3h.039a55.7,55.7,0,0,1,18.761,11.68,53.845,53.845,0,0,1,12.572,17.6,63.342,63.342,0,0,1,5.044,28.074,67.831,67.831,0,0,1-2.716,15.793l-.291,1.106-.078.272-.272.019C626.042,838.224,625.732,838.224,625.4,838.224Zm.951-.407Zm-5.782-1.2a14.482,14.482,0,0,0,5.471.815c.078-.272.155-.543.213-.834a69.127,69.127,0,0,0,2.7-15.618,62.784,62.784,0,0,0-4.967-27.705,53.541,53.541,0,0,0-12.378-17.345,55.1,55.1,0,0,0-18.47-11.524,39.883,39.883,0,0,0-15.56-.272c-4.462.912-7.974,2.755-10.166,5.335-2.755,3.221-3.3,7.411-1.552,12.126,3.356,9.08,10.787,11.136,22.059,14.26a168.905,168.905,0,0,1,18.489,5.976c6.752,2.7,11.233,7.877,13.29,15.385C621.153,822.489,621.444,828.834,620.571,836.614Z" transform="translate(-529.242 -711.276)"/><path class="l" d="M399.148,579.814c-4.171-2.794-6.984-11.583-.543-17.519,2.425-2.231,1.494-3.725,0-3.919s-10.613,4.288-9.681,18.974a17.934,17.934,0,0,0,7,13.659A15.652,15.652,0,0,1,399.148,579.814Z" transform="translate(-388.024 -546.574)"/><path class="k" d="M391.924,585.2c-1.94,2.988-3.415,7.431-3.007,13.794a17.934,17.934,0,0,0,7,13.659,14.379,14.379,0,0,1,.213-4.792A22.627,22.627,0,0,1,391.924,585.2Z" transform="translate(-388.017 -568.2)"/><g transform="translate(36.816 12.348)"><path class="m" d="M576.3,563.3l2.289.64a.327.327,0,0,1,.155.563l-.757.621" transform="translate(-575.916 -562.897)"/><path class="j" d="M576.394,563.838a.326.326,0,0,1-.291-.136.377.377,0,0,1,.058-.543l.66-.543-2.212-.621a.393.393,0,1,1,.213-.757l2.289.64a.713.713,0,0,1,.543.524.676.676,0,0,1-.233.718l-.757.621A.391.391,0,0,1,576.394,563.838Zm.543-1.184Z" transform="translate(-574.323 -561.223)"/></g><path class="j" d="M394.828,590.358l-.737-.543a18.18,18.18,0,0,1-7.159-13.95c-.272-4.152.1-11.854,5.432-16.879,2.018-1.9,3.958-2.619,4.7-2.522a1.973,1.973,0,0,1,1.746,1.281c.213.66.116,1.785-1.533,3.3a11.068,11.068,0,0,0,.5,16.9l.349.233-.252.33a15.2,15.2,0,0,0-3.143,10.942ZM396.9,557.24a7.855,7.855,0,0,0-4.016,2.328c-5.1,4.792-5.432,12.242-5.18,16.258a17.55,17.55,0,0,0,6.15,12.824A16.117,16.117,0,0,1,397,578.388a11.9,11.9,0,0,1-.252-17.888c1.048-.951,1.513-1.862,1.319-2.5a1.215,1.215,0,0,0-1.106-.737A.071.071,0,0,0,396.9,557.24Z" transform="translate(-386.42 -545.032)"/><path class="n" d="M442.215,640.494c5.762-6.325,8.556-20.837,7.081-21.594,0,0-9.856,1.669-15.269,8.75a4.073,4.073,0,0,1-5.976.951,15.608,15.608,0,0,0-3.221,11.233C430.71,644.258,438.684,644.374,442.215,640.494Z" transform="translate(-416.928 -595.362)"/><path class="o" d="M444.871,695.233a8.972,8.972,0,0,0-1.164-2.93s-6.519-3.356-10.981,3.531c-1.4,2.154-4.947.621-7.664-2.289a14.4,14.4,0,0,0-.213,4.792c5.879,4.423,13.853,4.54,17.384.66A20.552,20.552,0,0,0,444.871,695.233Z" transform="translate(-416.945 -653.864)"/><path class="j" d="M433.234,642.064a17.319,17.319,0,0,1-10.263-3.55l-.136-.1-.019-.155a15.894,15.894,0,0,1,3.3-11.5l.213-.291.31.213a3.669,3.669,0,0,0,5.432-.873c5.432-7.12,15.094-8.828,15.5-8.886l.116-.019.116.058a1.181,1.181,0,0,1,.543.912c.563,3.065-2.192,15.482-7.489,21.283h0A10.117,10.117,0,0,1,433.234,642.064Zm-9.662-4.055a16.634,16.634,0,0,0,9.216,3.279,9.658,9.658,0,0,0,7.508-2.658h0c2.406-2.639,4.618-7.178,6.111-12.494,1.319-4.753,1.436-7.8,1.125-8.42-1.4.291-9.992,2.231-14.823,8.556a4.4,4.4,0,0,1-6.17,1.242A15.049,15.049,0,0,0,423.573,638.009Z" transform="translate(-415.3 -593.75)"/><path class="n" d="M507.16,610.03s13.038-3.919,18.974,3.919c5.956,7.819-3.162,15.075,13.969,26.25,3.919,1.863-3.356,22.525-30.887,20.837C500.835,660.3,490.223,624.173,507.16,610.03Z" transform="translate(-476.111 -587.423)"/><path class="o" d="M539.6,703.094c-1.649,1.494-4.055,10.613-21.089,12.145C497.849,717.1,497.985,686.7,497.985,686.7c-3.744,16.627,3.88,36.339,10.3,36.9C534.673,725.231,542.433,706.315,539.6,703.094Z" transform="translate(-475.181 -650.007)"/><path class="g" d="M504.941,611.126s14.338-4.288,20.294,3.531-3.162,15.075,13.969,26.25c3.919,1.862-3.356,22.525-30.887,20.837C499.916,661.027,489.5,627.7,504.941,611.126Z" transform="translate(-475.192 -588.151)"/><path class="j" d="M509.846,660.812c-1.009,0-2.037-.039-3.085-.1-1.552-.136-3.2-1.3-4.773-3.337-4.773-6.228-8.4-20.022-6.208-32.3a.384.384,0,1,1,.757.136c-2.154,12.068,1.4,25.61,6.073,31.7,1.436,1.882,2.891,2.93,4.229,3.046,19.479,1.183,29.335-9.08,31.178-16.278.485-1.921.291-3.453-.485-3.822l-.039-.019c-11.02-7.179-11.35-12.9-11.621-17.966-.155-2.871-.31-5.607-2.425-8.381-5.723-7.508-19.731-3.434-19.867-3.4a.387.387,0,1,1-.233-.737,33.951,33.951,0,0,1,8.013-1.183c5.782-.116,10.186,1.552,12.688,4.85,2.251,2.949,2.425,5.8,2.58,8.789.291,5.1.582,10.38,11.253,17.345,1.145.563,1.494,2.367.873,4.715-.388,1.533-2.212,6.887-8.828,11.427C524.571,658.911,517.684,660.812,509.846,660.812Z" transform="translate(-473.674 -586.714)"/><path class="l" d="M532.291,542.1a6.6,6.6,0,0,0,4.152,4.385c3.376,1.145,2.037,11.932-5.995,10.283S526.665,542.527,532.291,542.1Z" transform="translate(-498.564 -533.462)"/><path class="k" d="M535.084,545.747a6.76,6.76,0,0,1-2.658-3.647c-5.626.427-9.856,13.018-1.843,14.667a7.418,7.418,0,0,0,2.677.078c1.009-1.9-.66-3.841-1.824-4.909-1.28-1.164,1.086-.7,2.173-.6s1.358-1.4.427-3.085C533.57,547.455,534.25,546.5,535.084,545.747Z" transform="translate(-498.68 -533.462)"/><path class="j" d="M530.557,555.637a8.944,8.944,0,0,1-1.707-.175c-3.182-.66-4.967-3.143-4.734-6.674a11.734,11.734,0,0,1,2.076-5.782,6.44,6.44,0,0,1,4.54-2.988l.33-.019.078.33a6.365,6.365,0,0,0,3.9,4.113c1.513.524,2.561,2.949,1.688,6.131C536.009,553.154,534.049,555.637,530.557,555.637Zm-.078-14.8c-2.483.427-5.335,3.8-5.607,7.993-.1,1.494.116,5.025,4.113,5.859,4.035.834,6.247-1.688,6.965-4.327.64-2.367.1-4.753-1.183-5.2A7,7,0,0,1,530.479,540.834Z" transform="translate(-497.024 -531.769)"/><path class="j" d="M511.394,503.409s4.268,1.358,3.259,4.947c-1.183,4.21-6.305,5.044-4.21,8.381s.834,3.822-1.513,1.571-3.55.524-1.494,2.328c2.076,1.8,2.833,4.288,1.242,5.432s-10.671-.931-10.089-8.42c.64-8.284,7.955-4.676,7.761-9.681C503.342,500.228,511.394,503.409,511.394,503.409Z" transform="translate(-476.444 -501.756)"/><path class="p" d="M508.93,568.8c2.192,2.115,3.434,1.824,1.863-.97a8.834,8.834,0,0,0-3.473-.233c-2.231.563.194,4.462-4.559,3.919-4.734-.543-3.589-6.111-3.589-6.111a9.123,9.123,0,0,0-.582,2.736c-.582,7.508,8.5,9.584,10.089,8.42,1.61-1.164.834-3.628-1.242-5.432C505.379,569.319,506.582,566.545,508.93,568.8Z" transform="translate(-476.444 -552.241)"/><path class="j" d="M505.661,525.227a10.191,10.191,0,0,1-4.734-1.358,7.965,7.965,0,0,1-4.346-7.78c.369-4.85,2.988-5.84,5.083-6.635,1.591-.6,2.736-1.028,2.677-2.93-.892-2.348-.892-4.016.039-4.928,1.591-1.572,5.258-.194,5.549-.078,1.61.524,4.385,2.309,3.492,5.413a9.269,9.269,0,0,1-2.949,4.21c-1.533,1.455-2.289,2.309-1.319,3.861,1.125,1.8,1.416,2.91.834,3.376-.7.563-1.979-.407-2.949-1.339-.582-.563-1.145-.815-1.494-.718a.572.572,0,0,0-.369.466,2.275,2.275,0,0,0,.892,2,5.674,5.674,0,0,1,2.231,4.152,2.465,2.465,0,0,1-1.009,1.9A2.7,2.7,0,0,1,505.661,525.227Zm.951-23.611a2.4,2.4,0,0,0-1.707.524c-.679.679-.621,2.115.175,4.152l.019.058v.058c.1,2.5-1.572,3.124-3.182,3.744-1.979.757-4.249,1.61-4.579,5.976a7.214,7.214,0,0,0,3.958,7.043c2.367,1.319,4.889,1.494,5.529,1.028a1.635,1.635,0,0,0,.7-1.3,4.935,4.935,0,0,0-1.96-3.531,3.012,3.012,0,0,1-1.145-2.755,1.337,1.337,0,0,1,.912-1.048c.369-.116,1.164-.155,2.27.892,1.125,1.086,1.746,1.28,1.9,1.28h0c.019-.116.039-.7-1.009-2.367-1.358-2.173,0-3.473,1.436-4.831a8.8,8.8,0,0,0,2.736-3.861,3.085,3.085,0,0,0-1.125-3.415,6.613,6.613,0,0,0-1.882-1.067h-.019A10.7,10.7,0,0,0,506.612,501.616Z" transform="translate(-474.825 -500.214)"/><path class="l" d="M853.386,1154.157c-.369-2.328.233-4.986,1.086-8.226a14.961,14.961,0,0,1-6.189-.931c-.369,3.182-.834,6.014-1.183,8.168A20.279,20.279,0,0,0,853.386,1154.157Z" transform="translate(-757.362 -1019.391)"/><path class="k" d="M850.706,1145.7a15.16,15.16,0,0,1-2.522-.7c-.369,3.182-.834,6.014-1.183,8.168a24.375,24.375,0,0,0,3.337.8C850.259,1152.45,850.492,1149.617,850.706,1145.7Z" transform="translate(-757.281 -1019.391)"/><path class="j" d="M851.105,1152.208a20.485,20.485,0,0,1-5.995-1.028l-.31-.1.058-.33c.058-.33.1-.66.155-1.009.31-1.979.718-4.443,1.028-7.14l.058-.5.466.175a14.43,14.43,0,0,0,6.034.912l.543-.039-.136.524c-.834,3.182-1.436,5.782-1.086,8.071l.058.427-.446.019A3,3,0,0,1,851.105,1152.208Zm-5.432-1.668a19.828,19.828,0,0,0,5.413.892,21.523,21.523,0,0,1,1.028-7.431,14.668,14.668,0,0,1-5.355-.815c-.291,2.542-.679,4.831-.97,6.693C845.751,1150.113,845.712,1150.326,845.673,1150.54Z" transform="translate(-755.508 -1017.054)"/><g transform="translate(88.924 133.272)"><path class="j" d="M858.4,1195.617c-4.579-2.348-6.441-4.7-6.888-7.528a20.381,20.381,0,0,1-6.286-.99,27.157,27.157,0,0,0-.427,3.492C844.819,1195.986,860.263,1196.917,858.4,1195.617Z" transform="translate(-844.431 -1186.595)"/><path class="j" d="M855.414,1194.433a27.539,27.539,0,0,1-4.753-.543c-6.752-1.4-7.76-3.977-7.76-5.394a26.868,26.868,0,0,1,.427-3.55l.078-.446.427.136a19.288,19.288,0,0,0,6.15.99l.349-.019.058.349c.291,1.921,1.339,4.5,6.674,7.237l.039.019a.575.575,0,0,1,.291.718C857.218,1194.3,856.4,1194.433,855.414,1194.433Zm-11.389-8.944a22.833,22.833,0,0,0-.349,2.988c0,1.125.8,2.134,2.348,2.988a22.211,22.211,0,0,0,10.224,2.134c-3.958-2.115-6-4.365-6.558-7.237h-.1A19.69,19.69,0,0,1,844.025,1185.489Z" transform="translate(-842.9 -1184.5)"/></g><path class="l" d="M710.237,511.983c-4.909-12.553-12.281-13.212-13.038-12.281-.737.931,2.425,3.531,1.125,2.794s-2.794-.737-.737.931c13.329,10.419,5.161,29.238-2.542,25.2.757,3.744,1.125,9.41-1.746,14.241C712.139,542.734,714.215,522.13,710.237,511.983Z" transform="translate(-633.401 -499.057)"/><path class="k" d="M710.318,512.617c-3.434-8.789-8.071-11.738-10.807-12.417,8.168,3.958,13.232,17.073,6.538,30.285-2.173,4.288-6.131,5.976-10.516,6.461a16.417,16.417,0,0,1-2.134,6.538C712.219,543.368,714.3,522.764,710.318,512.617Z" transform="translate(-633.481 -499.691)"/><path class="j" d="M689.8,541.777l.349-.582c2.794-4.7,2.464-10.186,1.688-13.969l-.155-.8.718.388c2.328,1.222,4.967.175,6.849-2.755,3.221-4.986,3.88-15.055-4.734-21.788-.737-.6-1.436-1.28-1.067-1.824.233-.33.7-.33,1.2-.194-.563-.757-1.067-1.63-.582-2.251.31-.388,1.067-.524,2.057-.369a10.79,10.79,0,0,1,5.491,2.988,26.139,26.139,0,0,1,6.15,9.759h0a28.27,28.27,0,0,1,1.649,11.66,24.655,24.655,0,0,1-3.8,12.2c-3.3,4.889-8.537,7.489-15.133,7.528Zm2.949-13.988c.66,3.706.8,8.731-1.591,13.193,6.092-.213,10.748-2.619,13.833-7.178,4.579-6.771,4.482-16.976,2.076-23.146h0c-4-10.205-9.313-11.951-10.826-12.242a2.337,2.337,0,0,0-1.533.058c-.155.194.194.834,1.067,1.9.407.485.6.737.369,1.028s-.582.1-.8-.039a3.519,3.519,0,0,0-1.048-.407,4.419,4.419,0,0,0,.737.7c9,7.023,8.284,17.578,4.909,22.816C697.968,527.478,695.271,528.7,692.749,527.789Z" transform="translate(-630.58 -497.576)"/><path class="n" d="M583.5,627.113c7.586,3.453,13.794,4.85,18.8,4.812,2.871-4.831,2.5-10.5,1.746-14.241-.155-.078-.291-.155-.446-.252a39.914,39.914,0,0,0-23.2-7.489" transform="translate(-542.405 -588.131)"/><path class="o" d="M595.513,685.285c7.586,3.453,13.794,4.85,18.8,4.812a16.417,16.417,0,0,0,2.134-6.538c-9.157,1.009-20.2-3.279-20.953-.5a6.034,6.034,0,0,0-.194,1.106Z" transform="translate(-554.414 -646.304)"/><path class="j" d="M600.492,630.736c-5.355,0-11.68-1.63-18.78-4.85a.395.395,0,1,1,.33-.718c6.984,3.162,13.173,4.773,18.412,4.792,2.619-4.579,2.348-9.875,1.61-13.6-.116-.058-.213-.116-.31-.175a39.729,39.729,0,0,0-22.952-7.45.388.388,0,1,1-.039-.776,40.676,40.676,0,0,1,23.456,7.566,3.41,3.41,0,0,0,.388.233l.155.078.039.175c.8,3.919,1.125,9.6-1.785,14.512l-.116.194h-.213A.6.6,0,0,1,600.492,630.736Z" transform="translate(-540.787 -586.535)"/><ellipse class="m" cx="0.563" cy="0.563" rx="0.563" ry="0.563" transform="translate(35.085 13.411)"/><path class="j" d="M575.5,587.781a3.115,3.115,0,0,1-.97-.175.4.4,0,0,1-.233-.5.381.381,0,0,1,.5-.233,1.927,1.927,0,0,0,2-.407.385.385,0,0,1,.582.5A2.726,2.726,0,0,1,575.5,587.781Z" transform="translate(-537.468 -569.112)"/></g></svg>