<svg xmlns="http://www.w3.org/2000/svg" width="196.656" height="192.734" viewBox="0 0 196.656 192.734"><defs><style>.a{fill:#cdcdcd;opacity:0.27;}.b{fill:#bcbcbc;}.c{fill:#a5a5a5;}.d{fill:#555;}.e{fill:none;}.f{fill:#cecece;}.g{fill:#e5e5e5;}.h,.n{fill:#fff;}.h{opacity:0.68;}.i{fill:#b22747;}.j{fill:rgba(59,85,36,0.2);}.k{fill:#333;}.l{fill:#f9c7a5;}.m{fill:#f99f91;}.o{fill:#f3f3f3;}.p{fill:#e4e3e5;}.q{fill:#c9c6cc;}.r,.s{fill:#222;}.s{opacity:0.54;}.t{fill:#f48378;}</style></defs><g transform="translate(0 8.654)"><path class="a" d="M417.175,461.05s-39.152,32.866-69.263,16.239-6.4-52.83-45.593-47.2c-39.21,5.646-65.053-23.185-57.971-67.827s44-20.8,58.495-47.456c8.3-15.288,49.978-27.918,78.556-1.9s-8.187,41.907,16.549,58.126S464.475,424.615,417.175,461.05Z" transform="translate(-243.18 -297.906)"/><path class="a" d="M481.878,1050.473s-3.027-26.075-25.532-23.32-11.7,17.6-1.8,15.928,15.793,7.605,16.918,17.093C472.585,1069.642,483.139,1062.58,481.878,1050.473Z" transform="translate(-404.289 -885.505)"/></g><g transform="translate(149.471 77.826)"><path class="b" d="M1058.643,1085.6H1040.6l6.907,24.989a5.856,5.856,0,0,0,5.646,4.307h10.981a5.856,5.856,0,0,0,5.646-4.307l6.907-24.989Z" transform="translate(-1035.361 -1001.949)"/><path class="c" d="M1090.2,1085.875s5.665,4.85,3.725,14.551c-1.8,9.022-16.879,8.808-23.029,6.558l1.028,3.706a5.857,5.857,0,0,0,5.646,4.307h10.981a5.856,5.856,0,0,0,5.646-4.307l6.907-24.989h-10.671A.914.914,0,0,0,1090.2,1085.875Z" transform="translate(-1059.782 -1002.029)"/><path class="d" d="M1061.958,1113.672h-10.981a6.292,6.292,0,0,1-6.034-4.579L1037.9,1083.6H1075l-7.043,25.493A6.234,6.234,0,0,1,1061.958,1113.672Zm-23.029-29.3,6.771,24.5a5.5,5.5,0,0,0,5.277,4.016h10.981a5.483,5.483,0,0,0,5.277-4.016l6.771-24.5Z" transform="translate(-1033.185 -1000.337)"/><g transform="translate(4.851 80.159)"><ellipse class="d" cx="18.043" cy="2.522" rx="18.043" ry="2.522" transform="translate(0.388 0.388)"/><path class="d" d="M1057.031,1073.42a99.814,99.814,0,0,1-12.8-.737c-5.626-.8-5.626-1.785-5.626-2.173s0-1.378,5.626-2.173a96.611,96.611,0,0,1,12.8-.737,99.811,99.811,0,0,1,12.8.737c5.626.8,5.626,1.785,5.626,2.173s0,1.377-5.626,2.173A100.033,100.033,0,0,1,1057.031,1073.42Zm0-5.044a95.908,95.908,0,0,0-12.495.718c-4.074.543-5.1,1.222-5.161,1.436.058.194,1.067.873,5.161,1.416a99.459,99.459,0,0,0,12.495.718,95.908,95.908,0,0,0,12.494-.718c4.055-.543,5.083-1.2,5.161-1.416-.058-.213-1.106-.873-5.161-1.416A89.224,89.224,0,0,0,1057.031,1068.376Z" transform="translate(-1038.6 -1067.6)"/></g><g transform="translate(22.894 9.344)"><line class="e" y1="74.501" transform="translate(0.388)"/><rect class="d" width="0.776" height="74.501"/></g><g transform="translate(22.584 9.05)"><g transform="translate(0.757 51.995)"><path class="b" d="M1136.6,982.244s9.681-14.861,19.013-10.283C1166.284,977.2,1153.673,994.854,1136.6,982.244Z" transform="translate(-1136.076 -970.697)"/><path class="f" d="M1137.1,982c13.018,4.113,20.216-3.124,20.449-9.157a9.215,9.215,0,0,0-1.552-.97C1147.247,967.587,1138.186,980.412,1137.1,982Z" transform="translate(-1136.479 -970.63)"/><path class="d" d="M1146.2,985.463c-3.162,0-7.275-1.009-12.009-4.521l-.291-.213.194-.31a37.813,37.813,0,0,1,6.073-6.946c4.812-4.229,9.468-5.432,13.426-3.473a6.7,6.7,0,0,1,4.152,6.034c.019,3.162-2.154,6.325-5.549,8.052A13.288,13.288,0,0,1,1146.2,985.463Zm-11.253-4.928c8.4,6.053,14.609,4.036,16.9,2.852,3.143-1.591,5.161-4.482,5.122-7.353a5.934,5.934,0,0,0-3.725-5.335C1145.075,966.663,1136.383,978.459,1134.948,980.535Z" transform="translate(-1133.9 -969.085)"/></g><g transform="translate(0.582 35.635)"><path class="b" d="M1135.6,898.238s7.043-14.241,15.812-11.156C1161.462,890.633,1152.11,907.667,1135.6,898.238Z" transform="translate(-1135.096 -886.28)"/><path class="f" d="M1136,898.148c12.009,2.289,17.655-4.909,17.228-10.283a7.107,7.107,0,0,0-1.494-.7C1143.508,884.256,1136.8,896.634,1136,898.148Z" transform="translate(-1135.418 -886.344)"/><path class="d" d="M1142.875,899.921a19.246,19.246,0,0,1-9.565-2.852l-.31-.175.155-.33a34.208,34.208,0,0,1,4.676-6.829c3.841-4.268,7.877-5.84,11.621-4.521a6.015,6.015,0,0,1,4.346,4.967c.349,2.833-1.261,5.879-4.113,7.78A12.1,12.1,0,0,1,1142.875,899.921Zm-8.847-3.337c8.071,4.462,13.348,2.018,15.25.737,2.6-1.746,4.094-4.5,3.764-7.043a5.289,5.289,0,0,0-3.841-4.326C1141.575,883.255,1135.134,894.488,1134.028,896.583Z" transform="translate(-1133 -884.76)"/></g><g transform="translate(0.369 21.996)"><path class="b" d="M1134.5,825.722s5.685-11.505,12.785-9C1155.4,819.572,1147.829,833.328,1134.5,825.722Z" transform="translate(-1133.996 -815.995)"/><path class="f" d="M1134.8,825.608c9.7,1.843,14.26-3.977,13.911-8.323a6.28,6.28,0,0,0-1.2-.563C1140.853,814.374,1135.44,824.366,1134.8,825.608Z" transform="translate(-1134.237 -815.997)"/><path class="d" d="M1139.971,826.847a15.791,15.791,0,0,1-7.76-2.309l-.31-.175.155-.33a27.838,27.838,0,0,1,3.783-5.529c3.143-3.473,6.4-4.753,9.468-3.667a4.942,4.942,0,0,1,3.57,4.074,6.945,6.945,0,0,1-3.356,6.364A10.2,10.2,0,0,1,1139.971,826.847Zm-7.062-2.813c6.441,3.531,10.651,1.591,12.184.563a6.183,6.183,0,0,0,3.007-5.626,4.193,4.193,0,0,0-3.046-3.434C1139.02,813.421,1133.9,822.21,1132.909,824.033Z" transform="translate(-1131.9 -814.461)"/></g><g transform="translate(0.194 10.014)"><path class="b" d="M1133.5,762.284s4.6-9.293,10.341-7.275C1150.4,757.318,1144.287,768.435,1133.5,762.284Z" transform="translate(-1133.015 -754.33)"/><path class="f" d="M1133.8,762.121c7.838,1.494,11.524-3.2,11.253-6.732a5.631,5.631,0,0,0-.97-.466C1138.689,753.041,1134.324,761.112,1133.8,762.121Z" transform="translate(-1133.257 -754.264)"/><path class="d" d="M1137.616,762.869a12.717,12.717,0,0,1-6.305-1.882l-.31-.175.155-.33a22.579,22.579,0,0,1,3.065-4.482c2.561-2.833,5.238-3.88,7.741-2.988a4.077,4.077,0,0,1,2.93,3.356,5.707,5.707,0,0,1-2.736,5.219A8.319,8.319,0,0,1,1137.616,762.869Zm-5.607-2.367c5.141,2.794,8.5,1.242,9.7.427a4.914,4.914,0,0,0,2.406-4.462,3.3,3.3,0,0,0-2.425-2.716C1136.937,752.062,1132.882,758.911,1132.009,760.5Z" transform="translate(-1131 -752.703)"/></g><path class="b" d="M1132.6,708.846s3.512-7.081,7.877-5.549C1145.482,705.044,1140.826,713.522,1132.6,708.846Z" transform="translate(-1132.096 -702.694)"/><path class="f" d="M1132.8,708.752c5.976,1.145,8.789-2.445,8.575-5.122a3.707,3.707,0,0,0-.737-.349C1136.525,701.826,1133.188,708,1132.8,708.752Z" transform="translate(-1132.257 -702.677)"/><path class="d" d="M1135.161,709.024a9.6,9.6,0,0,1-4.85-1.455l-.31-.175.155-.33a16.38,16.38,0,0,1,2.367-3.434c1.979-2.192,4.055-2.988,5.995-2.309a3.187,3.187,0,0,1,2.289,2.639,4.428,4.428,0,0,1-2.134,4.074A6.522,6.522,0,0,1,1135.161,709.024Zm-4.132-1.94c3.841,2.037,6.325.892,7.217.291a3.637,3.637,0,0,0,1.785-3.318,2.461,2.461,0,0,0-1.785-2C1134.773,700.817,1131.766,705.745,1131.028,707.084Z" transform="translate(-1130 -701.086)"/></g><g transform="translate(0 61.058)"><path class="b" d="M1038.572,982.244s-9.681-14.861-19.013-10.283C1008.888,977.2,1021.5,994.854,1038.572,982.244Z" transform="translate(-1015.232 -970.709)"/><path class="f" d="M1048.349,982c-13.018,4.113-20.216-3.124-20.449-9.157a9.22,9.22,0,0,1,1.552-.97C1038.2,967.587,1047.263,980.412,1048.349,982Z" transform="translate(-1025.125 -970.643)"/><path class="d" d="M1025.141,985.515a13.218,13.218,0,0,1-5.995-1.378c-3.4-1.727-5.588-4.889-5.549-8.052a6.7,6.7,0,0,1,4.152-6.034c3.977-1.94,8.614-.737,13.426,3.473a37.806,37.806,0,0,1,6.073,6.946l.194.31-.291.213C1032.417,984.486,1028.323,985.515,1025.141,985.515Zm-3.512-15.6a7.788,7.788,0,0,0-3.531.834,5.954,5.954,0,0,0-3.725,5.335c-.019,2.871,2,5.762,5.122,7.353,2.289,1.164,8.478,3.2,16.9-2.852C1035.172,978.821,1028.614,969.916,1021.63,969.916Z" transform="translate(-1013.597 -969.15)"/></g><g transform="translate(2.185 44.686)"><path class="b" d="M1046.878,898.238s-7.043-14.241-15.812-11.156C1021.016,890.633,1030.368,907.667,1046.878,898.238Z" transform="translate(-1026.518 -886.28)"/><path class="f" d="M1057.735,898.148c-12.009,2.289-17.655-4.909-17.228-10.283a7.107,7.107,0,0,1,1.494-.7C1050.227,884.256,1056.94,896.634,1057.735,898.148Z" transform="translate(-1037.452 -886.344)"/><path class="d" d="M1035.846,899.921a12.234,12.234,0,0,1-6.829-1.96c-2.852-1.9-4.462-4.967-4.113-7.78a6.068,6.068,0,0,1,4.346-4.967c3.745-1.319,7.76.252,11.621,4.521a34.208,34.208,0,0,1,4.676,6.829l.155.33-.31.175A19.334,19.334,0,0,1,1035.846,899.921Zm-3.938-14.376a7.32,7.32,0,0,0-2.367.407,5.288,5.288,0,0,0-3.841,4.326c-.33,2.542,1.164,5.3,3.764,7.043,1.9,1.281,7.178,3.725,15.249-.737C1043.7,894.7,1038.446,885.544,1031.908,885.544Z" transform="translate(-1024.857 -884.76)"/></g><g transform="translate(6.247 31.035)"><path class="b" d="M1063.931,825.722s-5.685-11.505-12.786-9C1043.055,819.572,1050.6,833.328,1063.931,825.722Z" transform="translate(-1047.419 -815.983)"/><path class="f" d="M1072.733,825.608c-9.7,1.843-14.26-3.977-13.911-8.323a6.273,6.273,0,0,1,1.2-.563C1066.68,814.374,1072.093,824.366,1072.733,825.608Z" transform="translate(-1056.28 -815.985)"/><path class="d" d="M1054.739,826.8a9.954,9.954,0,0,1-5.549-1.591,6.945,6.945,0,0,1-3.356-6.364,4.966,4.966,0,0,1,3.57-4.074c3.065-1.067,6.344.194,9.468,3.667a27.83,27.83,0,0,1,3.783,5.529l.155.33-.31.175A15.589,15.589,0,0,1,1054.739,826.8Zm-3.182-11.621a5.61,5.61,0,0,0-1.9.33,4.193,4.193,0,0,0-3.046,3.434,6.2,6.2,0,0,0,3.007,5.626c1.513,1.009,5.723,2.968,12.184-.563C1060.909,822.356,1056.738,815.178,1051.558,815.178Z" transform="translate(-1045.794 -814.402)"/></g><g transform="translate(9.316 19.053)"><path class="b" d="M1076.7,762.284s-4.6-9.293-10.341-7.275C1059.806,757.318,1065.918,768.435,1076.7,762.284Z" transform="translate(-1063.262 -754.319)"/><path class="f" d="M1083.795,762.121c-7.838,1.494-11.524-3.2-11.253-6.732a5.635,5.635,0,0,1,.97-.466C1078.906,753.041,1083.29,761.112,1083.795,762.121Z" transform="translate(-1070.411 -754.252)"/><path class="d" d="M1068.926,762.821a8.078,8.078,0,0,1-4.54-1.3,5.668,5.668,0,0,1-2.736-5.219,4.077,4.077,0,0,1,2.93-3.356c2.5-.873,5.18.155,7.741,2.988a21.642,21.642,0,0,1,3.065,4.482l.155.33-.31.175A12.467,12.467,0,0,1,1068.926,762.821Zm-2.561-9.39a4.758,4.758,0,0,0-1.513.252,3.327,3.327,0,0,0-2.425,2.716,4.9,4.9,0,0,0,2.406,4.462c1.222.815,4.559,2.367,9.7-.427C1073.756,759.038,1070.439,753.431,1066.365,753.431Z" transform="translate(-1061.614 -752.644)"/></g><g transform="translate(12.608 9.031)"><path class="b" d="M1090.493,708.846s-3.512-7.081-7.877-5.549C1077.61,705.044,1082.266,713.522,1090.493,708.846Z" transform="translate(-1080.167 -702.674)"/><path class="f" d="M1095.929,708.752c-5.976,1.145-8.789-2.445-8.575-5.122a3.708,3.708,0,0,1,.737-.349C1092.2,701.826,1095.541,708,1095.929,708.752Z" transform="translate(-1085.642 -702.657)"/><path class="d" d="M1084.251,708.943a6.228,6.228,0,0,1-3.512-1.009,4.469,4.469,0,0,1-2.134-4.074,3.212,3.212,0,0,1,2.289-2.639c1.94-.679,4.016.116,5.995,2.309a17.93,17.93,0,0,1,2.367,3.434l.155.33-.31.175A9.649,9.649,0,0,1,1084.251,708.943Zm-1.96-7.179a3.351,3.351,0,0,0-1.125.194,2.461,2.461,0,0,0-1.785,2,3.618,3.618,0,0,0,1.785,3.318c.912.6,3.4,1.746,7.217-.291C1087.724,705.8,1085.279,701.765,1082.291,701.765Z" transform="translate(-1078.582 -700.986)"/></g><path class="f" d="M1124.075,666.061s-3.977-4.986-1.669-8.459C1125.045,653.644,1129.682,660.008,1124.075,666.061Z" transform="translate(-1100.715 -655.999)"/><path class="b" d="M1121.8,678.8a12.011,12.011,0,0,0,2.367,5.335,9.469,9.469,0,0,0,2.58-5.025C1124.574,681.206,1122.886,680.177,1121.8,678.8Z" transform="translate(-1100.807 -674.073)"/><path class="d" d="M1122.474,665.1l-.272-.349a14.94,14.94,0,0,1-1.766-3.007c-.97-2.328-.951-4.365.058-5.9a2.613,2.613,0,0,1,2.425-1.4,2.978,2.978,0,0,1,2.27,2.134c.718,1.921.446,5.1-2.406,8.187Zm.213-9.895a2,2,0,0,0-1.552,1.067c-1.785,2.677.543,6.441,1.377,7.625,2.328-2.716,2.542-5.394,1.94-7.043a2.276,2.276,0,0,0-1.63-1.63A.329.329,0,0,0,1122.687,655.206Z" transform="translate(-1099.134 -654.437)"/><path class="d" d="M1064.115,1109.527a53.9,53.9,0,0,1-5.685-.31,57.16,57.16,0,0,1-11.33-2.348l.252-.737a55.583,55.583,0,0,0,11.175,2.309c5.917.621,14.532.582,22.059-3.24l.349.7A36.94,36.94,0,0,1,1064.115,1109.527Z" transform="translate(-1040.6 -1017.746)"/></g><g transform="translate(5.106 0)"><path class="g" d="M271.6,374.325c0,2.91,1.824,5.258,4.094,5.258h105.97c2.251,0,4.094-2.348,4.094-5.258V312.9H271.6Z" transform="translate(-271.193 -301.337)"/><path class="d" d="M379.952,378.358H273.982c-2.464,0-4.482-2.522-4.482-5.646V310.9H384.414v61.813C384.433,375.817,382.416,378.358,379.952,378.358ZM270.3,311.676v61.037c0,2.677,1.669,4.87,3.706,4.87h105.97c2.037,0,3.706-2.173,3.706-4.87V311.676Z" transform="translate(-269.5 -299.725)"/><g transform="translate(0.019)"><path class="f" d="M381.564,255.3H275.594a4.094,4.094,0,0,0-4.094,4.094v7.081H385.638v-7.081A4.053,4.053,0,0,0,381.564,255.3Z" transform="translate(-271.131 -254.912)"/><path class="d" d="M384.514,265.251H269.6v-7.469a4.5,4.5,0,0,1,4.482-4.482h105.97a4.484,4.484,0,0,1,4.482,4.482l-.019,7.469Zm-114.138-.776H383.738v-6.693a3.718,3.718,0,0,0-3.706-3.706H274.062a3.718,3.718,0,0,0-3.706,3.706l.019,6.693Z" transform="translate(-269.6 -253.3)"/></g><ellipse class="d" cx="1.436" cy="1.436" rx="1.436" ry="1.436" transform="translate(4.016 5.432)"/><ellipse class="d" cx="1.436" cy="1.436" rx="1.436" ry="1.436" transform="translate(8.808 5.432)"/><ellipse class="d" cx="1.436" cy="1.436" rx="1.436" ry="1.436" transform="translate(13.62 5.432)"/><path class="h" d="M406.763,442.022H326.247a7.543,7.543,0,0,1-7.547-7.547v-2.328a7.543,7.543,0,0,1,7.547-7.547h80.535a7.543,7.543,0,0,1,7.547,7.547v2.328A7.572,7.572,0,0,1,406.763,442.022Z" transform="translate(-309.155 -391.366)"/><rect class="d" width="6.965" height="0.776" transform="translate(102.284 5.646)"/><g transform="translate(20.895 38.473)"><path class="d" d="M379.237,454.849l-1.979-2.91h.8a.287.287,0,0,1,.136.019c.019.019.058.039.078.078l1.552,2.386a.6.6,0,0,1,.1-.194l1.474-2.192a.423.423,0,0,1,.078-.1.148.148,0,0,1,.1-.039h.776l-1.979,2.871,2.057,3.1h-.8a.226.226,0,0,1-.136-.039c-.019-.019-.058-.078-.078-.1l-1.61-2.5a.688.688,0,0,1-.078.175l-1.552,2.348a.424.424,0,0,1-.078.1.164.164,0,0,1-.136.039H377.2Z" transform="translate(-377.2 -451.842)"/><path class="d" d="M410.957,451.8a2.226,2.226,0,0,1,.718.116,1.794,1.794,0,0,1,.563.33,1.539,1.539,0,0,1,.388.524,1.663,1.663,0,0,1,.136.7,2.187,2.187,0,0,1-.1.621,2.035,2.035,0,0,1-.272.543,4.965,4.965,0,0,1-.388.5c-.155.155-.31.33-.466.5l-1.572,1.61a2.029,2.029,0,0,1,.33-.078,1.885,1.885,0,0,1,.33-.019h1.979a.225.225,0,0,1,.194.078.3.3,0,0,1,.078.194v.446H408.9v-.252a.233.233,0,0,1,.039-.155.682.682,0,0,1,.1-.155l1.921-1.921a4.652,4.652,0,0,0,.427-.466,3.291,3.291,0,0,0,.33-.446,1.662,1.662,0,0,0,.213-.466,1.34,1.34,0,0,0,.078-.485,1.174,1.174,0,0,0-.078-.466.9.9,0,0,0-.582-.524,1.513,1.513,0,0,0-.427-.058,1.29,1.29,0,0,0-.407.058,1.052,1.052,0,0,0-.349.194,1.182,1.182,0,0,0-.252.291.85.85,0,0,0-.136.369.375.375,0,0,1-.1.175.237.237,0,0,1-.175.058h-.1l-.388-.058a2.084,2.084,0,0,1,.233-.718,1.633,1.633,0,0,1,.427-.524,2.151,2.151,0,0,1,.582-.33A1.125,1.125,0,0,1,410.957,451.8Z" transform="translate(-402.75 -451.761)"/><path class="d" d="M438.568,455.228a1.709,1.709,0,0,1-.64-.116,1.605,1.605,0,0,1-.524-.33,1.711,1.711,0,0,1-.5-1.28,1.575,1.575,0,0,1,.155-.737,2.191,2.191,0,0,1,.407-.6,1.917,1.917,0,0,1,.621-.407,2.076,2.076,0,0,1,.8-.155,1.976,1.976,0,0,1,.776.136,2.136,2.136,0,0,1,.6.388,1.783,1.783,0,0,1,.388.6,2.042,2.042,0,0,1,.136.776,3.778,3.778,0,0,1-.039.485,1.7,1.7,0,0,1-.136.446,4.668,4.668,0,0,1-.213.446,2.915,2.915,0,0,1-.291.446l-1.455,2.1a.524.524,0,0,1-.155.136.42.42,0,0,1-.233.039h-.679l1.824-2.386.175-.233a2.035,2.035,0,0,1,.155-.213,1.682,1.682,0,0,1-.524.272A1.066,1.066,0,0,1,438.568,455.228Zm1.494-1.746a1.067,1.067,0,0,0-.1-.5,1.34,1.34,0,0,0-.252-.388,1.121,1.121,0,0,0-.388-.252,1.339,1.339,0,0,0-.485-.078,1.067,1.067,0,0,0-.5.1,1.115,1.115,0,0,0-.64.64,1.351,1.351,0,0,0-.1.485,1.314,1.314,0,0,0,.078.5,1.292,1.292,0,0,0,.233.388,1.193,1.193,0,0,0,.369.233,1.34,1.34,0,0,0,.485.078,1.4,1.4,0,0,0,.524-.1,1.121,1.121,0,0,0,.388-.252.919.919,0,0,0,.233-.369A2.346,2.346,0,0,0,440.062,453.482Z" transform="translate(-425.317 -451.6)"/><path class="d" d="M463.237,454.849l-1.979-2.91h.8a.288.288,0,0,1,.136.019c.019.019.058.039.078.078l1.552,2.386a.6.6,0,0,1,.1-.194l1.474-2.192a.424.424,0,0,1,.078-.1.148.148,0,0,1,.1-.039h.776l-1.979,2.871,2.057,3.1h-.8a.226.226,0,0,1-.136-.039c-.019-.019-.058-.078-.078-.1l-1.61-2.5a.688.688,0,0,1-.078.175l-1.552,2.348a.424.424,0,0,1-.078.1.164.164,0,0,1-.136.039H461.2Z" transform="translate(-444.903 -451.842)"/><path class="d" d="M491.4,468.4h2.057v.621H491.4Z" transform="translate(-469.244 -465.141)"/><path class="d" d="M510.737,451.8a2.226,2.226,0,0,1,.718.116,1.794,1.794,0,0,1,.563.33,1.539,1.539,0,0,1,.388.524,1.662,1.662,0,0,1,.136.7,2.186,2.186,0,0,1-.1.621,2.035,2.035,0,0,1-.272.543,4.965,4.965,0,0,1-.388.5c-.155.155-.31.33-.466.5l-1.572,1.61a2.644,2.644,0,0,1,.33-.078,2,2,0,0,1,.33-.019h2a.225.225,0,0,1,.194.078.3.3,0,0,1,.078.194v.446H508.7v-.252a.233.233,0,0,1,.039-.155.681.681,0,0,1,.1-.155l1.921-1.921a4.652,4.652,0,0,0,.427-.466,3.289,3.289,0,0,0,.33-.446,2.483,2.483,0,0,0,.213-.466,1.34,1.34,0,0,0,.078-.485,1.173,1.173,0,0,0-.078-.466.9.9,0,0,0-.582-.524,1.594,1.594,0,0,0-.854,0,.893.893,0,0,0-.349.194,1.183,1.183,0,0,0-.252.291.85.85,0,0,0-.136.369.375.375,0,0,1-.1.175.237.237,0,0,1-.175.058h-.1l-.388-.058a2.083,2.083,0,0,1,.233-.718,1.633,1.633,0,0,1,.427-.524,2.151,2.151,0,0,1,.582-.33A1.125,1.125,0,0,1,510.737,451.8Z" transform="translate(-483.187 -451.761)"/><path class="d" d="M538.268,455.228a1.709,1.709,0,0,1-.64-.116,1.605,1.605,0,0,1-.524-.33,1.909,1.909,0,0,1-.369-.543,1.786,1.786,0,0,1-.136-.737,1.575,1.575,0,0,1,.155-.737,2.191,2.191,0,0,1,.407-.6,1.917,1.917,0,0,1,.621-.407,2.076,2.076,0,0,1,.8-.155,1.976,1.976,0,0,1,.776.136,2.137,2.137,0,0,1,.6.388,1.611,1.611,0,0,1,.388.6,2.042,2.042,0,0,1,.136.776,3.778,3.778,0,0,1-.039.485,1.7,1.7,0,0,1-.136.446,4.66,4.66,0,0,1-.213.446,2.913,2.913,0,0,1-.291.446l-1.455,2.1a.523.523,0,0,1-.155.136.42.42,0,0,1-.233.039h-.7l1.824-2.386.175-.233a2.023,2.023,0,0,1,.155-.213,1.682,1.682,0,0,1-.524.272A.977.977,0,0,1,538.268,455.228Zm1.494-1.746a1.373,1.373,0,0,0-.1-.5,1.034,1.034,0,0,0-.252-.388,1.121,1.121,0,0,0-.388-.252,1.34,1.34,0,0,0-.485-.078,1.067,1.067,0,0,0-.5.1,1.116,1.116,0,0,0-.64.64,1.352,1.352,0,0,0-.1.485,1.314,1.314,0,0,0,.078.5,1.291,1.291,0,0,0,.233.388.918.918,0,0,0,.369.233,1.339,1.339,0,0,0,.485.078,1.4,1.4,0,0,0,.524-.1,1.121,1.121,0,0,0,.388-.252,1.074,1.074,0,0,0,.233-.369A2.344,2.344,0,0,0,539.762,453.482Z" transform="translate(-505.674 -451.6)"/><path class="d" d="M563.018,454.849l-1.979-2.91h.815a.288.288,0,0,1,.136.019c.019.019.058.039.078.078l1.552,2.386a.6.6,0,0,1,.1-.194l1.474-2.192a.421.421,0,0,1,.078-.1c.039-.019.058-.039.1-.039h.776l-1.979,2.871,2.057,3.1h-.8a.226.226,0,0,1-.136-.039c-.019-.019-.058-.078-.078-.1l-1.61-2.5a.69.69,0,0,1-.078.175l-1.552,2.348a.424.424,0,0,1-.078.1.164.164,0,0,1-.136.039H561Z" transform="translate(-525.34 -451.842)"/><path class="d" d="M592.737,454.849l-1.979-2.91h.815a.288.288,0,0,1,.136.019c.019.019.058.039.078.078l1.552,2.386a.6.6,0,0,1,.1-.194l1.474-2.192a.423.423,0,0,1,.078-.1c.039-.019.058-.039.1-.039h.776l-2,2.91,2.057,3.1h-.8a.226.226,0,0,1-.136-.039c-.019-.019-.058-.078-.078-.1l-1.61-2.5a.69.69,0,0,1-.078.175L591.67,457.8a.424.424,0,0,1-.078.1.164.164,0,0,1-.136.039H590.7Z" transform="translate(-549.278 -451.842)"/><path class="d" d="M620.9,468.4h2.057v.621H620.9Z" transform="translate(-573.619 -465.141)"/><path class="d" d="M637.018,454.849l-1.979-2.91h.815a.287.287,0,0,1,.136.019c.019.019.058.039.078.078l1.552,2.386a.6.6,0,0,1,.1-.194l1.474-2.192a.423.423,0,0,1,.078-.1c.039-.019.058-.039.1-.039h.776l-1.979,2.871,2.057,3.1h-.8a.226.226,0,0,1-.136-.039c-.019-.019-.058-.078-.078-.1l-1.61-2.5a.688.688,0,0,1-.078.175l-1.552,2.348a.422.422,0,0,1-.078.1.164.164,0,0,1-.136.039H635Z" transform="translate(-584.983 -451.842)"/><path class="d" d="M666.737,454.849l-1.979-2.91h.815a.287.287,0,0,1,.136.019c.019.019.058.039.078.078l1.552,2.386a.6.6,0,0,1,.1-.194l1.474-2.192a.423.423,0,0,1,.078-.1c.039-.019.058-.039.1-.039h.776l-2,2.91,2.057,3.1h-.8a.226.226,0,0,1-.136-.039c-.019-.019-.058-.078-.078-.1l-1.61-2.5a.689.689,0,0,1-.078.175L665.67,457.8a.422.422,0,0,1-.078.1.164.164,0,0,1-.136.039H664.7Z" transform="translate(-608.921 -451.842)"/><path class="d" d="M698.537,451.8a2.227,2.227,0,0,1,.718.116,1.794,1.794,0,0,1,.563.33,1.54,1.54,0,0,1,.388.524,1.663,1.663,0,0,1,.136.7,2.186,2.186,0,0,1-.1.621,2.033,2.033,0,0,1-.272.543,4.965,4.965,0,0,1-.388.5c-.155.155-.31.33-.466.5l-1.572,1.61a2.648,2.648,0,0,1,.33-.078,2,2,0,0,1,.33-.019h2a.225.225,0,0,1,.194.078.3.3,0,0,1,.078.194v.446H696.5v-.252a.233.233,0,0,1,.039-.155c.039-.058.058-.1.1-.155l1.921-1.921a4.649,4.649,0,0,0,.427-.466,3.289,3.289,0,0,0,.33-.446,2.483,2.483,0,0,0,.213-.466,1.339,1.339,0,0,0,.078-.485,1.173,1.173,0,0,0-.078-.466.9.9,0,0,0-.582-.524,1.594,1.594,0,0,0-.854,0,.893.893,0,0,0-.349.194,1.182,1.182,0,0,0-.252.291.851.851,0,0,0-.136.369.375.375,0,0,1-.1.175.237.237,0,0,1-.175.058h-.1l-.388-.058a2.083,2.083,0,0,1,.233-.718,1.634,1.634,0,0,1,.427-.524,2.151,2.151,0,0,1,.582-.33A1.125,1.125,0,0,1,698.537,451.8Z" transform="translate(-634.552 -451.761)"/><path class="d" d="M726.068,455.228a1.709,1.709,0,0,1-.64-.116,1.605,1.605,0,0,1-.524-.33,1.909,1.909,0,0,1-.369-.543,1.786,1.786,0,0,1-.136-.737,1.575,1.575,0,0,1,.155-.737,2.19,2.19,0,0,1,.407-.6,1.917,1.917,0,0,1,.621-.407,2.076,2.076,0,0,1,.8-.155,1.976,1.976,0,0,1,.776.136,2.135,2.135,0,0,1,.6.388,1.612,1.612,0,0,1,.388.6,2.042,2.042,0,0,1,.136.776,3.778,3.778,0,0,1-.039.485,1.7,1.7,0,0,1-.136.446,4.674,4.674,0,0,1-.213.446,2.918,2.918,0,0,1-.291.446l-1.455,2.1a.522.522,0,0,1-.155.136.42.42,0,0,1-.233.039h-.679l1.824-2.386.175-.233a2.031,2.031,0,0,1,.155-.213,1.683,1.683,0,0,1-.524.272A1.066,1.066,0,0,1,726.068,455.228Zm1.494-1.746a1.375,1.375,0,0,0-.1-.5,1.033,1.033,0,0,0-.252-.388,1.12,1.12,0,0,0-.388-.252,1.34,1.34,0,0,0-.485-.078,1.067,1.067,0,0,0-.5.1,1.115,1.115,0,0,0-.64.64,1.35,1.35,0,0,0-.1.485,1.314,1.314,0,0,0,.078.5,1.293,1.293,0,0,0,.233.388.919.919,0,0,0,.369.233,1.34,1.34,0,0,0,.485.078,1.4,1.4,0,0,0,.524-.1,1.121,1.121,0,0,0,.388-.252,1.075,1.075,0,0,0,.233-.369A2.344,2.344,0,0,0,727.562,453.482Z" transform="translate(-657.039 -451.6)"/></g></g><g transform="translate(87.808 6.913)"><path class="i" d="M819.82,672.182c1.746-16.1-1.358-91.768-24.252-76.247,0,0-11.059,19.6-5.82,53.548,4.074,26.444,19.692,41.344,28.132,48.309L822.866,689A27.906,27.906,0,0,1,819.82,672.182Z" transform="translate(-770.379 -534.691)"/><path class="j" d="M830.374,613.369a15.716,15.716,0,0,0,.873-3.182c-1.707-5.277-3.8-9.565-6.364-12.2a21.651,21.651,0,0,0-8.168-2.483,12.857,12.857,0,0,0-3.609,1.766,43.474,43.474,0,0,0-3.007,7.353c1.766,2.251,4.171,8.187,3.007,23.689-1.688,22.6,22.156,57.952,20.837,69.554.524.446,1.009.854,1.474,1.242l4.986-8.789a28.1,28.1,0,0,1-3.046-16.8,169.63,169.63,0,0,0,.058-22.991C831.927,636.417,827.134,621.866,830.374,613.369Z" transform="translate(-787.918 -536.022)"/><path class="k" d="M816.382,696.731l-.349-.291a82.59,82.59,0,0,1-15.773-16.918A75.223,75.223,0,0,1,787.765,647.9c-2.716-17.6-.99-31.275.951-39.656a58.445,58.445,0,0,1,4.909-14.144l.039-.078.078-.058c3.667-2.483,7.043-2.813,10.069-1.009,7.78,4.676,11.544,22.719,13.329,37.037,1.183,9.545,1.63,18.3,1.785,23.961a139.408,139.408,0,0,1-.33,16.608,27.463,27.463,0,0,0,3.007,16.588l.1.194ZM794.265,594.544a58.892,58.892,0,0,0-4.792,13.891c-1.9,8.3-3.628,21.865-.931,39.326A74.531,74.531,0,0,0,800.9,679.056a82,82,0,0,0,15.269,16.472l4.656-8.207a28.735,28.735,0,0,1-2.988-16.84l.388.039-.388-.039c.8-7.392.466-24.95-1.455-40.394a127.883,127.883,0,0,0-4.676-22.913c-2.309-7.062-5.083-11.621-8.265-13.542C800.706,591.983,797.621,592.293,794.265,594.544Z" transform="translate(-768.784 -533.048)"/><path class="i" d="M877.871,654.453c7.372-34.146,6.6-54.712,6.6-54.712s-19.4-14.357-26.58,2.328c-7.179,26.347.058,76.092,3.589,97.957a34.249,34.249,0,0,0,9.468,1.455C870.965,689.783,872.342,679.985,877.871,654.453Z" transform="translate(-823.968 -534.811)"/><path class="j" d="M869.692,606.429a17.711,17.711,0,0,0-1.61,2.968c-.194.757-.388,1.513-.582,2.309,3.162,2.677,8.847,4.094,14.551,4.87,8.537,1.164-7.567,25.8-5.626,69.457.776,17.286-3.919,18.489-4.967,20.042.078.427.136.854.194,1.281a34.249,34.249,0,0,0,9.468,1.455c.019-11.68,1.416-21.477,6.926-47.029,7.372-34.146,6.6-54.712,6.6-54.712a36.736,36.736,0,0,0-6.111-3.492A29.1,29.1,0,0,0,869.692,606.429Z" transform="translate(-834.182 -542.14)"/><path class="k" d="M869.671,700.167h-.388a33.741,33.741,0,0,1-9.584-1.474l-.233-.078-.039-.233c-2.891-17.907-4.792-33.39-5.8-47.339-1.63-22.273-.873-39.346,2.231-50.793l.019-.058c1.824-4.249,4.6-6.887,8.246-7.877,4.424-1.2,9.351.349,12.688,1.843a37.034,37.034,0,0,1,6.247,3.55l.155.116v.194a140.076,140.076,0,0,1-.543,14.59,301.763,301.763,0,0,1-6.073,40.219c-5.413,25.047-6.887,35.136-6.926,46.951Zm-9.507-2.154a33.173,33.173,0,0,0,8.731,1.358c.058-11.7,1.571-21.885,6.946-46.718l.388.078-.388-.078a303,303,0,0,0,6.053-40.083c.64-8.3.563-13.329.543-14.338-1.3-.912-10.574-7.178-18.121-5.161-3.4.912-5.995,3.415-7.722,7.411-3.085,11.35-3.822,28.326-2.192,50.5C855.411,664.838,857.293,680.223,860.164,698.014Z" transform="translate(-822.325 -533.109)"/><path class="l" d="M710.37,391.257c-2.852-13.193-1.94-20.371-6.208-19.789-2.134-2.716-4.268-4.85-4.656-4.268s1.358,3.492,1.358,3.492-3.88,2.134-2.91,3.88,2.328-.388,3.3,1.94-3.492,26.968,9.313,33.564a12.214,12.214,0,0,0,11.117.524,43.429,43.429,0,0,0-6.616-13.465C713.3,399.289,711.767,397.737,710.37,391.257Z" transform="translate(-697.404 -351.937)"/><path class="m" d="M730.527,467.4c3.686,8.537-14.939,2.716-14.9-19.3-.213,8.4.058,22.506,9.274,27.259a12.214,12.214,0,0,0,11.117.524,43.835,43.835,0,0,0-6.305-13.038C729.325,463.563,729.422,464.863,730.527,467.4Z" transform="translate(-711.741 -417.219)"/><path class="k" d="M715.117,410.38a13.559,13.559,0,0,1-6.364-1.669c-10.205-5.238-9.7-21.652-9.448-29.548a21.464,21.464,0,0,0-.058-4.21c-.407-.989-.8-.97-1.4-.951a1.751,1.751,0,0,1-1.882-.951,1.707,1.707,0,0,1-.136-1.281c.369-1.28,2.1-2.464,2.852-2.93-.8-1.358-1.552-2.968-1.145-3.57a.627.627,0,0,1,.485-.272h.019c1.067,0,3.492,2.91,4.637,4.346,3.1-.272,3.647,3.279,4.579,9.584.427,2.871.951,6.422,1.843,10.535h0c1.106,5.064,2.1,6.305,2.755,6.461q.553.146,1.281-.757l.31-.388.291.388a43.993,43.993,0,0,1,6.674,13.581l.1.33-.31.136A11.642,11.642,0,0,1,715.117,410.38Zm-17-37.154c.6,0,1.319.155,1.843,1.436.233.563.213,1.863.116,4.521-.252,7.722-.757,23.805,9,28.85a11.871,11.871,0,0,0,10.477.64,43.382,43.382,0,0,0-6.17-12.63,1.849,1.849,0,0,1-1.727.64c-1.319-.33-2.348-2.5-3.337-7.062-.892-4.132-1.436-7.722-1.843-10.593-.97-6.577-1.474-9.235-3.919-8.905l-.213.019-.136-.175c-2.037-2.6-3.492-3.919-4.016-4.171a11,11,0,0,0,1.358,2.949l.213.349-.349.194c-.679.369-2.522,1.591-2.813,2.658a.869.869,0,0,0,.058.7c.33.6.64.582,1.164.563A1.376,1.376,0,0,0,698.121,373.226Zm.078-7.547Z" transform="translate(-695.768 -350.242)"/><path class="n" d="M802.945,423.12l3.492-28.52s-10.671.194-14.745,13.193c-1.8,5.762-3.376,9.8-4.792,11.5a43.875,43.875,0,0,1,6.616,13.465C799.53,430.027,802.945,423.12,802.945,423.12Z" transform="translate(-769.219 -374.099)"/><path class="o" d="M793.508,465.351c4.307-.64,8.11-5.685,10.108-11.544l1.319-10.748a11.45,11.45,0,0,0-2.639-6.364s-6.461-3.376-8.478,8.692c-1.96,11.815-4.055,7.586-6.519,7.586A44.119,44.119,0,0,1,793.508,465.351Z" transform="translate(-769.542 -407.677)"/><path class="k" d="M791.068,431.674l-.136-.427a43.059,43.059,0,0,0-6.538-13.329l-.194-.252.194-.233c1.261-1.533,2.774-5.141,4.714-11.369,2.134-6.849,6.131-10.127,9.08-11.7A14.41,14.41,0,0,1,804.2,392.6h.446l-3.55,29.024-.039.058c-.136.291-3.55,7.062-9.623,9.817Zm-5.859-13.988a44.393,44.393,0,0,1,6.364,12.9c5.3-2.619,8.5-8.575,8.828-9.216l3.434-27.977a14.74,14.74,0,0,0-5.258,1.669c-2.813,1.494-6.616,4.656-8.672,11.233C787.983,412.312,786.489,415.959,785.209,417.686Zm15.56,3.822Z" transform="translate(-767.043 -372.487)"/><g transform="translate(12.928 28.067)"><path class="p" d="M777.823,448.211h-6.6L765.6,435.6h5.626a1.5,1.5,0,0,1,1.358.873Z" transform="translate(-764.979 -435.212)"/><path class="k" d="M775.826,446.987h-7.45L762.4,433.6h6.228a1.87,1.87,0,0,1,1.707,1.106Zm-6.926-.776h5.743l-4.986-11.195a1.094,1.094,0,0,0-1.009-.64H763.6Z" transform="translate(-762.4 -433.6)"/></g><g transform="translate(11.713 28.048)"><path class="q" d="M768.408,448.211h-4.6a.915.915,0,0,1-.834-.543l-4.812-10.787A.91.91,0,0,1,759,435.6h4.6a.915.915,0,0,1,.834.543l4.812,10.787A.915.915,0,0,1,768.408,448.211Z" transform="translate(-757.706 -435.193)"/><path class="k" d="M766.842,446.906h-4.6a1.3,1.3,0,0,1-1.184-.776l-4.812-10.787a1.34,1.34,0,0,1,.1-1.242,1.287,1.287,0,0,1,1.086-.6h4.6a1.319,1.319,0,0,1,1.183.776l4.812,10.787a1.34,1.34,0,0,1-.1,1.242A1.287,1.287,0,0,1,766.842,446.906Zm-9.41-12.611a.569.569,0,0,0-.446.233.514.514,0,0,0-.039.5l4.812,10.787a.511.511,0,0,0,.485.31h4.6a.569.569,0,0,0,.446-.233.519.519,0,0,0,.039-.5l-4.812-10.787a.512.512,0,0,0-.485-.31Z" transform="translate(-756.141 -433.5)"/></g><path class="n" d="M820.08,390.023s2.852-2.367,13.464,4.035c7.062,6.577,6.732,35.5,9.06,39s-2.134,10.865-27.938,6.984c-17.461-3.88-13.193-10.671-9.119-15.909s-.194-19.4,4.85-25.222" transform="translate(-781.329 -370.066)"/><path class="o" d="M826.494,468.351c2.91,6.4-3.1,25.028-15.715,26.58-6.616.815-8.323-1.96-8.672-4.715-.931,3.725,1.28,7.45,12.553,9.953,25.8,3.88,30.266-3.492,27.938-6.984-1.145-1.727-1.649-9.623-2.716-17.985-4.986-5.956-9.313-10.341-9.313-10.341S823.584,461.948,826.494,468.351Z" transform="translate(-781.322 -430.195)"/><path class="k" d="M826.1,440.016A91.278,91.278,0,0,1,813,438.91h-.019c-7.45-1.649-11.621-3.977-12.747-7.081-1.145-3.2,1.145-6.558,3.4-9.448,1.843-2.367,1.9-6.752,1.979-11.369.078-5.258.136-10.69,2.891-13.872a.385.385,0,0,1,.582.5c-2.561,2.949-2.639,8.246-2.7,13.368-.058,4.753-.116,9.254-2.134,11.835-2.115,2.736-4.307,5.879-3.279,8.711,1.009,2.794,5.1,5.006,12.165,6.577,8.265,1.242,14.958,1.436,19.925.563,3.783-.66,6.48-1.979,7.567-3.725a2.871,2.871,0,0,0,.058-3.221c-.873-1.319-1.378-5.782-2-11.447-1.086-9.836-2.561-23.282-6.984-27.453-10.089-6.073-12.96-4.074-12.979-4.035a.394.394,0,0,1-.543-.058.379.379,0,0,1,.058-.543c.136-.1,3.182-2.464,13.911,4l.058.039c4.656,4.327,6.15,17.985,7.256,27.957.582,5.335,1.086,9.933,1.863,11.1a3.665,3.665,0,0,1-.039,4.074C840.259,436.99,836.883,440.016,826.1,440.016Z" transform="translate(-779.721 -368.548)"/><path class="n" d="M916.928,404.539c3.182,3.3,4.074,11.874,2.5,16.064,2.833,2.1,6.713,6.655,5.452,15.56,6.907-2.619,12.979-10.069,10.477-23.476C931.576,392.3,914.6,389.6,914.6,389.6" transform="translate(-872.144 -370.069)"/><path class="o" d="M914.6,389.6l.078.5c1.125,1.261,4.055,3.3,9.041,7.062,10.283,7.761,8.149,28.714,2.716,25.222-3.182-2.057-5.568-2.1-7-1.785h0c2.833,2.1,6.713,6.655,5.452,15.56,6.907-2.619,12.979-10.069,10.477-23.476C931.557,392.3,914.6,389.6,914.6,389.6Z" transform="translate(-872.144 -370.069)"/><path class="k" d="M922.617,434.884l.1-.66c1.2-8.44-2.212-12.9-5.3-15.191l-.233-.175.1-.272c1.824-4.889.175-12.979-2.425-15.676a.384.384,0,1,1,.543-.543c3.162,3.3,4.171,11.777,2.677,16.2a13.587,13.587,0,0,1,4.152,5.2,18.149,18.149,0,0,1,1.3,9.875,16,16,0,0,0,7.955-7.275c2.251-4.21,2.813-9.429,1.669-15.521-1.94-10.38-7.372-16.026-11.6-18.916a24.839,24.839,0,0,0-8.828-3.861.392.392,0,1,1,.116-.776,24.3,24.3,0,0,1,9.119,3.958c4.365,2.988,9.992,8.769,11.971,19.44,1.164,6.286.582,11.68-1.746,16.025a16.808,16.808,0,0,1-8.963,7.877Z" transform="translate(-870.363 -368.208)"/><path class="l" d="M808.887,477.415c-1.009,2.736-3.065,3.628-6.189.039-7.935-9.1-18.043-19.789-18.625-16.879s-6.208-.582-6.6,1.358,3.1,3.88,6.208,4.656,10.477,20.759,18.431,25.8c3.085,1.96,7.819,2.251,12.223.582C815.6,484.07,811.72,479.51,808.887,477.415Z" transform="translate(-761.6 -426.881)"/><path class="m" d="M838.472,505.072c-.31.97-.116,2.677,1.513,5.7,3.686,6.79-5.238,8.343-10.865,2.134s-12.785-19.266-15.133-18.936c-.175.019-.291.175-.388.427,3.453,3.259,10.3,20.643,17.636,25.3,3.085,1.96,7.819,2.251,12.223.582C844.681,511.824,841.247,507.284,838.472,505.072Z" transform="translate(-790.739 -454.189)"/><path class="k" d="M806.851,492.762a12.288,12.288,0,0,1-6.6-1.727c-4.714-2.988-9.138-10.962-12.688-17.384-2.309-4.171-4.5-8.09-5.626-8.381a14.916,14.916,0,0,1-4.54-1.94c-1.494-1.009-2.173-2.115-1.96-3.162.252-1.242,1.746-.97,3.221-.7,1.9.349,3.143.485,3.376-.66a.891.891,0,0,1,.66-.757c.737-.194,2.251.252,7.547,5.471,3.783,3.744,8.129,8.595,11.1,11.99,1.416,1.63,2.677,2.386,3.667,2.212.97-.175,1.552-1.242,1.882-2.115l.175-.485.407.31a13.9,13.9,0,0,1,4.385,5.374,18.472,18.472,0,0,1,1.2,10.535l-.039.233-.213.078A16.928,16.928,0,0,1,806.851,492.762Zm-29.975-32.73c-.388,0-.621.078-.679.31-.31,1.552,2.813,3.434,5.917,4.21,1.4.349,3.143,3.4,6.111,8.75,3.512,6.344,7.9,14.221,12.417,17.093,2.968,1.882,7.528,2.134,11.66.621,1.067-7.935-1.979-12.32-4.928-14.648a3.343,3.343,0,0,1-2.27,2.134c-1.281.233-2.755-.6-4.385-2.464-2.968-3.4-7.275-8.226-11.059-11.951-5.238-5.18-6.519-5.335-6.79-5.277-.019,0-.078.019-.1.175-.388,1.979-2.639,1.572-4.288,1.261A8.363,8.363,0,0,0,776.876,460.032Z" transform="translate(-759.952 -425.213)"/><path class="l" d="M884.017,353.4s-.543,14.764-7.916,15.346c-3.492-.194,1.164-8.343,0-9.895S881.262,350.471,884.017,353.4Z" transform="translate(-840.047 -340.311)"/><path class="m" d="M879.8,378.1s-1.94-3.1-3.686.194c.854,1.125-1.4,5.782-1.319,8.284.058.175.136.252.213.252.64,0,.136-2.716,3.046-4.656S879.8,378.1,879.8,378.1Z" transform="translate(-840.057 -359.733)"/><path class="k" d="M874.441,367.563h-.019a1.66,1.66,0,0,1-1.319-.66c-.815-1.125-.175-3.4.446-5.607.407-1.474.931-3.318.582-3.783-.8-1.067.757-3.434,2.658-5.044,2.348-1.979,4.54-2.309,5.859-.912l.116.116v.155a37.361,37.361,0,0,1-1.2,7.547c-1.436,5.1-3.88,7.916-7.062,8.168Zm6.208-16.084a6.052,6.052,0,0,0-3.356,1.591c-1.94,1.63-2.871,3.531-2.542,3.977.582.776.136,2.406-.446,4.462-.524,1.843-1.145,4.132-.563,4.947a.813.813,0,0,0,.7.33c6.5-.543,7.431-13.193,7.528-14.8A1.856,1.856,0,0,0,880.65,351.48Z" transform="translate(-838.387 -338.72)"/><g transform="translate(24.789 0.304)"><path class="r" d="M836.976,292.6s-8.343.97-8.149,9.507c-.388,2.716-2.134-.582-3.1.388s1.358,6.014,7.955,5.238S839.3,292.6,836.976,292.6Z" transform="translate(-825.129 -292.193)"/><path class="k" d="M830.746,306.506c-3.706,0-6-1.9-6.849-3.686-.466-.97-.485-1.863-.039-2.309.621-.621,1.4-.136,1.979.233.233.155.64.407.757.369,0,0,.155-.078.252-.737-.175-8.75,8.4-9.856,8.5-9.875h.039c1.339,0,1.979,2.716,2.115,5.044a17.223,17.223,0,0,1-.912,6.81c-.931,2.425-2.464,3.822-4.462,4.055A11.492,11.492,0,0,1,830.746,306.506ZM824.557,301a.237.237,0,0,0-.175.078c-.136.136-.175.679.194,1.416.854,1.766,3.318,3.647,7.45,3.162,3.589-.427,4.947-5.51,4.676-10.05-.155-2.736-.873-4.268-1.319-4.307-.6.078-7.954,1.183-7.78,9.119v.078a1.631,1.631,0,0,1-.718,1.358c-.5.233-1.009-.1-1.513-.407A1.7,1.7,0,0,0,824.557,301Z" transform="translate(-823.536 -290.5)"/></g><path class="l" d="M854.061,316.411s.776,1.358-.776,5.238,0,9.119,6.4,7.955a10.171,10.171,0,0,0,2.173-.66,8.23,8.23,0,0,0,2.057-1.358,7.412,7.412,0,0,0,1.4-9.022C863.18,315.053,856.971,311.949,854.061,316.411Z" transform="translate(-822.275 -309.297)"/><path class="m" d="M871.626,324.292c-2.154-2.386-7.761-5.335-10.768-6.092a5.283,5.283,0,0,0-1.358,1.416s.427.757,0,2.774a13.693,13.693,0,0,0,4.462,2.852c2.328.582,1.164,4.656,2.522,4.268s2.037-3.259,2.716-2.716c.66.524-.466,3.492.873,4.035l.058-.058C872.014,329.045,871.936,326.523,871.626,324.292Z" transform="translate(-827.734 -312.522)"/><path class="k" d="M856.22,328.45a5.339,5.339,0,0,1-4.385-1.863,6.872,6.872,0,0,1-.66-6.79c1.436-3.609.815-4.889.8-4.909l-.116-.213.136-.194a4.944,4.944,0,0,1,4.424-2.386c3.085.039,6.17,2.367,7.489,4.54a.4.4,0,0,1-.679.407,9.2,9.2,0,0,0-6.829-4.171,4.174,4.174,0,0,0-3.647,1.863c.194.563.427,2.134-.854,5.335a6.08,6.08,0,0,0,.543,6.014c1.125,1.378,3.007,1.863,5.432,1.416a8.924,8.924,0,0,0,2.076-.64.4.4,0,0,1,.524.194.369.369,0,0,1-.194.5,10.49,10.49,0,0,1-2.251.7A8.952,8.952,0,0,1,856.22,328.45Z" transform="translate(-820.554 -307.6)"/><path class="k" d="M942.811,301.1a6.614,6.614,0,0,1,8.149-1.164c5.044,2.522,3.686,10.477,3.686,10.477a4.329,4.329,0,0,1,4.074,3.686c.776,3.686-3.492,8.731-9.7,5.82s1.552-16.3-5.432-16.879C940.871,302.65,942.811,301.1,942.811,301.1Z" transform="translate(-894.34 -297.089)"/><path class="s" d="M967.151,330.682a5,5,0,0,0-1.028-2.212h0s1.222,5.7-5.18,5.7S958.808,318.44,952.6,319.7h0c5.956,1.28-1.164,13.969,4.85,16.8C963.659,339.413,967.927,334.369,967.151,330.682Z" transform="translate(-902.771 -313.674)"/><path class="k" d="M950.934,319.586a9.032,9.032,0,0,1-3.783-.892c-3.279-1.533-2.949-5.743-2.677-9.448.349-4.443.33-7.159-2.639-7.392h-.019c-1.028-.155-1.591-.485-1.746-1.009-.194-.737.563-1.436.757-1.591a6.756,6.756,0,0,1,2.309-1.61,7.266,7.266,0,0,1,6.286.369c2.192,1.086,3.55,3.337,3.938,6.48a16.576,16.576,0,0,1,0,4,4.736,4.736,0,0,1,4.016,3.958,5.989,5.989,0,0,1-2.328,5.723A6.419,6.419,0,0,1,950.934,319.586Zm-9-18.509c3.938.33,3.628,4.346,3.337,8.226-.272,3.628-.563,7.372,2.231,8.672,2.619,1.222,5.219,1.067,7.1-.427a5.266,5.266,0,0,0,2.057-4.967,3.92,3.92,0,0,0-3.686-3.376h-.446l.078-.446c.019-.078,1.242-7.7-3.473-10.069-4.7-2.348-7.567.931-7.683,1.067l-.058.058c-.252.194-.582.6-.524.8C940.845,300.669,940.961,300.941,941.932,301.077Zm-.815-1.552Z" transform="translate(-892.646 -295.515)"/><g transform="translate(43.673 1.4)"><path class="r" d="M923.39,298.152a4.152,4.152,0,0,1,5.044,2.91c1.164,3.88-3.3,5.82-4.268,4.462S922.226,298.928,923.39,298.152Z" transform="translate(-922.473 -297.677)"/><path class="k" d="M923.594,304.813a1.565,1.565,0,0,1-1.339-.582,12.317,12.317,0,0,1-1.3-6.752,1.648,1.648,0,0,1,.621-1.164l.058-.039.058-.019c.039,0,4.249-1.009,5.51,3.182a4.106,4.106,0,0,1-2.134,5.025A4.053,4.053,0,0,1,923.594,304.813Zm-1.63-7.838a1.175,1.175,0,0,0-.252.621,11.818,11.818,0,0,0,1.164,6.17c.272.369,1.067.369,1.843-.019a3.3,3.3,0,0,0,1.727-4.094A3.707,3.707,0,0,0,921.964,296.975Z" transform="translate(-920.872 -296.151)"/></g><path class="k" d="M869.949,295.529s-5.238-8.537-15.327-2.328c-5.044,3.88,4.656,7.955,6.4,8.537s0,4.85.97,4.462,2.134-3.3,3.1-1.746-.078,3.512,1.028,3.512S873.635,301.543,869.949,295.529Z" transform="translate(-822.642 -290.549)"/><path class="s" d="M869.94,295.505a10.279,10.279,0,0,0-8.905-4.579,8.815,8.815,0,0,1,6.771,5.937c1.746,5.238-4.462-.582-5.238,1.94s-7.761,0-8.925-3.3c-.136-.388-.252-.582-.369-.621-1.048,3.3,6.247,6.344,7.741,6.829,1.746.582,0,4.85.97,4.462s2.134-3.3,3.1-1.746-.078,3.512,1.028,3.512S873.626,301.52,869.94,295.505Z" transform="translate(-822.633 -290.525)"/><path class="k" d="M864.426,306.717a.9.9,0,0,1-.64-.233,1.883,1.883,0,0,1-.31-1.378,3.705,3.705,0,0,0-.407-2.057c-.1-.175-.213-.272-.291-.272-.272-.019-.776.6-1.106,1.009a4,4,0,0,1-1.222,1.164.554.554,0,0,1-.582-.058c-.349-.272-.291-.8-.194-1.688.116-1.048.252-2.464-.466-2.716-.078-.019-7.489-2.639-8.071-6.111a3.211,3.211,0,0,1,1.552-3.1l.039-.019c3.356-2.076,6.558-2.755,9.507-2.057a10.9,10.9,0,0,1,6.344,4.5h0c1.63,2.658,1.572,5.82-.155,8.944-1.242,2.289-3.162,4.074-4,4.074Zm-1.649-4.734h.058a1.142,1.142,0,0,1,.892.64,4.533,4.533,0,0,1,.524,2.483,2.349,2.349,0,0,0,.078.834s.019.019.1.019c.388-.039,2.348-1.649,3.589-4.191a7.7,7.7,0,0,0-.1-7.644,10.748,10.748,0,0,0-3.764-3.376c-3.279-1.707-6.984-1.319-11.02,1.164a2.467,2.467,0,0,0-1.242,2.328c.446,2.6,6.15,5.044,7.547,5.51,1.319.446,1.125,2.231.99,3.531-.019.252-.058.582-.058.8a9.68,9.68,0,0,0,.7-.776C861.594,302.643,862.137,301.983,862.777,301.983Z" transform="translate(-820.961 -288.933)"/><path class="k" d="M724.829,390.8a1.509,1.509,0,0,1-.8-.194,1.413,1.413,0,0,1-.64-1.028,1.641,1.641,0,0,1,1.3-2,.393.393,0,0,1,.446.31.379.379,0,0,1-.31.446c-.136.019-.776.194-.66,1.125a.7.7,0,0,0,.252.485,1.494,1.494,0,0,0,.97,0,.393.393,0,1,1,.272.737A6.068,6.068,0,0,1,724.829,390.8Z" transform="translate(-718.013 -368.432)"/><path class="k" d="M702.968,394.755a.4.4,0,0,1-.369-.252.375.375,0,0,1,.233-.485c1.009-.349,2.677-1.2,2.852-1.979.039-.136.039-.369-.272-.679a.384.384,0,0,1,.543-.543,1.477,1.477,0,0,1,.485,1.416c-.33,1.436-3.046,2.425-3.337,2.522A.317.317,0,0,0,702.968,394.755Z" transform="translate(-701.254 -370.956)"/><path class="k" d="M927.956,705.1a.391.391,0,0,1-.213-.058,6.973,6.973,0,0,1-3.24-4.753,5.765,5.765,0,0,1,.136-2.5.387.387,0,0,1,.737.233h0c-.039.155-1.145,3.686,2.813,6.383a.381.381,0,0,1,.1.543A.579.579,0,0,1,927.956,705.1Z" transform="translate(-880.067 -618.251)"/><path class="k" d="M990.988,360.053a.389.389,0,0,1-.388-.388,3.85,3.85,0,0,1,1.2-3.162,3.361,3.361,0,0,1,2.619-.621.4.4,0,0,1,.31.466.388.388,0,0,1-.446.31,2.652,2.652,0,0,0-1.979.466,3.182,3.182,0,0,0-.912,2.561A.418.418,0,0,1,990.988,360.053Z" transform="translate(-933.399 -342.85)"/><path class="m" d="M950.88,1091.475a34.52,34.52,0,0,1-5.394-7.276l-4.986,8.789c2.406,1.979,4.229,3.318,5.044,4.094a3.57,3.57,0,0,1,.6.8A24.32,24.32,0,0,0,950.88,1091.475Z" transform="translate(-893.019 -929.908)"/><path class="t" d="M957.334,1084.2l-2.134,3.764c2.134,1.494,4.365,4.443,2.774,9.875,0,.019,0,.019.019.019a24.875,24.875,0,0,0,4.734-6.383A35.913,35.913,0,0,1,957.334,1084.2Z" transform="translate(-904.867 -929.908)"/><path class="k" d="M944.053,1095.114l-.252-.446a3.283,3.283,0,0,0-.524-.7c-.446-.427-1.222-1.028-2.192-1.8-.776-.621-1.766-1.4-2.833-2.27l-.252-.213,5.491-9.681.33.621a35,35,0,0,0,5.335,7.2l.194.194-.116.233a25.274,25.274,0,0,1-4.812,6.48Zm-5.064-5.607c.97.8,1.843,1.494,2.561,2.057.989.776,1.785,1.4,2.251,1.843.136.136.272.291.407.446a24.413,24.413,0,0,0,4.191-5.7,35.8,35.8,0,0,1-4.928-6.558Z" transform="translate(-891.004 -926.523)"/><g transform="translate(51.873 160.908)"><path class="k" d="M965.363,1144.073c1.552,0,10.671-15.909,7.955-19.4-.582-.757-1.533-1.707-2.619-2.871a25.2,25.2,0,0,1-4.734,6.383C968.39,1132.51,963.908,1144.073,965.363,1144.073Z" transform="translate(-964.691 -1121.121)"/><path class="k" d="M963.807,1141.64a.553.553,0,0,1-.466-.233c-.407-.5-.175-1.766.369-4.559.737-3.725,1.766-8.828.369-11.311l-.155-.252.213-.214a24.859,24.859,0,0,0,4.656-6.286l.252-.485.369.407q.466.495.873.931c.718.757,1.319,1.416,1.766,1.959.737.951,1.416,3.745-2.445,11.641C968.289,1135.974,965.088,1141.64,963.807,1141.64Zm.116-.718Zm-.155-.058Zm1.106-15.443c1.339,2.794.33,7.858-.407,11.583a19.818,19.818,0,0,0-.563,3.8c1.067-.718,5.141-7.043,7.1-12.844.97-2.91,1.145-4.986.446-5.879-.407-.524-1.009-1.164-1.707-1.921-.155-.175-.33-.349-.5-.543A26.134,26.134,0,0,1,964.874,1125.42Z" transform="translate(-963.135 -1118.3)"/></g><path class="l" d="M898.7,1152.274c-.136-3.861-.233-7.217-.233-10.418A33.528,33.528,0,0,1,889,1140.4c.873,5.355,1.513,9.041,1.649,10.3a4.553,4.553,0,0,1,.019.5C892.822,1152.817,896.7,1152.545,898.7,1152.274Z" transform="translate(-851.51 -975.204)"/><path class="m" d="M909.752,1145.482a34.946,34.946,0,0,1-5.937-.582c1.378,2.871,3.1,8.052-.815,10.535,2.192.931,5.277.7,6.984.466C909.849,1152.059,909.752,1148.7,909.752,1145.482Z" transform="translate(-862.794 -978.831)"/><path class="k" d="M893.895,1150.618a9.222,9.222,0,0,1-5.374-1.339l-.155-.116v-.214a3.286,3.286,0,0,0-.019-.446c-.1-.776-.388-2.542-.776-4.967-.252-1.513-.543-3.3-.873-5.316l-.1-.621.6.175a33.794,33.794,0,0,0,9.371,1.436h.388v.388c0,3.434.1,7.023.233,10.4l.019.349-.349.039A18.824,18.824,0,0,1,893.895,1150.618Zm-4.753-1.843c.931.621,3.007,1.436,7.237.912-.116-3.162-.213-6.5-.213-9.7a34.48,34.48,0,0,1-8.595-1.281c.291,1.766.543,3.356.776,4.7.427,2.542.7,4.21.8,5.005A2.334,2.334,0,0,0,889.142,1148.775Z" transform="translate(-849.576 -972.947)"/><g transform="translate(26.466 175.265)"><path class="k" d="M835.994,1204.038c20.216.582,18.819-.582,18.625-4.074-.039-.931-.078-2.813-.1-3.686-2,.272-5.9,1.513-8.032-.078C846.218,1202.156,828.544,1203.456,835.994,1204.038Z" transform="translate(-833.778 -1195.443)"/><path class="k" d="M842.545,1201.419c-2.212,0-4.889-.039-8.168-.136h-.019c-1.688-.136-2.134-.272-2.173-.718-.058-.543.582-.737,2.677-1.378,3.318-1.009,9.507-2.891,9.642-6.15l.039-.737.582.446c1.572,1.183,4.327.64,6.344.252.5-.1.99-.194,1.4-.252l.427-.058.019.427c.019.407.039,1.048.039,1.707.019.737.039,1.494.058,1.979.019.213.019.407.039.6.078,1.009.155,1.863-.5,2.542C852.033,1200.895,850,1201.419,842.545,1201.419Zm-8.129-.912c12.32.349,16.86.078,17.966-1.086.388-.427.369-.99.291-1.959-.019-.194-.039-.407-.039-.621-.019-.5-.039-1.261-.058-2-.019-.446-.019-.892-.039-1.261-.291.039-.6.116-.931.175-1.96.388-4.579.892-6.422-.058-.776,3.376-6.577,5.141-10.108,6.228-.543.155-1.125.349-1.552.485C833.737,1200.449,834.028,1200.468,834.416,1200.507Z" transform="translate(-832.181 -1192.3)"/></g><ellipse class="r" cx="0.543" cy="0.543" rx="0.543" ry="0.543" transform="translate(34.172 11.77)"/><path class="k" d="M855.172,351.7h-.058c-.388-.058-1.649-.33-1.727-1.067-.019-.194.039-.582.679-.834s1.028-1.455,1.125-1.863a.388.388,0,0,1,.757.175c-.039.194-.466,1.96-1.591,2.406a.948.948,0,0,0-.136.058,2.321,2.321,0,0,0,1.028.349.379.379,0,0,1,.31.446A.41.41,0,0,1,855.172,351.7Z" transform="translate(-822.805 -336.242)"/><path class="k" d="M869.193,374.121a1.568,1.568,0,0,1-.31-.019.384.384,0,0,1,.136-.757c.039,0,.873.116,1.125-.543a.387.387,0,1,1,.718.291A1.7,1.7,0,0,1,869.193,374.121Z" transform="translate(-835.041 -356.337)"/></g><g transform="translate(6.872 92.214)"><path class="d" d="M378.226,765.673h-46.6a2.769,2.769,0,0,1-2.27-1.048,1.592,1.592,0,0,1-.194-1.494l6.771-18.3a2.557,2.557,0,0,1,2.483-1.436h33.06a2.577,2.577,0,0,1,2.483,1.436l6.771,18.3a1.592,1.592,0,0,1-.194,1.494A2.792,2.792,0,0,1,378.226,765.673ZM338.4,744.2a1.819,1.819,0,0,0-1.746.931l-6.771,18.3a.849.849,0,0,0,.116.776,2.025,2.025,0,0,0,1.63.718h46.621a1.943,1.943,0,0,0,1.63-.718.849.849,0,0,0,.116-.776l-6.771-18.3a1.819,1.819,0,0,0-1.746-.931Z" transform="translate(-319.266 -740.529)"/><path class="f" d="M315.921,839.8H283.5a2.92,2.92,0,0,0-2.833,3.686l9.1,33.661a2.946,2.946,0,0,0,2.833,2.173h44.41a2.946,2.946,0,0,0,2.833-2.173l9.1-33.642a2.929,2.929,0,0,0-2.833-3.686l-30.188-.019Z" transform="translate(-280.184 -818.226)"/><path class="g" d="M341.317,839.8H283.5a2.92,2.92,0,0,0-2.833,3.686l8.847,32.73h39.773a2.946,2.946,0,0,0,2.833-2.173l9.1-33.622A3.442,3.442,0,0,0,341.317,839.8Z" transform="translate(-280.184 -818.226)"/><path class="d" d="M335.429,878.1h-44.41a3.319,3.319,0,0,1-3.2-2.464l-9.1-33.661a3.306,3.306,0,0,1,3.2-4.171h62.608a3.308,3.308,0,0,1,2.639,1.3,3.248,3.248,0,0,1,.563,2.871l-9.1,33.661A3.319,3.319,0,0,1,335.429,878.1ZM281.92,838.576a2.582,2.582,0,0,0-2.037,1.009,2.482,2.482,0,0,0-.427,2.192l9.1,33.661a2.556,2.556,0,0,0,2.464,1.882h44.41a2.556,2.556,0,0,0,2.464-1.882l9.1-33.661a2.541,2.541,0,0,0-2.464-3.2Z" transform="translate(-278.603 -816.614)"/><g transform="translate(33.311 28.714)"><path class="d" d="M454.376,905.1h0a2.078,2.078,0,0,1-2.076-2.076v-22.35a2.078,2.078,0,0,1,2.076-2.076h0a2.078,2.078,0,0,1,2.076,2.076v22.35A2.054,2.054,0,0,1,454.376,905.1Z" transform="translate(-451.912 -878.212)"/><path class="d" d="M452.764,903.878a2.467,2.467,0,0,1-2.464-2.464v-22.35a2.464,2.464,0,1,1,4.928,0v22.35A2.455,2.455,0,0,1,452.764,903.878Zm0-26.5a1.689,1.689,0,0,0-1.688,1.688v22.35a1.688,1.688,0,0,0,3.376,0v-22.35A1.677,1.677,0,0,0,452.764,877.376Z" transform="translate(-450.3 -876.6)"/></g><g transform="translate(12.989 29.017)"><path class="d" d="M355.4,905.94h0a2.075,2.075,0,0,1-2.5-1.533l-5.238-21.749a2.085,2.085,0,0,1,1.533-2.5h0a2.076,2.076,0,0,1,2.5,1.533l5.238,21.749A2.061,2.061,0,0,1,355.4,905.94Z" transform="translate(-347.2 -879.722)"/><path class="d" d="M353.262,904.825a2.483,2.483,0,0,1-2.406-1.882l-5.238-21.749a2.5,2.5,0,0,1,.291-1.862,2.469,2.469,0,0,1,4.5.718l5.238,21.749a2.5,2.5,0,0,1-.291,1.863,2.472,2.472,0,0,1-1.533,1.106h0A2.637,2.637,0,0,1,353.262,904.825Zm-5.219-25.881a2.388,2.388,0,0,0-.388.039A1.663,1.663,0,0,0,346.413,881l5.238,21.749a1.681,1.681,0,0,0,2.037,1.242h0a1.663,1.663,0,0,0,1.242-2.018l-5.238-21.749A1.718,1.718,0,0,0,348.043,878.944Z" transform="translate(-345.55 -878.16)"/></g><g transform="translate(48.179 29.017)"><path class="d" d="M530.589,905.94h0a2.075,2.075,0,0,0,2.5-1.533l5.238-21.749a2.085,2.085,0,0,0-1.533-2.5h0a2.076,2.076,0,0,0-2.5,1.533l-5.238,21.749A2.075,2.075,0,0,0,530.589,905.94Z" transform="translate(-528.597 -879.722)"/><path class="d" d="M529.408,904.825a2.964,2.964,0,0,1-.582-.058h0a2.472,2.472,0,0,1-1.533-1.106A2.417,2.417,0,0,1,527,901.8l5.238-21.749a2.469,2.469,0,0,1,4.5-.718,2.417,2.417,0,0,1,.291,1.862l-5.238,21.749A2.429,2.429,0,0,1,529.408,904.825Zm-.388-.815a1.7,1.7,0,0,0,2.037-1.242L536.3,881.02a1.683,1.683,0,0,0-.194-1.261,1.61,1.61,0,0,0-1.048-.757,1.7,1.7,0,0,0-2.037,1.242l-5.238,21.749a1.683,1.683,0,0,0,.194,1.261,1.752,1.752,0,0,0,1.048.757Z" transform="translate(-526.931 -878.16)"/></g><path class="b" d="M420.434,737.429H402.915a3.42,3.42,0,0,1-3.415-3.415h0a3.42,3.42,0,0,1,3.415-3.415h17.519a3.42,3.42,0,0,1,3.415,3.415h0A3.4,3.4,0,0,1,420.434,737.429Z" transform="translate(-376.044 -730.212)"/><path class="f" d="M401.246,730.6a1.735,1.735,0,0,0-1.746,1.727v2.5h18.936a1.735,1.735,0,0,0,1.746-1.727v-2.5Z" transform="translate(-376.044 -730.212)"/><path class="d" d="M418.822,736.205H401.3a3.8,3.8,0,1,1,0-7.605h17.519a3.8,3.8,0,1,1,0,7.605ZM401.3,729.376a3.027,3.027,0,0,0,0,6.053h17.519a3.027,3.027,0,0,0,0-6.053Z" transform="translate(-374.432 -728.6)"/></g></svg>