<svg xmlns="http://www.w3.org/2000/svg" width="191.819" height="186.815" viewBox="0 0 191.819 186.815"><defs><style>.a{fill:#cdcdcd;opacity:0.27;}.b{fill:#cecece;}.c{fill:#bcbcbc;}.d{fill:#555;}.e{fill:#e5e5e5;}.f,.g,.n{fill:#fff;}.f{opacity:0.44;}.g{opacity:0.68;}.h{fill:#f9a395;}.i{fill:#333;}.j{fill:#f9c7a5;}.k{fill:#f99f91;}.l{fill:#b22747;}.m{fill:rgba(59,85,36,0.2);}.o{fill:#f3f3f3;opacity:0.46;}.p{fill:#222;}.q{fill:#a5a5a5;}</style></defs><path class="a" d="M316.6,341.464S369.5,328.427,397.771,357.9s-4.831,65.712,20.527,76.111c25.377,10.38,40.588,37.445,18.354,64.994s-43.731-11.117-90.6,2.406-61.6,7.974-72.483-5.549c-14.493-25.377,32.381-29.471,0-52.907S250.864,356.927,316.6,341.464Z" transform="translate(-255.597 -324.992)"/><path class="a" d="M1105.887,682.736s-6.771,11.835,4.6,20.779c11.35,8.944,22.952,6.034,18.839-.97s-10.147-4.6-10.147-13.29S1109.263,675.5,1105.887,682.736Z" transform="translate(-939.307 -599.581)"/><g transform="translate(109.908 118.793)"><path class="b" d="M1012.134,918.684s-4.268-4.462-1.746-9.7,10.477-4.268,6.208-12.417,15.909-21.729,27.938-7.566-4.85,24.426-9.7,21.535C1027.655,906.267,1023.969,928.579,1012.134,918.684Z" transform="translate(-973.214 -882.441)"/><path class="c" d="M1042.838,900.5c2.1,5.413,3.473,12.882-3.764,14.57-11.641,2.716-13.969,6.4-15.909,13.193-1.863,6.48-9.933,3.589-12.165.446a10.578,10.578,0,0,0,2.27,4.21c11.835,9.895,15.521-12.417,22.7-8.149,4.85,2.891,21.729-7.372,9.7-21.535A20.721,20.721,0,0,0,1042.838,900.5Z" transform="translate(-974.35 -896.676)"/><path class="d" d="M1016.276,919.985a9.518,9.518,0,0,1-6.034-2.658l-.039-.039c-.039-.039-4.424-4.715-1.824-10.128a10.688,10.688,0,0,1,4.191-4.132c2.658-1.766,4.6-3.046,2.037-7.935-1.766-3.376.252-7.8,5.044-11.039a19.064,19.064,0,0,1,11.389-3.24,16.866,16.866,0,0,1,12.165,6.267c5.219,6.15,5.743,12.611,1.436,17.713-3.279,3.88-8.925,6.014-11.621,4.4-2.755-1.63-5.005,1.125-7.605,4.307-2.348,2.852-5.005,6.092-8.5,6.422A3.738,3.738,0,0,1,1016.276,919.985Zm-5.51-3.221c2.173,1.8,4.152,2.6,6.053,2.425,3.182-.31,5.607-3.279,7.974-6.15,2.716-3.318,5.277-6.461,8.614-4.482,1.067.64,2.891.563,4.889-.175a14.21,14.21,0,0,0,5.743-4.055,10.918,10.918,0,0,0,2.716-7.179c-.019-3.124-1.416-6.325-4.152-9.545a16.121,16.121,0,0,0-11.6-6,18.231,18.231,0,0,0-10.9,3.1c-4.365,2.949-6.344,7.062-4.792,10.03,2.871,5.51.369,7.179-2.289,8.944a10.011,10.011,0,0,0-3.919,3.822C1006.769,912.34,1010.456,916.434,1010.766,916.764Z" transform="translate(-971.575 -880.792)"/><path class="b" d="M1015.557,1097.92s-1.552-6.984,2.716-9.119,4.85-2.328,5.044-5.432,9.895-6.014,13.969,1.94-7.567,10.089-11.059,8.149S1022.929,1103.547,1015.557,1097.92Z" transform="translate(-977.801 -1041.5)"/><path class="c" d="M1034,1086c1.2,2.677,2.483,7.023-.776,8.847-4.85,2.716-11.059-1.358-11.835,3.3s-3.8,4.87-5.588,3.512c.078.582.155.951.155.951,7.372,5.626,7.178-6.4,10.671-4.462s15.133-.194,11.059-8.149A9.413,9.413,0,0,0,1034,1086Z" transform="translate(-978.219 -1046.187)"/><path class="d" d="M1017.408,1098.349a6.373,6.373,0,0,1-3.725-1.591l-.116-.078-.039-.136a15.218,15.218,0,0,1-.252-3.861c.194-2.774,1.3-4.734,3.162-5.685l.388-.194c3.861-1.921,4.268-2.134,4.443-4.909.1-1.455,1.862-2.833,4.326-3.337a9.238,9.238,0,0,1,10.38,5.141c1.766,3.434.621,5.626-.66,6.849-2.852,2.755-8.653,3.065-10.923,1.8-.951-.524-1.513.252-2.6,2.173-.892,1.591-1.921,3.415-3.725,3.783C1017.854,1098.33,1017.641,1098.349,1017.408,1098.349Zm-3.143-2.115c1.455,1.086,2.639,1.494,3.647,1.3,1.455-.31,2.386-1.959,3.2-3.415.951-1.688,1.921-3.434,3.647-2.464,2.018,1.125,7.431.815,10.011-1.688,1.572-1.533,1.746-3.531.5-5.937a8.478,8.478,0,0,0-9.526-4.734c-2.057.427-3.647,1.552-3.706,2.639-.194,3.24-.912,3.589-4.87,5.568l-.388.194C1013.178,1089.5,1014.09,1095.265,1014.265,1096.235Z" transform="translate(-976.16 -1040.027)"/><path class="b" d="M878.514,936.765s7.566-4.656,3.686-9.895-2.328-11.059-.582-15.133.388-21.535-18.237-18.043-4.85,16.1,0,17.461-4.268,13.775,8.343,19.4C877.738,933.467,876.186,937.153,878.514,936.765Z" transform="translate(-847.743 -890.821)"/><path class="c" d="M942.958,926.922c-3.88-5.238-2.328-11.059-.582-15.133,1.572-3.667.621-18.121-13.076-18.489,3.318,2.231,6.247,6.305,5.7,13.833-1.164,7.955-.194,12.611,5.432,18.043,3.337,3.221-.679,8.4-1.94,11.583a1.4,1.4,0,0,0,.776.058S946.839,932.161,942.958,926.922Z" transform="translate(-908.501 -890.873)"/><path class="d" d="M876.538,935.687c-.989,0-1.358-.737-1.785-1.591a9.244,9.244,0,0,0-4.87-4.676c-8.052-3.589-7.508-9.836-7.12-14.4.252-2.91.31-4.559-1.145-4.986-3.376-.951-9.953-6.48-9.739-11.272.155-3.415,3.434-5.762,9.778-6.946,4.889-.912,11.6-.892,15.851,4.4,3.861,4.812,3.88,11.68,2.813,14.163-2.561,5.976-2.386,10.807.543,14.745a5.348,5.348,0,0,1,1.086,4.327c-.679,3.512-4.715,6.034-4.889,6.131l-.058.039-.078.019A2.915,2.915,0,0,1,876.538,935.687Zm-10.244-43.556a25.062,25.062,0,0,0-4.5.446c-5.859,1.106-9.022,3.24-9.138,6.208-.194,4.521,6.344,9.7,9.177,10.5,2.154.6,1.96,3.007,1.707,5.782-.369,4.326-.873,10.263,6.674,13.639a9.889,9.889,0,0,1,5.238,5.044c.466.931.64,1.242,1.261,1.145.5-.33,3.9-2.639,4.462-5.588a4.582,4.582,0,0,0-.951-3.706c-3.1-4.191-3.3-9.274-.621-15.521.97-2.27.912-8.886-2.7-13.387C874.481,893.683,870.853,892.131,866.294,892.131Z" transform="translate(-846.097 -889.317)"/><path class="b" d="M852.109,1054.308s-3.686-15.327-11.253-16.879-8.343-2.91-9.507-7.178-8.343-2.328-7.178,4.656,7.567,1.358,5.626,7.955,6.208,7.954,10.089,5.626S850.557,1055.472,852.109,1054.308Z" transform="translate(-823.667 -999.44)"/><path class="c" d="M839.895,1045.012c-6.79,0-3.046-5.665-8.149-7.178-6.6-1.94-7.644-7.373-2.949-9.8h0c-2.406-.233-5.394,2.192-4.617,6.887,1.164,6.984,7.567,1.358,5.626,7.954s6.208,7.955,10.089,5.626c3.531-2.115,9.487,5.432,11.7,5.9C849.537,1051.2,844.92,1045.012,839.895,1045.012Z" transform="translate(-823.675 -999.457)"/><path class="d" d="M850.21,1053.361c-.873,0-2.076-1.009-3.764-2.406-2.6-2.154-5.84-4.831-7.935-3.57-2.677,1.61-6.849,1.455-9.138-.31-1.688-1.3-2.231-3.356-1.513-5.762q.582-2.008.175-2.677c-.252-.407-.834-.524-1.552-.66-1.533-.291-3.628-.7-4.249-4.424a7.128,7.128,0,0,1,.776-5.005,4.874,4.874,0,0,1,3.065-2.251,3.34,3.34,0,0,1,4.113,2.445c1.125,4.113,1.785,5.374,9.216,6.907,3.259.66,6.208,3.783,8.731,9.235a47.109,47.109,0,0,1,2.813,7.935l.058.252-.194.155A1.783,1.783,0,0,1,850.21,1053.361Zm-10.5-7.082c2.289,0,4.986,2.212,7.217,4.074a13.9,13.9,0,0,0,3.124,2.212c-.621-2.367-4.268-14.861-10.865-16.2-7.838-1.61-8.634-3.162-9.8-7.45a2.547,2.547,0,0,0-3.2-1.882c-2,.427-3.861,2.619-3.24,6.383.543,3.2,2.173,3.512,3.628,3.8a2.705,2.705,0,0,1,2.076,1.028c.407.679.388,1.688-.1,3.3-.621,2.115-.194,3.822,1.242,4.928,2.018,1.571,5.9,1.688,8.265.252A3.066,3.066,0,0,1,839.714,1046.28Z" transform="translate(-822.097 -997.988)"/><path class="d" d="M989.7,974.532a.46.46,0,0,1-.446-.349c-.485-1.882-.252-6.247.563-11.117a85.932,85.932,0,0,1,5.394-18.567c4.947-11.738,14.609-26.793,32.614-31.8l.213.737c-17.713,4.928-27.239,19.77-32.109,31.353-4.812,11.447-6.4,22.855-6.131,27.647,3.182-11.66,9.914-17.151,15.114-19.712a25.976,25.976,0,0,1,11.195-2.794l-.019.776a25.784,25.784,0,0,0-10.865,2.736,26.165,26.165,0,0,0-8.634,6.926,34.023,34.023,0,0,0-6.441,13.814.443.443,0,0,1-.446.349Z" transform="translate(-956.622 -906.509)"/><path class="d" d="M870.456,958.193a.414.414,0,0,1-.407-.31c-.446-1.378-.854-2.677-1.261-3.958-3.279-10.457-5.452-17.364-16.433-21.089-3.686-1.242-8.42-3.764-10.147-8.672a10.282,10.282,0,0,1-.446-5.452l.757.175a9.942,9.942,0,0,0,.446,5.044c1.3,3.628,4.618,6.461,9.642,8.149,11.35,3.841,13.581,10.9,16.918,21.574q.262.815.524,1.688a146.5,146.5,0,0,0-8.769-45.147,95.283,95.283,0,0,0-8.168-17.267l.64-.427A96.736,96.736,0,0,1,862,909.961a147.634,147.634,0,0,1,8.886,47.785.457.457,0,0,1-.369.446Zm-.349-.427Z" transform="translate(-837.803 -890.229)"/><g transform="translate(20.876 61.077)"><path class="c" d="M931.7,1203.614a6.014,6.014,0,0,1,12.029,0Z" transform="translate(-931.312 -1197.212)"/><path class="d" d="M942.5,1202.391H929.7V1202a6.4,6.4,0,0,1,12.8,0Zm-12.029-.776h11.233a5.63,5.63,0,0,0-11.233,0Z" transform="translate(-929.7 -1195.6)"/></g><g transform="translate(26.115 60.301)"><path class="b" d="M958.7,1200.39a6.79,6.79,0,0,1,13.581,0Z" transform="translate(-958.312 -1193.212)"/><path class="d" d="M971.057,1199.167H956.7v-.388a7.178,7.178,0,0,1,14.357,0Zm-13.581-.776h12.785a6.4,6.4,0,0,0-12.785,0Z" transform="translate(-956.7 -1191.6)"/></g></g><g transform="translate(49.357 0)"><path class="e" d="M512,383.876c0,2.755,1.746,5.006,3.9,5.006H616.767c2.154,0,3.9-2.231,3.9-5.006V325.4H512Z" transform="translate(-511.612 -314.361)"/><path class="f" d="M532.488,387.3H512v33.855h20.488a4.442,4.442,0,0,0,4.443-4.443V391.743A4.455,4.455,0,0,0,532.488,387.3Z" transform="translate(-511.612 -364.251)"/><path class="f" d="M968.431,387.3H947.943a4.442,4.442,0,0,0-4.443,4.443v24.969a4.442,4.442,0,0,0,4.443,4.443h20.488Z" transform="translate(-859.395 -364.251)"/><path class="d" d="M615.155,387.657H514.288c-2.367,0-4.288-2.425-4.288-5.394V323.4H619.423v58.864C619.423,385.251,617.5,387.657,615.155,387.657ZM510.776,324.176v58.088c0,2.542,1.572,4.618,3.512,4.618H615.155c1.94,0,3.512-2.076,3.512-4.618V324.176Z" transform="translate(-510 -312.749)"/><g transform="translate(0)"><path class="b" d="M616.767,270.6H515.9a3.9,3.9,0,0,0-3.9,3.9v6.752H620.647V274.5A3.883,3.883,0,0,0,616.767,270.6Z" transform="translate(-511.612 -270.193)"/><path class="d" d="M619.423,279.927H510v-7.14a4.289,4.289,0,0,1,4.288-4.288H615.155a4.289,4.289,0,0,1,4.288,4.288v7.14Zm-108.647-.776H618.647v-6.364a3.511,3.511,0,0,0-3.512-3.512H514.288a3.511,3.511,0,0,0-3.512,3.512Z" transform="translate(-510 -268.5)"/></g><ellipse class="d" cx="1.377" cy="1.377" rx="1.377" ry="1.377" transform="translate(3.822 5.2)"/><ellipse class="d" cx="1.377" cy="1.377" rx="1.377" ry="1.377" transform="translate(8.381 5.2)"/><ellipse class="d" cx="1.377" cy="1.377" rx="1.377" ry="1.377" transform="translate(12.96 5.2)"/><path class="g" d="M716.719,407.447H689.247A7.543,7.543,0,0,1,681.7,399.9V372.447a7.543,7.543,0,0,1,7.547-7.547h27.472a7.543,7.543,0,0,1,7.547,7.547v27.472A7.539,7.539,0,0,1,716.719,407.447Z" transform="translate(-648.388 -346.197)"/><rect class="d" width="6.635" height="0.776" transform="translate(97.375 5.394)"/></g><g transform="translate(11.273 44.872)"><g transform="translate(73.415 83.274)"><path class="h" d="M707.118,963.45c-9.933-9.778-2.483-19.46,4.773-26.289L702.249,932c-1.824,6.984-5.956,16.452-8.149,22.137C696.448,961.9,712.745,967.524,707.118,963.45Z" transform="translate(-693.712 -931.418)"/><path class="i" d="M706.341,962.778h-.019c-2.212-.039-12.359-4.889-14.182-10.942l-.039-.136.039-.116c.543-1.436,1.222-3.124,1.94-4.909a154.281,154.281,0,0,0,6.17-17.19l.116-.485,10.535,5.646-.388.369c-4.016,3.783-9.371,9.545-9.448,15.87-.039,3.453,1.533,6.752,4.656,9.856,1.067.776,1.416,1.242,1.281,1.649C706.981,962.564,706.806,962.778,706.341,962.778Zm-.039-.5Zm-13.387-10.535c1.8,5.626,11.039,9.933,13.154,10.263a6.362,6.362,0,0,0-.8-.64l-.039-.039a17.839,17.839,0,0,1-3.8-5.258,12.147,12.147,0,0,1-1.106-5.18c.078-6.4,5.238-12.165,9.293-16.045l-8.731-4.676a163.9,163.9,0,0,1-6.092,16.8C694.118,948.692,693.458,950.341,692.915,951.738Z" transform="translate(-692.1 -929)"/></g><path class="d" d="M373.747,992.946a.389.389,0,0,1-.388-.388V936.876H314.088a.388.388,0,1,1,0-.776h60.047v56.458A.389.389,0,0,1,373.747,992.946Z" transform="translate(-313.7 -851.449)"/><path class="j" d="M601.948,600.531c-6.984-8.925-5.238-14.551-3.686-14.357s3.1-4.074,0-4.074c-13.581,3.88-2.716,25.61-1.746,28.52.582,1.727-.621,3.453-3.3,1.669-1.552,1.475-4.889,5.083-5.044,8.808A3.7,3.7,0,0,1,586,623.871c4.229,2.483,8.478,3.938,12.262,3.628C614.947,626.141,608.932,609.456,601.948,600.531Z" transform="translate(-533.17 -566.13)"/><path class="k" d="M601.948,611.688c-6.984-8.925-5.238-14.551-3.686-14.357a1.654,1.654,0,0,0,1.436-1.067c-.776-.369-3.531-1.164-4.54,2.813-1.358,5.432,14.357,32.4,3.1,33.952-3.124.427-5.917-3.531-8.284-5.723a10.365,10.365,0,0,0-1.8,4.947A3.7,3.7,0,0,1,586,635.028c4.229,2.483,8.478,3.938,12.262,3.628C614.947,637.3,608.932,620.613,601.948,611.688Z" transform="translate(-533.17 -577.287)"/><path class="i" d="M594.009,626.233c-3.376,0-7.2-1.242-11.427-3.725l-.582-.33.582-.33a3.426,3.426,0,0,0,1.979-2.464c.155-3.9,3.667-7.644,5.161-9.08l.233-.213.252.175c1.048.7,1.921.873,2.425.485a1.549,1.549,0,0,0,.291-1.707c-.1-.31-.33-.873-.621-1.572-1.96-4.753-6.577-15.89-3.279-22.7a9.03,9.03,0,0,1,5.917-4.753L595,580h.058a1.958,1.958,0,0,1,1.94,1.009,3.037,3.037,0,0,1-.388,2.93,1.749,1.749,0,0,1-1.61.912c-.155-.019-.369.155-.543.446-.989,1.727-.563,6.693,4.579,13.29,4.889,6.247,8.944,15.7,6.286,21.729-1.513,3.453-4.967,5.432-10.244,5.859A10.1,10.1,0,0,1,594.009,626.233Zm-10.5-4.074c4.307,2.425,8.168,3.531,11.486,3.259,4.986-.407,8.207-2.231,9.6-5.394,1.766-4.016.582-12.3-6.189-20.953a25.5,25.5,0,0,1-4.812-9c-.543-2.154-.485-4.016.155-5.141a1.36,1.36,0,0,1,1.319-.834c.272.039.6-.194.873-.582a2.253,2.253,0,0,0,.33-2.134,1.217,1.217,0,0,0-1.2-.582,8.164,8.164,0,0,0-5.374,4.326c-3.143,6.48,1.552,17.81,3.3,22.059.31.757.543,1.3.64,1.63a2.22,2.22,0,0,1-.563,2.561c-.427.33-1.4.718-3.065-.291-1.533,1.494-4.579,4.889-4.714,8.343A3.507,3.507,0,0,1,583.513,622.159Z" transform="translate(-529.946 -564.437)"/><path class="l" d="M613.332,756.615c6.984-6.208,28.908-30.266,10.477-40.355,0,0-6.6-3.88-19.207,2.522s-17.849,14.745-24.252,15.909-15.521.582-16.491,4.656c-1.882,7.935,29.1,6.6,33.176,9.313,1.533,1.028,1.28,4.307.194,8.517l9.642,5.161C609.238,760.088,611.6,758.148,613.332,756.615Z" transform="translate(-515.258 -673.322)"/><path class="m" d="M600.457,766.362s.194,3.1,8.149.776,20.565-14.939,23.67-12.417-2.91-1.513-10.768,21.943c-3.686,14.9-34.476-2.561-32.711-8.963C590.562,761.318,599.487,764.616,600.457,766.362Z" transform="translate(-535.365 -704.993)"/><path class="i" d="M605.3,761.191l-10.147-5.432.078-.291c.815-3.143,1.474-7.1-.019-8.09-1.339-.892-6.208-1.358-11.35-1.863-8.905-.873-18.994-1.843-21.5-5.335a2.927,2.927,0,0,1-.485-2.522c.776-3.24,5.879-3.744,11.272-4.268,1.882-.175,3.822-.369,5.529-.679,3.124-.563,6.034-2.949,9.72-5.976a76.44,76.44,0,0,1,14.435-9.895c12.65-6.422,19.3-2.677,19.576-2.5,4.365,2.386,6.829,5.743,7.314,9.972.563,5.006-1.591,11.078-6.422,18.1A78.473,78.473,0,0,1,612,755.312c-.582.524-1.242,1.086-1.94,1.688-1.378,1.183-2.949,2.542-4.521,4.016Zm-9.235-5.82,9.119,4.889c1.513-1.416,3.007-2.716,4.346-3.841.7-.6,1.358-1.164,1.94-1.688l.252.291-.252-.291c5.277-4.7,18.722-19.3,17.461-30.344-.446-3.958-2.774-7.12-6.926-9.39-.078-.039-6.6-3.686-18.839,2.522a76,76,0,0,0-14.3,9.8c-3.764,3.1-6.732,5.549-10.069,6.15-1.746.31-3.686.5-5.588.7-4.889.485-9.953.97-10.593,3.667a2.218,2.218,0,0,0,.369,1.9c2.289,3.2,12.63,4.21,20.934,5.006,5.7.543,10.205.989,11.718,2S597.289,750.481,596.067,755.37Z" transform="translate(-513.65 -671.709)"/><path class="n" d="M484.456,660.59c.155-3.725,3.492-7.334,5.044-8.808-1.843-1.222-4.4-4.113-7.567-9.817-7.761-13.969-23.67-10.477-23.67-10.477-4.812,3.007,9.545,23.417,24.019,31.876A3.7,3.7,0,0,0,484.456,660.59Z" transform="translate(-429.453 -605.623)"/><path class="i" d="M480.735,662.262l-.194-.116A68,68,0,0,1,463.313,646.8c-4.85-5.956-7.877-11.583-7.916-14.706a2.681,2.681,0,0,1,1.125-2.483l.058-.039.058-.019a25.649,25.649,0,0,1,9.08,0,20.8,20.8,0,0,1,15.017,10.671c3.453,6.208,5.956,8.692,7.45,9.681l.407.272-.349.33c-1.436,1.358-4.792,4.928-4.928,8.537-.039,1.145-.892,2.231-2.367,3.1Zm-23.864-31.973a1.955,1.955,0,0,0-.7,1.785c.039,2.949,3.007,8.4,7.76,14.221a67.764,67.764,0,0,0,16.821,15.055A3.268,3.268,0,0,0,482.54,659h0c.155-3.628,3.2-7.12,4.831-8.75-2.154-1.61-4.676-4.947-7.314-9.681A19.779,19.779,0,0,0,465.6,630.289,25.389,25.389,0,0,0,456.872,630.289Z" transform="translate(-427.905 -604.055)"/><path class="i" d="M719.607,816.644a.175.175,0,0,1-.1-.019.388.388,0,0,1-.272-.485c.078-.291,7.664-28.326,15.191-38.919a.39.39,0,1,1,.64.446c-7.431,10.5-15,38.4-15.075,38.686A.413.413,0,0,1,719.607,816.644Z" transform="translate(-640.546 -723.262)"/><path class="l" d="M538.209,832.133c-32.808-9.274-35.31-5.976-39.191-2.27s-9.681,9.895-6.577,18.14c0,0,7.372,5.529,36.668,6.849,15.831.718,24.659,9.429,29.82,19.809a17.7,17.7,0,0,0,8.769-4.54C564.227,855.143,556.776,837.391,538.209,832.133Z" transform="translate(-457.054 -762.809)"/><path class="m" d="M563.138,873.239c-4.423-11.059-15.152-25.183-36.261-28.636-23.185-3.8-16.181-16.569-15.152-18.237a22.7,22.7,0,0,0-7.625.272c-3.085,1.746-6.441,4.85-9.759,8.4-2.406,3.453-3.977,7.838-2.018,13.018,0,0,7.372,5.529,36.669,6.849,15.831.718,24.659,9.429,29.82,19.809A16.078,16.078,0,0,0,563.138,873.239Z" transform="translate(-456.955 -762.862)"/><path class="i" d="M557.013,873.613l-.136-.252a36.646,36.646,0,0,0-10.787-13.387,33.473,33.473,0,0,0-18.7-6.208c-29.083-1.3-36.591-6.693-36.9-6.926l-.1-.058-.039-.1c-3.4-8.983,3.667-15.7,6.674-18.567l.252-.233c1.9-1.824,3.706-3.531,9.1-3.589,5.859-.058,15.463,1.843,30.208,6.014,8.459,2.386,15.385,7.605,20.624,15.5,4,6.034,6.984,13.465,9.138,22.758l.058.213-.175.155a18.007,18.007,0,0,1-8.963,4.637Zm-65.964-27.336c.912.6,9.254,5.491,36.377,6.713a33.987,33.987,0,0,1,19.13,6.364,36.887,36.887,0,0,1,10.884,13.406,17.344,17.344,0,0,0,8.129-4.249c-2.134-9.08-5.064-16.375-8.983-22.273-5.141-7.76-11.932-12.863-20.2-15.211-14.687-4.152-24.213-6.053-29.994-5.995-5.1.058-6.713,1.591-8.575,3.376l-.252.233a27.67,27.67,0,0,0-5.82,7.256A12.357,12.357,0,0,0,491.049,846.276Z" transform="translate(-455.35 -761.334)"/><path class="o" d="M541.587,692.687a10.168,10.168,0,0,1,1.8-4.947c-5.258-4.812-8.692-12.766-10.535-15.036-3.88-4.85-4.656,1.746-4.656,1.746s0,1.552,2.91,11.447a24.11,24.11,0,0,0,2.464,5.529,49.979,49.979,0,0,0,5.84,4.035A3.7,3.7,0,0,0,541.587,692.687Z" transform="translate(-486.584 -637.719)"/><path class="j" d="M863.944,1073.948c-.97-1.164-9.507,4.288-12.223,1.377-1.183-1.261-1.494-11.059-4.152-22.525a17.7,17.7,0,0,1-8.769,4.54c4.385,8.808,6.131,18.819,7.295,26.134C847.278,1087.936,864.914,1075.112,863.944,1073.948Z" transform="translate(-736.924 -945.508)"/><path class="k" d="M864.063,1086.9c-2.173,1.2-5.18,3.434-8.808,4.773-6.79,2.522-7.567-6.208-10.283-17.461a41.557,41.557,0,0,0-1.766-5.51,15.62,15.62,0,0,1-4.307,1.455c4.385,8.808,6.131,18.819,7.295,26.134C847.32,1100.615,863.889,1088.7,864.063,1086.9Z" transform="translate(-737.004 -958.323)"/><path class="i" d="M845.151,1081.83a2.226,2.226,0,0,1-.369-.019,1.563,1.563,0,0,1-1.474-1.2v-.039c-1.3-8.129-3.046-17.539-7.276-26.017l-.233-.466.5-.1a17.289,17.289,0,0,0,8.575-4.443l.485-.446.155.64c1.358,5.84,2.115,11.311,2.658,15.308.485,3.492.892,6.5,1.4,7.023,1.494,1.61,5.316.252,8.09-.737,2.231-.8,3.589-1.281,4.133-.621h0a.731.731,0,0,1,0,.834c-.621,1.125-3.822,3.764-7.45,6.131C851.942,1079.269,847.635,1081.811,845.151,1081.83Zm-1.086-1.416c.058.194.213.679,1.242.621,1.843-.078,5.374-1.785,9.468-4.559,3.744-2.522,6.014-4.637,6.364-5.3a12.46,12.46,0,0,0-3.182.892c-3.143,1.125-7.082,2.5-8.925.543-.64-.679-.97-2.891-1.591-7.45-.524-3.841-1.242-9.041-2.5-14.609a18.115,18.115,0,0,1-7.955,4.094C841.058,1063.108,842.784,1072.362,844.065,1080.414Zm17.17-9.2Zm-.019,0Z" transform="translate(-734.506 -942.526)"/><path class="n" d="M390.767,628.245s8.537-4.656,20.177,16.1,17.073,18.431,17.849,19.983-18.431,1.358-26.774,14.939c-3.1,6.208-.388,9.895-4.462,8.537s-15.133-6.6-20.177-23.088S379.515,629.8,390.767,628.245Z" transform="translate(-363.703 -602.962)"/><path class="o" d="M429.407,728.763c-4.617-1.048-15.172-2.794-23.864.6-11.447,4.462-20.177-2.328-17.267-11.059s3.686-11.835.582-10.477c-2.522,1.106-9.7,5.3-12.359,13.329a38.074,38.074,0,0,0,1.494,7.819c5.044,16.491,16.1,21.729,20.177,23.088s1.358-2.328,4.462-8.537C410.627,730.509,428.631,730.14,429.407,728.763Z" transform="translate(-364.316 -667.219)"/><path class="i" d="M397.3,688.7a5,5,0,0,1-1.474-.291,28.248,28.248,0,0,1-9.856-5.956,37.977,37.977,0,0,1-10.554-17.4c-3.065-10.011-1.8-21.535,3.182-29.354,2.794-4.365,6.519-7.062,10.516-7.625a.364.364,0,0,1,.427.33.377.377,0,0,1-.33.427c-3.764.524-7.314,3.1-9.972,7.275-4.889,7.644-6.092,18.916-3.1,28.714,1.3,4.229,6.558,18.373,19.925,22.835.834.272,1.358.33,1.63.175.349-.213.427-.97.563-2a18.612,18.612,0,0,1,1.8-6.5l.019-.039c6.111-9.953,18-12.611,23.708-13.891a16.152,16.152,0,0,0,2.949-.8,3.25,3.25,0,0,0-.873-.427c-2.289-.912-7.683-3.046-16.86-19.421a66.516,66.516,0,0,0-4.191-6.616.39.39,0,0,1,.64-.446,70.484,70.484,0,0,1,4.229,6.693c9.041,16.122,14.26,18.2,16.472,19.071.66.272,1.145.446,1.378.931a.575.575,0,0,1,0,.5c-.233.485-1.106.718-3.589,1.261-5.607,1.261-17.267,3.861-23.2,13.523a17.445,17.445,0,0,0-1.727,6.247c-.155,1.261-.252,2.154-.912,2.561A1.38,1.38,0,0,1,397.3,688.7Zm29.548-23.98Z" transform="translate(-362.108 -603.18)"/><path class="n" d="M358.77,636.8a33.652,33.652,0,0,0-17.791,28.384c-.349,6.344,1.048,11.408,3.473,15.191,3.027-9.119,8.944-11.874,11.272-12.611a15.412,15.412,0,0,1-.194-3.356,20.674,20.674,0,0,1,6.014-13.581" transform="translate(-335.644 -610.217)"/><path class="o" d="M358.77,635.655a33.652,33.652,0,0,0-17.791,28.384c-.349,6.344,1.048,11.408,3.473,15.191,3.007-9.06,8.866-11.815,11.233-12.591-1.358-2.658-10.166,1.843-6.344-12.882,3.4-13.038,10.186-17.325,11.835-18.2A3.35,3.35,0,0,0,358.77,635.655Z" transform="translate(-335.644 -609.072)"/><path class="i" d="M342.858,679.659l-.446-.679c-2.639-4.132-3.861-9.468-3.531-15.424a34.373,34.373,0,0,1,9.429-22.214,31.289,31.289,0,0,1,8.575-6.5.369.369,0,0,1,.5.194.415.415,0,0,1-.194.524,31.167,31.167,0,0,0-8.362,6.344,33.508,33.508,0,0,0-9.2,21.71,25.28,25.28,0,0,0,2.988,14.26c3.007-8.265,8.4-11.078,10.942-11.971a14.711,14.711,0,0,1-.136-3.1,20.876,20.876,0,0,1,6.15-13.853.376.376,0,0,1,.543.039.392.392,0,0,1-.019.543,20.377,20.377,0,0,0-5.879,13.309,13.754,13.754,0,0,0,.194,3.279l.058.33-.33.1c-2.328.737-8.071,3.434-11.02,12.359Z" transform="translate(-333.953 -608.608)"/><path class="j" d="M382.983,795.764c10.865-7.178,9.507-20.953,16.879-19.4,2.522.776,1.746-2.91-1.164-3.1s-7.178-1.552-16.3,6.6c-6,5.355-10.962,3.686-12.029-2.27-2.328.737-8.246,3.492-11.272,12.611A17.183,17.183,0,0,0,382.983,795.764Z" transform="translate(-350.292 -720.038)"/><path class="k" d="M399.782,784.9c.892.272,1.358,0,1.494-.485-9.177-4.753-15.463,14.066-25.552,15.618-7.605,1.164-12.126-4.385-13.891-7.178A24.408,24.408,0,0,0,359,798.73a17.183,17.183,0,0,0,23.883,5.568C393.767,797.12,392.409,783.345,399.782,784.9Z" transform="translate(-350.211 -728.572)"/><path class="i" d="M372.091,797.221a17.209,17.209,0,0,1-3.589-.369,18.078,18.078,0,0,1-11.5-8.071l-.1-.155.058-.175c3.065-9.254,9.08-12.068,11.524-12.863l.427-.136.078.427c.466,2.58,1.688,4.326,3.453,4.947,2.192.757,5.006-.272,7.935-2.891,8.4-7.508,12.8-7.062,15.734-6.771.291.039.582.058.834.078a3.284,3.284,0,0,1,2.891,1.96,1.576,1.576,0,0,1-.155,1.649,1.5,1.5,0,0,1-1.688.252c-3.279-.679-4.656,1.882-6.79,6.441-1.94,4.152-4.365,9.313-9.778,12.9A16.913,16.913,0,0,1,372.091,797.221Zm-14.357-8.711a17.232,17.232,0,0,0,10.9,7.567,16.169,16.169,0,0,0,12.339-2.27l.213.33-.213-.33c5.238-3.453,7.605-8.517,9.507-12.572,2.018-4.327,3.609-7.741,7.664-6.887h.039c.427.136.757.116.912-.039a.831.831,0,0,0,0-.834A2.523,2.523,0,0,0,396.886,772c-.272-.019-.563-.039-.873-.078-2.794-.272-7-.7-15.152,6.577-3.143,2.813-6.247,3.9-8.711,3.046-1.94-.66-3.3-2.464-3.88-5.1C365.786,777.373,360.547,780.206,357.734,788.51Z" transform="translate(-348.519 -718.41)"/><path class="j" d="M428.286,614.959s3.492,10.166,9.448,11.738c4.443.931,4.385-3.337,2.328-5.355s-1.9-6.48-1.9-6.48S428.073,611.312,428.286,614.959Z" transform="translate(-406.052 -591.287)"/><path class="k" d="M460.75,624.4a11.578,11.578,0,0,0-3.3,1.688c-3.3,2.328,1.358,4.462,3.686,5.432a3.1,3.1,0,0,1,1.94,3.3c.1.116.194.213.272.291,1.164-1.145.679-3.492-.7-4.831C461.041,628.727,460.789,625.68,460.75,624.4Z" transform="translate(-428.641 -600.223)"/><path class="i" d="M437.283,625.563a6.048,6.048,0,0,1-1.242-.136c-2.6-.679-5.025-2.91-7.217-6.635a32.62,32.62,0,0,1-2.522-5.355l-.019-.058v-.058a1.7,1.7,0,0,1,.66-1.513c.931-.7,2.871-.737,5.743-.1a35.773,35.773,0,0,1,3.977,1.125l.272.1v.291c0,.039-.116,4.307,1.785,6.189a4.385,4.385,0,0,1,1.145,4.812A2.735,2.735,0,0,1,437.283,625.563Zm-10.224-12.32c.272.776,3.686,9.992,9.157,11.427,1.474.31,2.5.039,2.949-.815a3.6,3.6,0,0,0-.989-3.88c-1.882-1.824-2.018-5.432-2.037-6.48-2.173-.737-7.275-2.134-8.731-1.048A.912.912,0,0,0,427.059,613.243Z" transform="translate(-404.437 -589.629)"/><path class="j" d="M424.455,543.749s-1.067,2.871,2.871,6.693,4.307,10.05-.989,11.815c-5.3,1.746-8.265-2.231-10.3-5.219C414,554.07,411.844,543.322,424.455,543.749Z" transform="translate(-394.926 -535.209)"/><path class="k" d="M423.066,548.468a12.141,12.141,0,0,1-1.028-4.714c-11.272-.388-11.408,9.507-9.856,13.755a15.375,15.375,0,0,0,3.9,3.822c.97.252,2.328-.252.194-2.774s-2.716-6.6-1.746-5.044,2.134,3.1,3.492,3.1.194-1.746-.776-5.432C416.663,548.992,420.369,548.662,423.066,548.468Z" transform="translate(-392.509 -535.214)"/><path class="i" d="M422.19,561.641a6.606,6.606,0,0,1-.873-.058.381.381,0,1,1,.1-.757,7.291,7.291,0,0,0,3.162-.369,5.073,5.073,0,0,0,3.57-3.686c.543-2.406-.5-5.335-2.716-7.469-3.143-3.065-3.221-5.568-3.085-6.6-4.132-.058-6.907,1.145-8.246,3.57-1.766,3.2-.466,7.528.621,9.138a.39.39,0,1,1-.64.446c-1.183-1.746-2.6-6.441-.66-9.953,1.533-2.794,4.715-4.113,9.41-3.958l.543.019-.194.5c-.039.1-.912,2.716,2.774,6.286,2.386,2.328,3.531,5.529,2.93,8.187a5.784,5.784,0,0,1-4.074,4.249A8.536,8.536,0,0,1,422.19,561.641Z" transform="translate(-393.302 -533.759)"/><g transform="translate(14.286)"><path class="i" d="M396.038,526.732c-11.427-7.372-5.238-14.008-2.91-15.987a1.287,1.287,0,0,0,.427-1.378,3.331,3.331,0,0,1,1.475-3.841c3.783-2.58,7.741.466,7.178-.136s-1.61-3.744,2.27-3.609c5.82.194,4.113,9.953-.31,10.186-5.51.291-6.538,2.192-6.538,2.192-1.824,2.076,2.852,7.081,1.669,7.819s-2.464-1.843-3.609-2.464-.427,2.871,2.231,6.519C397.94,526.053,399.841,528.808,396.038,526.732Z" transform="translate(-388.963 -501.391)"/><path class="i" d="M396.407,526.289a5.58,5.58,0,0,1-2.192-.815l-.019-.019c-4.346-2.813-6.635-5.82-6.849-8.944-.1-1.552.272-4.6,3.9-7.664a.93.93,0,0,0,.31-.97,3.678,3.678,0,0,1,1.61-4.249,6.83,6.83,0,0,1,6.616-.524,2.787,2.787,0,0,1,.039-1.979c.291-.64,1.067-1.4,3.027-1.339,2.988.1,4.074,2.483,4.094,4.676.019,2.91-1.727,6.131-4.385,6.267-5.141.272-6.208,1.979-6.228,2l-.039.058c-.873.989.175,3.046,1.009,4.7.776,1.513,1.378,2.7.563,3.2-1.048.64-1.979-.407-2.813-1.339a5.617,5.617,0,0,0-1.125-1.067c-.078.66.64,3.1,2.677,5.917.272.388.834,1.319.388,1.843A.664.664,0,0,1,396.407,526.289Zm-1.8-1.494a4.543,4.543,0,0,0,1.785.718,2.513,2.513,0,0,0-.407-.854c-2.076-2.852-3.318-6.17-2.619-6.984a.677.677,0,0,1,.892-.1,5.81,5.81,0,0,1,1.378,1.261c.8.873,1.378,1.475,1.843,1.2.136-.233-.485-1.455-.854-2.192-.951-1.843-2.115-4.132-.931-5.529.194-.31,1.572-2.076,6.829-2.348,2.192-.116,3.686-2.988,3.667-5.491,0-.892-.272-3.8-3.337-3.919-.854-.019-1.94.1-2.309.873a2.287,2.287,0,0,0,.33,2.076.408.408,0,0,1,.078.563c-.194.272-.466.155-.757.019-.951-.427-3.8-1.746-6.577.136a2.949,2.949,0,0,0-1.319,3.4,1.7,1.7,0,0,1-.543,1.785c-3.492,2.949-3.706,5.9-3.628,7.023C388.316,519.324,390.489,522.137,394.6,524.8Zm-.776-6.538Z" transform="translate(-387.333 -499.784)"/></g><g transform="translate(107.483 127.237)"><path class="i" d="M876.787,1160.921a4.774,4.774,0,0,1-.679-1.921,22.234,22.234,0,0,1-6.208,2.891c.5,2.561.912,5.006,1.261,7.178,1.164,4.462,18.8-8.362,17.83-9.526C888.04,1158.379,879.5,1163.812,876.787,1160.921Z" transform="translate(-869.473 -1158.34)"/><path class="i" d="M870.862,1167.668a2.227,2.227,0,0,1-.369-.019,1.563,1.563,0,0,1-1.474-1.2v-.039c-.349-2.212-.757-4.617-1.261-7.159l-.058-.349.33-.1a21.633,21.633,0,0,0,6.092-2.852l.485-.349.116.582a4.126,4.126,0,0,0,.582,1.746h0c1.494,1.61,5.316.252,8.09-.737,2.231-.8,3.589-1.281,4.133-.621a.73.73,0,0,1,0,.834c-.621,1.125-3.822,3.764-7.45,6.131C877.653,1165.107,873.346,1167.648,870.862,1167.668Zm-1.086-1.416c.058.194.213.679,1.242.621,1.843-.078,5.374-1.785,9.468-4.559,3.744-2.542,6.014-4.637,6.364-5.3a12.989,12.989,0,0,0-3.2.892c-3.143,1.125-7.081,2.5-8.925.543a3.384,3.384,0,0,1-.64-1.552,23.353,23.353,0,0,1-5.51,2.522C869.058,1161.847,869.446,1164.137,869.776,1166.251Z" transform="translate(-867.7 -1155.6)"/></g><g transform="translate(73.415 98.348)"><path class="i" d="M707.2,1026.075c-4.288-4.23-5.335-8.44-4.559-12.4h0c-3.589-.563-5.219-3.706-5.626-3.977-1.048,2.639-2.057,5.083-2.813,7.062C696.528,1024.523,712.825,1030.149,707.2,1026.075Z" transform="translate(-693.793 -1009.118)"/><path class="i" d="M706.341,1025.4h-.019c-2.212-.039-12.359-4.889-14.182-10.942l-.039-.136.039-.116c.543-1.436,1.222-3.124,1.96-4.909.291-.7.563-1.416.873-2.154l.175-.446.388.252a2.978,2.978,0,0,1,.485.543,7.991,7.991,0,0,0,4.986,3.376l.388.058-.078.388c-.834,4.249.66,8.3,4.423,12.029,1.067.776,1.416,1.242,1.281,1.649C706.981,1025.189,706.806,1025.4,706.341,1025.4Zm-.039-.5Zm-13.387-10.535c1.8,5.626,11.039,9.933,13.154,10.263a6.368,6.368,0,0,0-.8-.64l-.039-.039c-3.88-3.822-5.471-7.974-4.734-12.359a8.782,8.782,0,0,1-5.044-3.55c-.213.524-.427,1.048-.621,1.552C694.118,1011.318,693.458,1012.947,692.915,1014.364Z" transform="translate(-692.1 -1006.7)"/></g><path class="i" d="M461.968,577.586a.4.4,0,0,1-.369-.252.387.387,0,0,1,.233-.5,1.837,1.837,0,0,0,.97-.737.251.251,0,0,0-.155-.039,6.176,6.176,0,0,1-2.561-1.824.384.384,0,0,1,.563-.524,6.159,6.159,0,0,0,2.134,1.591c.66.116.776.543.776.718.058.64-.7,1.261-1.455,1.552A.288.288,0,0,1,461.968,577.586Zm.854-1.475Z" transform="translate(-431.605 -559.268)"/><ellipse class="p" cx="0.582" cy="0.582" rx="0.582" ry="0.582" transform="translate(26.269 14.632)"/><ellipse class="p" cx="0.582" cy="0.582" rx="0.582" ry="0.582" transform="translate(29.8 13.545)"/><g transform="translate(28.135 19.657)"><path class="i" d="M463.3,603.072a3.12,3.12,0,0,1-1.96.272c-1.3-.136-.815,1.8.97,1.669S463.634,602.936,463.3,603.072Z" transform="translate(-460.243 -602.684)"/><path class="i" d="M460.635,603.836a1.979,1.979,0,0,1-1.727-.873,1.147,1.147,0,0,1-.058-1.164,1.014,1.014,0,0,1,1.028-.407,3,3,0,0,0,1.707-.213l.058-.039a.487.487,0,0,1,.543.116,1.557,1.557,0,0,1,.213,1.513,1.635,1.635,0,0,1-1.552,1.067A.782.782,0,0,0,460.635,603.836Zm-.931-1.688c-.1,0-.175.019-.194.058a.425.425,0,0,0,.058.349,1.307,1.307,0,0,0,1.222.5.9.9,0,0,0,.854-.485.956.956,0,0,0,.058-.6,4.05,4.05,0,0,1-1.9.194A.211.211,0,0,0,459.7,602.148Z" transform="translate(-458.718 -601.1)"/></g></g><g transform="translate(91.851 28.128)"><path class="c" d="M754.1,441.864l-21.885,6.4a.983.983,0,0,1-1.164-1.3l7.858-22.137a3.756,3.756,0,0,1,6.383-1.319l10.574,11.854A4.019,4.019,0,0,1,754.1,441.864Z" transform="translate(-730.604 -420.538)"/><path class="b" d="M756.388,438.527a3.878,3.878,0,0,0,2.406-2.425.518.518,0,0,0-.058-.446l-.233-.291L747.929,423.51a3.756,3.756,0,0,0-6.383,1.319l-7.276,20.507a.452.452,0,0,0,.543.6h0Z" transform="translate(-733.227 -420.538)"/><path class="d" d="M730.356,447.118a1.312,1.312,0,0,1-.951-.427,1.353,1.353,0,0,1-.291-1.436l7.838-22.117a4.24,4.24,0,0,1,3.162-2.774,4.094,4.094,0,0,1,3.88,1.319l10.574,11.854a4.409,4.409,0,0,1,.931,4.171,4.252,4.252,0,0,1-2.891,2.949l-.116-.369.116.369-21.885,6.4A1.218,1.218,0,0,1,730.356,447.118Zm10.554-26.056a3.573,3.573,0,0,0-.64.058,3.409,3.409,0,0,0-2.58,2.27l-7.858,22.137a.6.6,0,0,0,.136.64.547.547,0,0,0,.543.155l21.885-6.4a3.5,3.5,0,0,0,2.367-2.425,3.656,3.656,0,0,0-.776-3.453l-10.574-11.854A3.388,3.388,0,0,0,740.91,421.062Z" transform="translate(-729.022 -418.962)"/><path class="q" d="M775.308,437.874a15.943,15.943,0,0,0,.834-8.808,17.39,17.39,0,0,0-4.133-8.42,16.366,16.366,0,0,0-8.11-5.025,14.187,14.187,0,0,0-8.847.5,2.463,2.463,0,0,0-1.222,3.337,3.075,3.075,0,0,0,.5.8,2.559,2.559,0,0,0,2.813.757,9.464,9.464,0,0,1,5.917-.33,10.943,10.943,0,0,1,5.432,3.356,11.91,11.91,0,0,1,1.707,2.5,1.615,1.615,0,0,1-.951,2.289l-2.348.679a1.349,1.349,0,0,0-.892,1.727,1.276,1.276,0,0,0,1.533.834l3.124-.892a.619.619,0,0,1,.776.621v.019a.629.629,0,0,1-.446.6l-8.537,2.445a1.09,1.09,0,0,0,.6,2.1l7.081-2.037a.5.5,0,0,1,.582.679h0a2.814,2.814,0,0,0,1.378,3.492A2.33,2.33,0,0,0,775.308,437.874Z" transform="translate(-748.829 -414.821)"/><path class="c" d="M775.272,437.932a2.352,2.352,0,0,0,2.755-.407,15.78,15.78,0,0,0,.679-8.459,17.39,17.39,0,0,0-4.133-8.42,16.366,16.366,0,0,0-8.11-5.025,14.187,14.187,0,0,0-8.847.5,2.217,2.217,0,0,0-.737.485,2.744,2.744,0,0,0,.155,1.746,3.075,3.075,0,0,0,.5.8,2.559,2.559,0,0,0,2.813.757,9.464,9.464,0,0,1,5.917-.33,10.942,10.942,0,0,1,5.432,3.356,11.911,11.911,0,0,1,1.707,2.5,1.629,1.629,0,0,1-.466,2.037,1.552,1.552,0,0,1-1.125,1.358l-2.348.679a1.03,1.03,0,0,0-.33.155,1.3,1.3,0,0,0,.078.466,1.276,1.276,0,0,0,1.533.834l3.124-.892a.619.619,0,0,1,.776.621v.019a.629.629,0,0,1-.446.6l-.33.1a.609.609,0,0,1,.136.407v.019a.629.629,0,0,1-.446.6l-8.537,2.445c-.039.019-.1.039-.136.058a.825.825,0,0,0,.039.213,1.074,1.074,0,0,0,1.319.718l7.081-2.037a.5.5,0,0,1,.582.679h0A2.76,2.76,0,0,0,775.272,437.932Z" transform="translate(-751.413 -414.821)"/><path class="d" d="M771.47,438.375a2.846,2.846,0,0,1-1.3-.31,3.2,3.2,0,0,1-1.552-3.977.1.1,0,0,0-.019-.136c-.039-.039-.078-.039-.1-.019l-7.081,2.037a1.455,1.455,0,0,1-1.785-.97,1.526,1.526,0,0,1,.116-1.164,1.419,1.419,0,0,1,.873-.7l8.537-2.445a.218.218,0,0,0,.155-.233.25.25,0,0,0-.1-.213.236.236,0,0,0-.175-.039l-3.124.892a1.675,1.675,0,0,1-2.018-1.067,1.744,1.744,0,0,1,.1-1.358,1.7,1.7,0,0,1,1.048-.854l2.348-.679a1.134,1.134,0,0,0,.737-.66,1.212,1.212,0,0,0-.039-1.067,10.8,10.8,0,0,0-1.649-2.406,10.593,10.593,0,0,0-5.238-3.24,9.157,9.157,0,0,0-5.685.31,2.941,2.941,0,0,1-3.24-.854,3.3,3.3,0,0,1-.563-.892,3.088,3.088,0,0,1-.039-2.386,2.647,2.647,0,0,1,1.474-1.455,14.494,14.494,0,0,1,9.08-.524,16.633,16.633,0,0,1,8.3,5.141,17.756,17.756,0,0,1,4.229,8.614,16.329,16.329,0,0,1-.854,9.022h0a2.674,2.674,0,0,1-1.533,1.513A4.33,4.33,0,0,1,771.47,438.375Zm-2.949-5.258a.879.879,0,0,1,.8,1.222,2.419,2.419,0,0,0,1.183,3.007,2,2,0,0,0,1.63.116,1.954,1.954,0,0,0,1.086-1.067h0a15.523,15.523,0,0,0,.815-8.595A17.024,17.024,0,0,0,770,419.575a16.012,16.012,0,0,0-7.916-4.889,13.8,13.8,0,0,0-8.595.485,1.977,1.977,0,0,0-1.048,1.048,2.285,2.285,0,0,0,.039,1.785,2.687,2.687,0,0,0,.427.679,2.131,2.131,0,0,0,2.367.64,9.779,9.779,0,0,1,6.15-.349,11.208,11.208,0,0,1,5.607,3.473,11.7,11.7,0,0,1,1.766,2.58,2.066,2.066,0,0,1,.058,1.727,1.906,1.906,0,0,1-1.242,1.106l-2.348.679a.991.991,0,0,0-.582.466,1.021,1.021,0,0,0-.058.757.9.9,0,0,0,1.067.582l3.124-.892a1.075,1.075,0,0,1,.873.155,1.049,1.049,0,0,1,.407.815,1.031,1.031,0,0,1-.718.989l-8.537,2.445a.621.621,0,0,0-.407.33.711.711,0,0,0-.058.563.663.663,0,0,0,.834.446l7.082-2.037A.973.973,0,0,1,768.521,433.117Z" transform="translate(-747.107 -413.479)"/><ellipse class="e" cx="2.212" cy="2.134" rx="2.212" ry="2.134" transform="matrix(0.014, -1, 1, 0.014, 7.158, 14.695)"/><ellipse class="e" cx="1.028" cy="0.989" rx="1.028" ry="0.989" transform="matrix(0.014, -1, 1, 0.014, 4.069, 21.713)"/><ellipse class="e" cx="0.64" cy="0.621" rx="0.64" ry="0.621" transform="matrix(0.014, -1, 1, 0.014, 2.68, 25.516)"/><ellipse class="e" cx="0.64" cy="0.621" rx="0.64" ry="0.621" transform="matrix(0.014, -1, 1, 0.014, 10.9, 8.015)"/><ellipse class="e" cx="0.854" cy="0.834" rx="0.854" ry="0.834" transform="matrix(0.014, -1, 1, 0.014, 13.006, 17.158)"/><path class="e" d="M769.642,508.736a1.864,1.864,0,0,0-.427-1.028,1.624,1.624,0,0,0-2.348-.1,1.754,1.754,0,0,0-.1,2.425,1.641,1.641,0,0,0,2.348.1l-1.125-1.261Z" transform="translate(-759.092 -488.981)"/><path class="e" d="M808.777,463.3a1.782,1.782,0,0,1,.873.737,1.8,1.8,0,0,1-.563,2.445,1.687,1.687,0,0,1-2.367-.582,1.8,1.8,0,0,1,.563-2.445l.892,1.513Z" transform="translate(-791.436 -453.634)"/></g><g transform="translate(11.974 136.801)"><path class="b" d="M343.532,1136.7s-11.233-16.123-17.578-7S338,1148.261,344.677,1146.3C351.351,1144.362,343.532,1136.7,343.532,1136.7Z" transform="translate(-323.222 -1097.16)"/><path class="c" d="M349.939,1146.475a7.463,7.463,0,0,0,.989-.194,3.344,3.344,0,0,0,.407-.136,61.033,61.033,0,0,0-2.154-10.321c-2.425-3.162-11.311-13.756-16.782-6.4C336.959,1132.1,346.582,1138.113,349.939,1146.475Z" transform="translate(-329.474 -1097.139)"/><path class="d" d="M341.08,1145.329c-5.044,0-13.115-3.531-16.666-8.478-2.212-3.065-2.328-6.17-.369-8.983a6.064,6.064,0,0,1,5.064-2.968h0c2.6,0,5.607,1.688,8.944,5.006a41.157,41.157,0,0,1,4.191,4.928c.407.407,4.6,4.656,3.841,7.722-.291,1.183-1.261,2.018-2.891,2.5A7.164,7.164,0,0,1,341.08,1145.329Zm-11.99-19.653h0a5.34,5.34,0,0,0-4.423,2.639c-1.785,2.561-1.669,5.277.369,8.09a21.036,21.036,0,0,0,8.808,6.461c3.57,1.513,7.062,2.076,9.138,1.474a2.991,2.991,0,0,0,2.348-1.94c.272-1.106-.252-2.658-1.533-4.5a18.423,18.423,0,0,0-2.115-2.522l-.039-.058C341.545,1135.221,334.833,1125.676,329.09,1125.676Z" transform="translate(-321.623 -1095.548)"/><path class="b" d="M430.345,1083.78s12.533-20.682,21.826-14.823-13.193,30.13-24.271,29.8A109.883,109.883,0,0,0,430.345,1083.78Z" transform="translate(-406.445 -1049.616)"/><path class="c" d="M452.493,1068.956a7.009,7.009,0,0,0-6.228-.582c.679,2.5,3.376,16.588-17.946,30.014a.071.071,0,0,1-.019.058,11.831,11.831,0,0,0,1.688.175C441.493,1096.68,461.3,1074.524,452.493,1068.956Z" transform="translate(-406.768 -1049.615)"/><path class="d" d="M426.1,1097.466h-.233l-.466-.019.1-.466a110.726,110.726,0,0,0,2.425-14.92v-.1l.039-.078a62.673,62.673,0,0,1,5.219-7.159c4.171-4.947,8.013-7.858,11.466-8.672a7.23,7.23,0,0,1,5.685.873c2.289,1.436,2.949,4.035,1.882,7.508-1.358,4.462-5.588,10.244-11.039,15.114C435.644,1094.537,430.018,1097.466,426.1,1097.466Zm2.619-15.249a114.435,114.435,0,0,1-2.328,14.473c3.725-.136,9.022-2.968,14.318-7.7,5.355-4.773,9.487-10.438,10.807-14.764.951-3.143.427-5.355-1.552-6.616a6.415,6.415,0,0,0-5.083-.776C437.312,1068.616,429.4,1081.13,428.718,1082.217Z" transform="translate(-404.43 -1047.937)"/><path class="b" d="M413.4,1026.691c2.7-4.171,22.292-35.679,8.168-46.777-9.6-5.7-16.491,17.655-8.614,46.7A.248.248,0,0,0,413.4,1026.691Z" transform="translate(-391.637 -977.995)"/><path class="c" d="M429.366,979.929a5.119,5.119,0,0,0-3.667-.776c1.416,7.043,3.027,21.749-4.016,35.66-.97,1.94-1.8,3.686-2.483,5.3.427,2.134.951,4.326,1.552,6.538a.248.248,0,0,0,.446.078C423.876,1022.534,443.49,991.026,429.366,979.929Z" transform="translate(-399.433 -978.01)"/><path class="d" d="M411.5,1025.589h-.1a.646.646,0,0,1-.524-.466c-6.208-22.874-3.3-42.159,2.93-46.912a5.231,5.231,0,0,1,6.247-.233l.039.039c3.337,2.619,5.083,6.558,5.219,11.7a42.341,42.341,0,0,1-2.871,14.726A108.406,108.406,0,0,1,412,1025.317h0A.606.606,0,0,1,411.5,1025.589Zm-.116-.718Zm5.646-47.048a4.477,4.477,0,0,0-2.736.989c-3.027,2.289-5.161,8.207-5.84,16.219-.757,8.789.349,19.285,3.1,29.568,2.968-4.676,21.691-35.252,8.11-45.962A5.2,5.2,0,0,0,417.03,977.823Z" transform="translate(-389.949 -976.389)"/><path class="b" d="M340.347,1024.019c.019.058.116.058.116,0,.388-3.841,3.589-39.152-7.043-46.078-11.233-7.334-15.967,4.229-13.348,11.078C322.653,995.809,336.642,1009.021,340.347,1024.019Z" transform="translate(-318.97 -975.207)"/><path class="c" d="M350.928,1024.021c.019-.019.019-.039.039-.058.407-4.074,3.531-39.132-7.043-46.02-5.335-3.492-9.216-2.7-11.524-.175C337,980.1,350.521,989.836,350.928,1024.021Z" transform="translate(-329.474 -975.209)"/><path class="d" d="M338.752,1022.868a.434.434,0,0,1-.427-.349h0c-2.328-9.468-8.75-18.14-13.891-25.105-2.91-3.938-5.413-7.334-6.383-9.856-1.649-4.307-.427-9.895,2.736-12.436,3.822-3.085,8.653-.757,11.195.892,10.807,7.043,7.605,42.431,7.217,46.427a.455.455,0,0,1-.407.407A.06.06,0,0,1,338.752,1022.868Zm-13.581-48.484a6.066,6.066,0,0,0-3.9,1.358c-2.91,2.348-4.035,7.528-2.5,11.544.931,2.425,3.4,5.782,6.267,9.662,4.87,6.6,10.845,14.706,13.542,23.611a162.126,162.126,0,0,0,.446-20c-.6-12.844-3.182-21.089-7.469-23.883A11.869,11.869,0,0,0,325.171,974.384Z" transform="translate(-317.316 -973.61)"/><path class="d" d="M426.8,1027.344l-.7-.349c5.762-11.7,7.295-23.961,7.567-32.167a83.249,83.249,0,0,0-.8-15.191l.757-.136a81.6,81.6,0,0,1,.815,15.346C434.19,1003.131,432.638,1015.509,426.8,1027.344Z" transform="translate(-404.995 -978.357)"/><path class="d" d="M350.242,1032.536l-.019-.621a110.936,110.936,0,0,0-2.794-19.925c-2.27-9.526-6.868-21.807-15.928-26.192l.33-.7c4.132,2,7.7,5.723,10.632,11.059a62.912,62.912,0,0,1,5.7,15.657,114.753,114.753,0,0,1,2.774,19.44c11.874-6.868,23.961-28.248,24.1-28.462l.679.388c-.136.233-12.708,22.447-24.95,29.063Z" transform="translate(-328.748 -982.871)"/><path class="d" d="M350.2,1156.5c-6.693-11.466-18.586-16.239-18.7-16.278l.291-.718c.116.039,12.262,4.909,19.091,16.608Z" transform="translate(-328.748 -1107.315)"/></g></svg>