<svg xmlns="http://www.w3.org/2000/svg" width="37.592" height="29.53" viewBox="0 0 37.592 29.53"><defs><style>.a{fill:#fff;}</style></defs><path class="a" d="M3.61,10.052q.713.5,4.3,2.988t5.5,3.828c.139.1.437.312.891.64s.833.594,1.132.8.664.429,1.091.682a6.32,6.32,0,0,0,1.207.565,3.312,3.312,0,0,0,1.049.189h.044a3.32,3.32,0,0,0,1.049-.189,6.434,6.434,0,0,0,1.207-.565c.426-.251.791-.479,1.091-.682s.679-.468,1.132-.8.752-.541.891-.64Q26.118,15.525,34,10.052a10.027,10.027,0,0,0,2.559-2.579A5.535,5.535,0,0,0,37.59,4.307a3.214,3.214,0,0,0-1-2.37A3.243,3.243,0,0,0,34.235.952H3.362A2.992,2.992,0,0,0,.877,2.043,4.237,4.237,0,0,0,.005,4.771,4.907,4.907,0,0,0,1.159,7.634a10.435,10.435,0,0,0,2.454,2.423M35.49,12.3q-6.878,4.655-10.444,7.236-1.2.88-1.941,1.374a12.06,12.06,0,0,1-1.983,1.007,6.037,6.037,0,0,1-2.307.514h-.044a6.037,6.037,0,0,1-2.307-.514,12.06,12.06,0,0,1-1.983-1.007q-.746-.493-1.941-1.374Q9.709,17.454,2.117,12.3A11.066,11.066,0,0,1,0,10.47V27.125A3.232,3.232,0,0,0,.983,29.5a3.233,3.233,0,0,0,2.37.987H34.226a3.366,3.366,0,0,0,3.355-3.357V10.47a11.533,11.533,0,0,1-2.1,1.825" transform="translate(0.002 -0.952)"/></svg>