<svg xmlns="http://www.w3.org/2000/svg" width="17.902" height="18.022" viewBox="0 0 17.902 18.022"><defs><style>.a{fill:#fff;}</style></defs><path class="a" d="M521.177,407.121a.827.827,0,1,1-1.653,0,7.565,7.565,0,0,0-7.556-7.557.827.827,0,1,1,0-1.654A9.22,9.22,0,0,1,521.177,407.121Zm-5.83,0a.827.827,0,1,0,1.654,0,5.039,5.039,0,0,0-5.033-5.033.827.827,0,1,0,0,1.654A3.384,3.384,0,0,1,515.347,407.121Zm2.272,5.589-1.4-1.047a.847.847,0,0,0-.957-.026,2.442,2.442,0,0,1-2.826.042l-4.9-4.9a2.441,2.441,0,0,1,.043-2.828.845.845,0,0,0-.025-.954l-1.046-1.407a.831.831,0,0,0-1.255-.091l-.754.754a4.182,4.182,0,0,0,0,5.9l6.571,6.571a4.182,4.182,0,0,0,5.9,0l.751-.751A.832.832,0,0,0,517.619,412.71Z" transform="translate(-503.275 -397.911)"/></svg>