<svg xmlns="http://www.w3.org/2000/svg" width="689.711" height="675.198" viewBox="0 0 689.711 675.198"><defs><style>.a{fill:#f7e9ec;}</style></defs><g transform="translate(-442.068 -272.231)"><path class="a" d="M529.078,767.643c-2.547,2.529-3.089,4.019-4.379-.165-1.082-.489-1.284.294-1.7-1.057,3.138-1.239,4.03-1.913,6.154,1.005Zm-4.628-4.143c5.484-.338,10,3.122,5.237-5.984v0c-3.643.577-9.417,3.131-7.255,7.513C523.464,764.987,523.795,764.249,524.449,763.5ZM716.807,771c-1.97-.324-2.608-.068-4.01,1.329-.36.822-.432,1.426-1.252,1.841-1.046-1.411-.632-2.482-1.947-3.7-1.931.826-1.943,1.576-2.934,3.335a30.637,30.637,0,0,0-3.7.8c-3.326,3.158-7.277,6.886-9.2,11.108a26.422,26.422,0,0,0,1.759,4.866c-.55,1.732-1.56,2.876-2.124,4.581A25.289,25.289,0,0,0,697.4,802a1.761,1.761,0,0,1,.98-.675c-1.024,2.57-2.867,3.881-3.845,6.474a2.919,2.919,0,0,0,1.427.111c2.382-.668,3.254-1.823,5.23-3.188l-.122-.161c-.688-.394-1.617-.523-2.065-1.175-1.259-1.832,8.81-6.745,10.259-7.63-.512-1.732-.505-2,.387-3.686,1.682-.79,3.4-1.171,5.081-1.94-.07-.942-.163-1.929-1.368-1.5a.338.338,0,0,1,.016.163c-2.253-.168-1.977-2.4-2.142-4.243a12.908,12.908,0,0,0-.6-3.082c1.155-1.965,7.961-7.4,7.54-8.932C718,771.872,717.265,771.512,716.807,771Zm-56.1,32.768a25.625,25.625,0,0,1-5.423,5.55c-4.938,5.534-5.151,12.7-5.371,19.762a9.2,9.2,0,0,0,.322,4.461c2.651-1.433,3.07-3.417,3.838-6.245.369-4.021,2.755-7.191,3.915-10.991a70.4,70.4,0,0,1,4.544-11.609l.193-.1c2.029-2.7,6.175-9.911,3.892-13.185C663.076,793.546,662.082,800.148,660.706,803.771ZM845.893,449.526c-5.289-6.89-13.407-12.2-6.261-20.809,4.744-5.459,1.725-7.9,4.746-13.024.24-.756.8-1.481.72-2.271-.342-3.2-8.7-7.9-10.409-12.646-.125-6.922,4.73-6.96,5.151-12.478-4.827-3.283-4,.177-9.043-2.767,1-5.738-.6.1,2.346-4.164,1.225-1.775-.242-5.973-.666-7.877-.369-2.71-.7-4.338,1.528-6.4.5-.466,2.674-1.066,2.672-2.307,0-1.775-6.2-6.29-7.348-7.214a32.008,32.008,0,0,0-3.419-2.382,7.869,7.869,0,0,0-2-.876c-.36-.075-.917.575-1.076.242-.208-.428.374-.874.562-1.311-1.547-7.083-11.443-8.842-17.525-9.281-13.5-1.7-25.092-12.349-36.421-19.131a27.714,27.714,0,0,1-5.5-3.892c-1.963-1.986.294-.215-.471-3-.358-1.293-4.15-2.285-4.972-2.606-6.836.05-11.165.29-10.764,1.485.668,1.981,2.812,3.283,3.679,5.2,1.857,4.091-.983,7.347-3.779,10.01-1.642,1.51-4.275,3.455-4.814,5.815-.593,2.6,4.105,2.178,5.226,2.971,2.042,1.445-2.642,4.012-3.433,4.558-16.554,7.671-34.99-14.12-51.1-5.733a15.554,15.554,0,0,0-1.288,2.568,14.226,14.226,0,0,0,.353,3.759c1.214,6.2,3.36,12.641-2.436,17.188-7.8,3.559-10.608-5.663-19.051-4.178-5.858,3.1-11.636,5.235-14.885,11.317-1.92,4.035-3.969,8.267-7.132,11.491-2.387,2.434-5.649,3.073-7.515,5.95.6,7.012,10.268,6.892,8.063,15.474-2.078,4.252-5.3,4.825-9.059,7.257-2.737,1.771-4.485,4.519-6.1,7.261a21.235,21.235,0,0,1-6.532,7.339c-.215.143-3.99,2.151-4.433,2.776-1.157,1.626.217,3.616.908,5.018,1.519,3.813-.342,6.082-4.089,7.341-4.1,1.374-16.828,2.033-19.149,3.648-.661.457-.944,1.3-1.415,1.952,1.691,3.691,3.6,7.694,3.546,11.853-.068,5.072-3.295,7.54-2.565,13.857.208,1.651,1,4.913-.052,6.5-.543.815-1.569,1.184-2.255,1.882-1.506,1.531-1.775,3.138-2.187,5.151-2.706,6.433-8.459,11.179-12.63,16.663-1.121,1.472-3.645,4.273-3.577,6.281a10.689,10.689,0,0,0,.933,2.842c6.326,3.5,13.474,1.818,11.142,11.8a21.084,21.084,0,0,1-2.33,5.226c-5.663,8.33-16.642-1.644-24.6,1.5-7.1,3.815-14.385,7.859-20.419,13.257-2.83,2.531-5.348,5.04-4.261,9.007.213.881.8,1.748.641,2.638-.883,5.022-8.652,4.75-4.932,11.887a16.128,16.128,0,0,0,2.6,2.98c5.124,7.282-3.72,5.244-.587,13.038,2.289,4.868-.731,2.805-1.082,6.829-.247,2.805,2.4,5.72,3.956,7.8,7.243,10.665-7.252,20.668,1.085,30.271,1.612,1.854,3.981,3.041,6.1,4.173,3.147,1.6,9.15,3.908,9.956,7.884.566,2.8-2.165,6.059-3.448,8.373-4.662,5.514-7.814,1.078-12.134,5.221.306,8.976,12.225,16.819,7.472,25.068-3.557,3.838-1.112,4.32-1.533,8.5-.265,2.631-1.818,4.227-3.462,6.091-2.133,1.938-4.406,3.505-7.379,3.833-.546.061-5.6-.652-5.785.8a7.734,7.734,0,0,0,.494,2.4,9.62,9.62,0,0,1,.238,2.817c-.532,2.423-3.752,2.982-4.88,4.977-1.34,2.375-.383,4.343.5,6.587,1.993,4.868,3.358,10.592.933,15.626-1.465,3.045-3.435,6.818-6.888,3.9-1.044-2.969-1.454-6.544-4.524-7.866-6.453,5.052-1.164,7.479-1.291,13.873-.577,3.722.951,6.6.256,10.32-.654,2.683-2.642,7.173,1.925,4.225,2.418-2.16,1.771-1.2,1.778,1.734,1.159,3.555,1.614,1.492,3.134-.956,1.107-.007-1.646,1.875,1.044,3.589,1.94-1.148,5.387-4.146,7.354-2.416.9,3.353,2.183,4.017.711,7.438-.79,1.331-5.233,8.093-4.574,9.476a10.385,10.385,0,0,0,1.868,2.119c.584,4.791-4.452,2.531.722,3.944,5.842.457-.806-.727,3.177,4.845.238,2.953-.417,5.158.247,8.12,3.512.7.356-2.017,3.974.557,1.481,3.267,1.92,5.8,4.13,8.717,2.808,4.015,1.417,5.543,5.086,8.4,3.614,2.4,5.273,8.115,9.573,8.165,3.684.174,6.075,4.836,2.554,6.548a10.547,10.547,0,0,1-2.735.5c-6.7.254-3.833,2.62-.541,5.554,3.5,5.337-2.058,2.468-4.234,1.465-4.044-1.979-5.285-1.648-2.088,2.153,3.663,4.173,7.357,8.588,9.655,13.681,1.359,2.011,3.041,3.118,4.157,5.21-2.389,2.862-3.756,1.73-3.338,5.747.448,3.978-.822,1.913-2.735,4.92.94,1.066,3.308.58,4.884.838,7.176.969,14.1-2.21,21.327-1.882,4.264,1.032,7.533,2.443,11.256-.471,2.742-6.847-4.024-11.532,2.137-19.312,4.807-4.952,3.476-2.5,9.471-1.372,1.067-7.309-8.656-5.627,4.236-6.059,4.748.07,9.478,1.573,14.086.509,3.743-.8,7.291-2.2,9.388,1.653,2.735,4.352,5.362-4.282,6.055-6.394,1.324-4.49,2.228-11.79,7.289-13.359,2.171-1.143.91-1.637,2.375-3.639,1.6-1.393.541-1.694.441-3.938.525-3.822-1.544-4.395,2.264-6.92,2.674-2.35-.894-2.375-1.685-6.639,1.137-3.885,5.242-5.3,6.007-9.263a13.334,13.334,0,0,0-1.531-2.488c-2.122-2.169-2.493.412-1.146-2.826,2.937-2.715,4.307-2.805,1.743-6.732-1.329-1.553-6.818-7.117-.6-4.762,2.142,1.553,4.66,4.32,2.26-1.164-.337-3.514,1.621-.817-.582-5.5-1.746-4.744-1.22-1.395,3.261-1.952.082-2.742-1.3-3.872-1.766-6.584-2.022-2.962-4.4-2.676-7.578-4.334,3.491-1.329,7.513.4,11.317-.577a7.935,7.935,0,0,0-.709-2.635c-.872-1.227-8.831-1.8-10.629-3.546,4.563-.9,8.982,1.386,13.674.251,1.694-1.633,1.327-1.963.956-2,.272-.05.745-.158,1.549-.383,2.477-.647,4.343-1.612,6.763-2.368,2.389-1.184,3.272-2.656,5.593-3.761,2.151-2.83.115-4.787,1.073-8.12,3.034-2.294,3.034.924,3.512,3.34.344,2.264-.088,3.682,2.112,2.663,3.009,1.669.371,4.47,3.238-1.06,3.652-5.28,7.336-4.8,12.116-7.945-.591-2.656-2.527-2.792-3.43-5.344,3.252-.752,6.129.068,9.157-1.225-.709-2.1-3.555-5.745-5.557-3.532.634,2.713-.457,1.82-3.059,1.918-2.452,1.365-2.935,1.8-5.96,1.916-5.5.709-2.06,2.776-7.237,2.45-.251-.1-4.3-2.137-4.778-1.75-.4.326-.174,1.023-.263,1.535-.213.242-.337.854-.634.727-.9-.387-3.274-3-4.6-3.743a15.16,15.16,0,0,0-8.4-1.257c-4.175-2.3-3.829-5.337-9.256-4.193-3.666.811-15.789,2.6-17.833-.371,4.313-2.509,7.818,1.984,12.281-2.5,4.418-3.285.129.217,6.759.331,3.009-1.288,4.766.278,7.834-.2,3.227.29,4.941,2.153,8.061,2.88.414-4.76-2.38-7.1,2.183-4.275,1.911,1.7,6.879,3.935,7.653,5.273.238,3.3,2.649,3.6,5.5,3.9,2.409.1,4.909.926,2.733-1.322-1.024-2.131,2.747-1.032,4.32-1.037,2.973-2.228-1.067-1.628,2.339-2.749,4.019-.562,6.261-4.415,9.587-6.483,2.45-1.386,3.815-3.24,6.682-3.516a8.139,8.139,0,0,0,2.55-.215.974.974,0,0,0,.5-1.1c-.466-1.125-2.38-.568-3.591-.663-4.513.127-3.367,1.1-2.169-2.871,3.406-2.217,2.11,2.271,5.3,0-2.135-3.17-3.693-3.22-5.115-7.2-1.341-3.5-1.162-2.337-4.5-3.378-4.429-.211-1.368,2.706-3.564.351-1.236-1.965-2.33-2.547-3.922-4.381-.394-2.615-.482-.84,2.518.165a11.463,11.463,0,0,0,2.454.258c-2.3-3.652-6.387-4.791-10.336-6.2-3.306-1.906-3.944-5.681-7.033-7.812-4.665,1.2-3.335,3.184-7.4,2.683-1.118-3.7.919-1.277.088-3.786-2.919-.392-5.486.43-8.065-.924-1.15-1.8-2.411-1.723-1.2-3.532-.195-4.465-2.3-4.9-2.484-9.428,1.3-2.056.244-2.4-.469-4.755,0-3.19-.032-4.565,2-7.053.627-2.885.186.869-1.458-2.378a8.462,8.462,0,0,1-.349-2.858c.562-3.1-1.2-4.608.541-7.1,1.682-2.294-.795-1.017,1.03-3.415a13.542,13.542,0,0,1,3.023.229c4.017,1.257,1.162,2.423,4.148.507-.358-3.193-.729-.867-3.559-4.27-1.275-3.944-1.843-5.187,1.5-8.292,1.993-4.436-.55-5.923,3.99-9.288.546-.5,1.6-.756,1.63-1.492.009-.195-2.162-.215-3.817-1.123-2.316-1.273-3.027-2.595-3.908-4.891-1.968-9.471,3.965-3.374,8.242-1.574,2.065-2.169-2.28-1.488,3.066-2.149,2.543-.174,2.262-1.1,4.537-2.808,3.895-2.323,1.5-1.27.38-4.087-.174-3.023-2.457-3.937-.779-5.864,2.984,1.286,2.953,2.113,6.188,1.069,4.039-1.884.79-.756,4.293-2.228,4.01-1.8,3.272-1,3.632-4.671,3.46-2.074-.075-.258-.519-2.751,2.362-2.867,1.578-3.811,5.212-5.269,3.668-1.995-1.343-.387,2.715-4.689,5.7-.14,2.654,4.3,7.47,3.03,2.072-2.76,4.442-4.832,5.35-8.251,4.721-3.482,3.784.8,5.926-1.728-1.617-4.35-1.562-5.31,2.165-2.353,4.6,2.638,4.714-2.742,8.876-4.338,3.58-1.8.215-2.371,5.6-1.886,7.264-.643,4.227-4,9.247-6.834.876.482,1.63,1.4,2.629,1.442,3.324.136,5.088-6.061,6.118-8.371,3.424-7.54,5.939-9.091,12.184-14.009,1.673-1.356,7-5.162,7-5.185-.041-.491-.738-.652-1.107-.976-2.588-1.121-.272-.385-2.432-3.788-3.193-1.662-3.625-.865-5.088-4.173-.294-4.159,3.208-3.969-.369-4.61-2.975-.3-5.672.208-1.791-2.753,2.334-3.134.51-3.206,4.144-4.8,3.63-1.189,3.53-1.906,5.572-5.036a11.713,11.713,0,0,0,.847-2.939c.077-4.694-1.818-.713.073-3.9,2.509-6.483-5.162-1.911-1.255-6.358,4.848.179,8.33,1.225,12.168-2.081a9.49,9.49,0,0,0-1.56-1.827c-.577-.4-1.5-.165-2.008-.657-.242-.233.6-.294.924-.394.525-.163,3.1-.659,3.331-.706.87-.383,2.079-.362,2.609-1.152.566-.84-1.827-2.113-2.113-2.273-2.094-1.18-7.166-2.276-7.877-4.565,5.953.616,10.864,7.227,16.9,6.132-1.216-3.673-3.657-9.655-.346-12.759,2.541.552,1.037,2.488,4.526,4.13.9-.38,1.988-.469,2.7-1.139,3.023-2.848-.636-4.642,5.081-.874,4.348,3.677,4.146,5.264,9.56,2.187,4.327-1.6,3.476,1.359,5.778-1.565,3.249-2.285,6.494,1.023,10.037,1.522,3.161.444,5.077-.315,7.846-1.762A24.784,24.784,0,0,0,845.893,449.526ZM677.953,738.568v0c-.575.439-.283.888.222,1.227C678.648,739.206,678.521,739.023,677.953,738.568Zm23.709-8.038v0c-.1-1.089-1.6.057-2.217.317-.129.138-.523.285-.385.412C699.642,731.793,701.65,730.536,701.662,730.529Zm-5.416-1.284c-1.266-.849-1.524.077-2.183,1.177a2.193,2.193,0,0,0,2.183-.967Zm8.665-4.259v0c-1.32.109-1.873,1.191-2.683,2.14C702.379,728.849,704.247,725.965,704.911,724.986Zm5.246-3.865c-1.216,2.008.7.779,1.59.276v0C711.579,720.6,710.768,720.988,710.157,721.121Zm-.392-3.763c.74.036,1-.254,1.411-.815a1.278,1.278,0,0,0-.043-.19,4.961,4.961,0,0,0-.009-.953v0c-1.329-1.112-1.037-.14-.444,1.026C710.544,716.939,710.184,717.068,709.765,717.358Zm6.519-4.735-.02-.254C714.749,712.135,714.491,714.077,716.284,712.624Zm1.617-7.454c-.609-.98-1.005-.571-1.925-.1-3.417,2.287,1.055.326,1.925.1Zm-38.646,10.187c1.512,2.407.256-1.216,0-1.639l-.113-.106C677.817,713.991,678.709,714.408,679.255,715.357Zm32.734-32-.229.02c0,.079,0,.138.009.211A.74.74,0,0,1,711.989,683.354Zm-.22.231c-.582.881.127,2.986,0,0Zm127.7-222.6.288.247C844,460.141,841.812,458.5,839.471,460.983ZM705.606,679.891c-.288-.521-.623-1.008-.931-1.515-1.467-2.19-2.527-3.31-3.22-5.917h0C699.728,676.445,701.972,678.522,705.606,679.891Zm12.7,90.333a12.113,12.113,0,0,0,.881.858c2.38,2.608,1.848.4,2.425-1.823,1.309-.412,2.568-.466,3.872-.869C722.592,767.093,718.931,766.25,718.3,770.224Zm-17.718-50.491a3.041,3.041,0,0,0-1.15-.072,6.692,6.692,0,0,0,1.6.487,26.3,26.3,0,0,0,3.455,2.137c.29.093-.453-.4-.679-.607,2-.872,2.253-.51-.573-1.965h0A13.434,13.434,0,0,1,700.584,719.733ZM708.4,719a2.858,2.858,0,0,0-3.5.306C706.455,720.286,706.908,719.964,708.4,719Zm0,0Zm5.946-14.063a5.7,5.7,0,0,0-3.958,2.858c1.755-.494,2.609-1.469,3.908-2.708Zm-9.983,7.042c1.92.691,3.827-1.474,5.432-2.5h0C707.564,708.752,705.749,710.488,704.36,711.98Zm-32.877.924c-.942.242-.768.186-2.033-.161-5.088.974,1.46,2.7,3.242,2.407.36-.127.521-.143.657-.51a4,4,0,0,0-1.866-1.739Zm-5.67-2.706-.127-.052c-2.688,1.737-1.667,3.659.48,5.14.684.113.768.034.534-.614-.718-2.287-.15-1.537.079-3.4A3.224,3.224,0,0,0,665.814,710.2Z" transform="translate(91.747 54.5)"/><path class="a" d="M480.471,582.337v0C481.22,583.841,480.417,583.3,480.471,582.337Zm44.024,34.895c-3.845-.738-2.787-.079-6.516.885-4.148-.05-.854.854-1.445-2.491,2.282-3.485,7.16-1.873,4.1-6.974-3.944-5.423,1.666-4.112-2.482-6.512,1.741-3.919,6.19-1.225,6.5-5.147-1.3-.281-3.279.106-3.836-1.1-.351-.763,1.392-1.03,5.819-.645,4.608-.308,4.75-2.285,1.354-5.412-5.162-3.6,2.3-1.447,3.349-1.091,1.062.041,2.169.444,3.183.125,1.125-.353.51-8.093.423-9.646.082-2.239,1.51-8.086,5.092-6.818.779.278,1.259,1.075,1.891,1.612-2.742,3.392-4.959,1.7-2.106,3.727,3.283,1.714,2.55,3.931,3.99-.165,4.248-3.433.5,1.922,5.765-1.15,2.346-3.668,6.881-7.2,2.35-10.705-3.931-1.372-7.941.057-11.575-1.954-3.661-1.562-5.742,2.185-4.827.161,1.395-1.965,3.951-3.106,3.061-5.389-1.254-2.7,1-.3-1.277-4.359-1.879-3.971-.657-2.189.269-5.935.131-1.974,1.642-3.2,2.058-5.45,2.19-4.705,3.562-2.183,3.763-8.1a14.192,14.192,0,0,0-1.458-6.07c-1.746-3.516-2.774-3.066.324-6.421.661-.609,1.356-1.18,1.981-1.825,3.439-3.548-5.1,1.875-5.561,2.189-5.074,2.731-9.177,1.279-13.28,5.86-8.025,10.934-9.037,13.194-23.333,13.558-10.1.31-13.631,3.976-18.048,12.619a52.134,52.134,0,0,0-3.557,27.73c.043-.788.659-1.863,3.172-2.359,3.238,3.507,3.928,6.306,1.019,10.207-2.278-1.524-2.314-3.206-3.548-5.536.059,3.682,1.449,6.9.432,10.565-1.3,2.219-3.7,4.184-.419,5.264,2.733,1.028,2.74,2.239,5.056,3.208-.181-1.8-1.657-2.169-1.266-3.935,2.491.867,3.833,2.867,6.5,3.77,4.73,1.651,3.632,4.2,3.874,8.514-.541,3.985-.892,3.677-2.973.661-1.773-2.337-1.85-.041-2.167,1.965.215,1.929.106,4.194,1.827,1.988,2.024-1.673,2.67-1.316,2.864,1.291-.374,1.8-.335,3.365-.557,5.2,3.374.559,6.655.235,10.044.851,3.519.8,6.987,1.85,10.6,2.049,1.193-1.626,2.733-3.356,4.959-3.073-.245,2.386,1.035,2.466,2.955,1.512.389-1.615,2-1.245,3.435-1.307,1.866,1.463-2.38,1.191,2.35,1.209.754-.593,1.791-.944,2.26-1.78C531.987,620.64,525.48,617.635,524.495,617.232Zm47.246,5.672c-.958,1.245-.505,2.4-1.54,3.521-4.531-2.534-8.892-7.16-14.086-4.1-.745,1.417-.426,1.544.509,2.79-.045,1.945-.451,1.148-1.653,2.28l.063.063c3.505,2.74,16.083,6.87,20.3,4.768a10.735,10.735,0,0,0,1.784-1.438C576.068,627.727,574.73,624.489,571.741,622.9Zm-26.913.351a8.708,8.708,0,0,0-.414,1.73c-.512.5-1.4.779-1.567,1.449,2.325,2.8,1.642,4.725,3.842,1.327a38.713,38.713,0,0,1,3.451-7.366l.036-.091C555.078,609.3,546.209,621.1,544.828,623.255Zm33.144-2.208a3.248,3.248,0,0,0,.152-1.175c1.272-.67,1.524-.02,2.647.756l.122.027c3.349-1.035,4.137-1.8,4.565-5.292-1.565-.5-3.134-.346-4.277-1.585,1.316-.8,1.531-.94,2.448.29a10.674,10.674,0,0,1,2.4-2.681c2.767-.349,4.61-.231,6.677-2.208-.806-4.409-2.681-2.287-5.2-4.424a13.788,13.788,0,0,1-1.8-2.384c1.336-3.684,4.461-3.519,7.85-4.508,3.082-4.764.7-10.069,2.835-15.166.206-.251.346-.374.344-.709a20.4,20.4,0,0,0-8.174-3.147c-4.006.677-9.259,3.077-11.743,6.394,1.551.77,2.667-.079,4.35-.129,1.252,3.027,3.141,8.022,1.1,10.957-1.281.063-.65-.263-1.168-1.234a5.161,5.161,0,0,1-2.475,1.218c-.041-.641.195-.765.686-1.141,2.484-2.869,3.421-6.881-.74-8.452-.543.464.127.976.435,1.483a25.573,25.573,0,0,1-3.7,7.914c-.7-.765-.564-1.549-1.345-2.2-3.988.009,1.392,0-.315-2.683-1.431.154-3.983.779-1.338-.91.614,0,.919.168,1.488-.091-.24-1.479-1.232-1.637-1.456-3.1.7-.376.754-.364,1.2.242.7.258.657.1.587-.544.249-.706.634-.8,1.051-1.388a21.008,21.008,0,0,0-4.8.593,44.215,44.215,0,0,0-8.3-1.954c.412.768,1.27,1.046,2.011,1.442,3.435,1,4.812.159,3.494,3.994-2.846,1.664-1.207-1.171-3.027,2.624-1.336,1.032-4.778,4.361-5.283,1.028a1.983,1.983,0,0,0-1.517-.05,7.085,7.085,0,0,1-3.929.152,3.616,3.616,0,0,0-2.047.2c1.451,1.644,2.853,1.689,4.968,2.09-.709.263-2.733.174-3.587.34a2.928,2.928,0,0,0,1.746.643,5.4,5.4,0,0,1,3.849,2.531c-.07,1.73-.77,1.141-1.657,2.464a3.809,3.809,0,0,0,1.7.036c1.13,1.445,1.771,2.359,1.82,4.218-1.445.7-3.021.3-2.9,2.058,1.1.272,1.076-.287,2.255.2.833.894,1.63,1.816,2.441,2.731-.731.98-1.177.462-1.024,1.893.19.072,1.891.933,1.56.14.84-1.5,3.27-.591,4.567-.328,2.393.537,3.963.086,6.347.05.224.874-.387.967-.279,1.843,1.06.349,3.919.672.858,1.087-1.291,1.064,1.107,1.755,1.99,2.618-1.873-.371-3.571-1.078-5.468-1.327.347,1.836,3.089,1.87,4.719,2.43,2.373,2.887.854,1.716-1.8,2.534,1.447,4.682,5.027,7.655,4.8,12.8.247.627.584.752,1.2.969.12-1.646-.009-3.265.136-4.916,1.719-1.689,3.584-3.154,5.145-4.988a4.17,4.17,0,0,0-.729-.892C582.442,623.33,579.446,622.75,577.972,621.047ZM593.847,619c-1.048-.312-4.248-1.657-5.43-.94-2.805,1.707-1.694,1.676-.537,1.42-.523.161-1.189.367-2.135.67a1.633,1.633,0,0,0-1.159,1.58,4.827,4.827,0,0,0-.808,1.261,21.075,21.075,0,0,0,10.871-3.4l-.036-.1A1.416,1.416,0,0,0,593.847,619Zm-61.183-2.556c5.169,1.076,10.687,3.333,15.673.713,3.045-4.692,2.176-8.5-.829-12.985-1.558-.815-1.916-.867-3.394.029.24-1.148,3-1.34,4.071-1.657-.342-2.267-1.456-3.505-3.2-4.95l-.029.009c-.559,2.006.12,3.15-1.152,4.818-4.864.693-3.6-.038-.6-1.651-.02-.2-.38-.256-.546-.321a24.585,24.585,0,0,0-5.932-3,30.435,30.435,0,0,1-10.162,3.953c-1.621-.84-2.1-1.4-3.929-.84a6.815,6.815,0,0,0-1.732,1.071,5.535,5.535,0,0,0,.964,1.293,1.334,1.334,0,0,0-.256-.052,4.076,4.076,0,0,0,2.169,1.349,3.317,3.317,0,0,1,1.429,1.15c-.471.537-.974.362-1.567.729.894.892,1.578.754,2.713,1.18.906,2.545,1.542,5.126,2.391,7.689,1-1.949,1-2.076,3.306-2.09,1.61,2.045.623,1.9-1.008,3.439a.219.219,0,0,0,.027.188A4.939,4.939,0,0,0,532.664,616.442ZM652,608.605c-.623.439-1.51.645-1.87,1.318-2.4,4.5,4.291,10.923,9.736,9.682l.093-.041c.584-.571,1.522-.926,1.753-1.709C662.755,614.318,654.314,609.339,652,608.605Zm-54.655-13.622c-2.593,1.809-3.419,2.165-1.372,4.823,3.519-1.091,2.792-1.825,1.372-4.823ZM554.7,538.776c1.782-.738,4.458-1.945,4.037-4.531-.118-.715.833-1.175-3.609,1.349l-.113.032C551.63,536.916,550.344,537.72,554.7,538.776Zm-11.274,81.5c.186-2.04-.817-1.109-2.239-.507-1.791,3.288.8,3.26,2.176.716Zm-11.1,1.232c-1-.738-.147.458.02.736,2.516,2.5,3.983,3.385,7.667,3.6.109,0,.331.061.4-.041-2.941-1.641-5.443-2.1-8.088-4.3Zm11.278-36.894.011.018c.016-.036.025-.072.041-.109Zm2.821,3.161c-1.519,0-2.212-2.013-2.81-3.143-1.259,2.984-.779,5.124,1.114,7.669.693-.675.643-1.155.566-2.09C545.421,589.413,545.4,587.908,546.426,587.774Z" transform="translate(47.29 312.21)"/><path class="a" d="M622.358,714.422c-1.567.378-1.166.562-2.04,1.671-1.4-1.476-1.682-2.119-3.786-1.746-.2.22-.387.448-.6.652a26.5,26.5,0,0,1-2.905-7.338c.924-.267.885.122,1.189.924.768-1.01,1.263-2.255,2.613-2.339-.02,1.044-.34,1.9-.324,2.959.122.672.05,1.08.659,1.449.5-.639.306-.958.287-1.725,1.6-.442,1.436-1.069,1.71-2.685a2.1,2.1,0,0,0,.351-1.363c-1.263-.045-.4,1.284-1.7.183-.926-2.119-.89-2.276,1.533-2.785l.315.059c2.882,2.631,6.732,2.21,9.576,4.868-.337.946-1.159,1.2-1.782,2.006-.367,1.8-.63,1.521-2.389,1.662-.355-1.927,2.873-3.428-.487-2.006-.385.552-.512,1.112-.867,1.673-.448-1.633-.249-3.2-.974-4.746-.211.679.05,1.13-.106,1.825-.6,1.585.428,1.436-.122,3.17-.9-.084-1.245-.247-1.553-1.1-.258-.537-.562-.466-1.08-.278.564,1.569,1.331,1.981,2.984,1.952C623.777,712.482,623.164,713.487,622.358,714.422ZM912.579,593.432c-5.815-10.155-20.677-13.463-29.791-20.759-.344-.38-2.357-2.181-2.133-3.222.725-3.344,5.222-4.508,7.735-6.048a13.55,13.55,0,0,0,6.965-9.888c-1.075-8.317-10.633-5.978-14.022-10.463-.362-.48-.05-1.2-.075-1.8.308-5.577-3.2-4.248,2.251-8.12.6-.777,1.728-1.349,1.8-2.325.1-1.447-2.882-2.95-3.691-3.39-4.479-2.441-9.1-3.808-11.776-8.455a8.869,8.869,0,0,1,.226-2.857c1.773-4.067,10.982-3.215,2.817-8.029-5.2-3.052-.3-1.447.4-8.385.722-7.252,4.837-2.76,1.995-7.4-5.23-5.835,3.061-3.451,6.272-2.9.444-.181,1.087-.127,1.331-.539,1.39-2.371-1.956-10.008-2.885-12.254-4.8-11.62-12.671-28.074-22.464-36.421-3.752-3.564-2.067-7.56.654-11.339,5.679-7.891,13.848-13.789,20.594-20.713,1.164-1.377,3.722-3.646,2.672-5.86-.82-1.728-4.033-3.147-5.529-4.2a38.783,38.783,0,0,1-9.259-9.308c-2.4-3.145-4.565-5.452-8.688-5.873-2.509-.258-5.054.781-7.5-.238-4.191-1.748-5.907-7.076-7.366-10.936-1.069-3.512-1.963-6.883-.38-10.4,1.979-4.4,6.211-2.935,6.132-9-4.121-4.3-5.124-1.637-8.183-4.223-.263-.222.53-.441.818-.629,1.085-.718,2.744-1.585,3.82-2.158,2.441-1.3,4.927-2.511,7.4-3.745-14.523-8.034,7.073-13.035,8.6-20.51a7.151,7.151,0,0,0-.417-2.513c-7.875-9.657-22.045-10.533-30.647-19.228-4.932-6.032-8.077-5.271-14.693-2.221-4.526,2.063-9.424,4.225-14.494,4.2-5.955-.023-7.565-2.973-13.518.7-6.863,5.036-14.84,11.675-15.1,20.84-.627,6.406-4.9,9.743-1.479,16.133,5.432,10.753-8.387,6.385-13.269,11.7a14.254,14.254,0,0,0-1.5,2.543c-1.8,5.335-2.731,7.271-7.889,9.643-7.309-6.4-15.61-8.649-24.717-11.364-4.8.978-2.586,1.1-5.7,4.11-2.081,2.013-4.911,2.8-7.631,3.462-8.457,1.531-5.074-1.053-10.789-2.242a36.739,36.739,0,0,0-7.656-.489c-1.9.029-7.012.865-8.475-.607-1.146-1.153-.213-4.08-.786-5.6a17.873,17.873,0,0,0-4.053-5.844c-4.974-4.945-14.392-15.619-22.206-15.141-2.586.156-3.073.9-5.181,2.3-3.041,4.171-.7,5.613-.688,10.182-4.886,1.374-7.268-4.642-12.279-.26.822.322,4.614,1.313,4.972,2.606.765,2.78-1.492,1.01.471,3a27.714,27.714,0,0,0,5.5,3.892c11.328,6.781,22.923,17.435,36.421,19.131,6.082.439,15.979,2.2,17.525,9.281-.188.437-.77.883-.562,1.311.158.333.715-.317,1.076-.242a7.869,7.869,0,0,1,2,.876,32.008,32.008,0,0,1,3.419,2.382c1.15.924,7.348,5.439,7.348,7.214,0,1.241-2.169,1.841-2.672,2.307-2.23,2.058-1.9,3.686-1.528,6.4.423,1.9,1.891,6.1.666,7.877-2.946,4.266-1.347-1.574-2.346,4.164,5.045,2.944,4.216-.516,9.043,2.767-.421,5.518-5.276,5.557-5.151,12.478,1.707,4.748,10.067,9.446,10.409,12.646.084.79-.48,1.513-.72,2.271-3.02,5.129,0,7.565-4.746,13.024-7.146,8.6.971,13.918,6.261,20.809a24.784,24.784,0,0,1,4.035,7.687c3.983,2.033,6.394.1,9.877,2.147,1.307,3.023,1.678,5.258,5.475,5.04,5.432-.525,14.2,2.654,15.259,8.518-2.4,2.873-2.753,1.986-1.893,5.871.428,6.637-4.673,5.384-.181,9,2.137,1.562,8.312,6.44.722,5.013-8.308-.285,3.8,1.424.3,6.116a9.515,9.515,0,0,1-2.76-.6c-.46-.26-.446-.967-.752-1.4-1.906-2.679-4.694-1.979-7.44-1.352-1.383.448-4.363,1.064-5.242,2.482-1.42,2.285,2.015,1.119-1.816,1.766-.693.066-1.619-.326-2.078.2s.188,1.39.077,2.072c-.333,2.026-1.707,3.6-2.923,5.14-3.331,3.564-11.749,9.012-12.583,13.676-.07.466.179,1.134-.21,1.4-.557.383-1.381-.068-2.026.134-1.8.557-3.12,2.251-4.307,3.58-2.722,3.206-3.6,3.881-7.769,4.73-.213,5.12,2.221,5.595-3.747,7.171-6.892,1.8-7.237,4.782-11.068,9.811a8.974,8.974,0,0,1-2.418-.616c-3.3-1.936-.856-6.732-4.445-.111-.408,1.18-2.065,7.173-2.753,7.422-.707.256-1.363-.636-2.045-.956-6.258-.9-4.54,2.617-1.839,5.5.675.72,1.63,1.257,2.022,2.162.854,1.97-7.01,2.287-9.4,4.673-2.55,3.021-.344,1.574-3.516-.369a14.121,14.121,0,0,0-3.011-1c-4.393.768-6.406-1.854-4.877,3.245.8,6.324-2.287.768-3.555,7-.822,7.825-3.347,1.463-6.958,8-.555,1.7-1.99,4.744-1.759,6.618.19,1.558,1.313,1.553,1.562,4.279.519,4.667,2.325,3.666,4.569,7.32,1.008,3.63.754,4.549-.974,7.991-1.961,4.119-3.111,5.294,1.861,7.074,2.194,3.089,1.743,5.88,3.808,8.846.634.738,3.824,5,3.077,6.007-.317.428-1.017.317-1.524.476-3.046-.947-3.546-.831-1.732,1.977,1.291,3.525-1.354-1.239-.362,3.043,1.2,2.278-.029.768.541,3.548.342,2.561-.747,2.28.181,4.391.3,3.5-1.537,1.293-1.263,5.23-1.811,3.908-5.815-.747-2.448,4.9,3.842,6.29-2.468-.731-.161,6.555,3.376,5.4-.636,2.242.62,7.92.573.324,1.109.743,1.68,1.071-1.818,1.125-.575,1.938.91,3.073,1.248-.356,1.535-.792,1.583-2.079a6.785,6.785,0,0,0-1.32-.541c2.6.527.623-2.138,2.321,1.159.387.306.675.944,1.166.913.025,0,4.141-4.092,5.042-4.6,1.157,2.443-1.619,1.386-.55,5.575,3.666-.6,1.832-2.269,5.439-.55,3.528,3.439,6.4,4.766,11.376,4.2,7.2-.684,2.516,1.786.82,5.357-.616,2.968-2.69,0-.29,3.892.46,2.552-.213,3.476,1.626,5.534,3.19.353,4.737.743,6.141-2.348.294-2.67-.147-4.483,2.864-2.83,1.841,1.028,3.213.521,4,2.328,3.593,2.651,5.636-.272,2.717,3.537-.514.663-1.4,1.166-1.542,1.993-.233,1.336,2.466-.147.562,1.324-.734.566-1.562,1-2.341,1.5-.668.5-4.513,3.448-.38,2.5a14.865,14.865,0,0,0,2.849-1.03A19.506,19.506,0,0,0,709,719.306a20.644,20.644,0,0,1,2.411-2.8c.267.865-.14,1.913.317,2.692,1.157,1.965,4.737.926,6.265.668,2.232-.568,13.706-5.056,14.45-4.932.582.1.842.829,1.264,1.243,1.818,4.615,4.064,1.868,6.324-.607,3.091-3.163,6.349-2.479,10.474-2.581,4.868-1.263,3.591-3.845,10.3-4.37,5.02-.254,3.62-.154,5.778-4.024,3.367,1.272-.795,2.907,5.169,3.847,5.251-1.533,1.236-.152,2.6-4.517,3.482.525,1.352,1.832,4.325,2.5.858-4.35-1.891-4.834,1.361-4.929,3.2,1.721,3.659,2.425,7.128.453,3.061-.844,5.208.141,7.959-1.558,4.544-1.542,4.332.77,9.032-1.848,5.706-2.934,7.056.849,12.823,1.008,5.688-1.621,2.312-3.9,7.4-3.313,5.373-7.3,13.006-11.833,20.276-17.045a296.872,296.872,0,0,0,25.464-20.578,405.324,405.324,0,0,0,47.409-50.955C923.355,599.446,915.758,600.44,912.579,593.432ZM702.8,717.409l.109-.247c-.566-.528-1.132-.129-1.746.161C701.419,718.589,702.44,718.69,702.8,717.409Zm-68.94-.023-.215-.2C629.721,717.857,633.335,718.136,633.865,717.386Zm9.333-12.381c.745-.2.786-.446.786-1.193C643.076,703.221,642.951,704.383,643.2,705.005Zm-1.768,6.978c-.709.507,1.723,2.325.05.061Zm2.805-5.817c-.263,1.134,2.142,3.974.143.118Zm4.424-.557c-.736.611-.1.806.514,1.168.054-.331-.4-.8-.514-1.171Zm-6.965,2.953c.285.98,1.632,1.318.249.02Zm14.02-24.533c.4-.376-1.114-.308-1.646-.163.36.552.768.521,1.331.281Zm.738,8.45-.122-.163C654.053,695.577,658.2,698.21,656.453,692.479Zm-.546,3.279-.222-.009c-.756.774-.009,1.633.421,2.445C658.722,699.845,656.227,696.254,655.907,695.758Zm1.669,7.646-.029-.118C656.269,704.122,657.809,704.471,657.576,703.4Zm2.67,3.451h0Zm0,0c-2.989.131-.267.618,0,0Zm.7,2.167-.285-.118C659.059,709.147,660.526,710.048,660.938,709.022Zm2.921-.87c-.17.53-.358.931-.05,1.429,1.252-.568.86-.593.829-1.793C664.878,706.862,663.975,708.026,663.859,708.153Zm9.5-1.995-.079-.258C671.965,706.4,671.737,707.976,673.356,706.158Zm-19.094-104.7c-.15-1.191-.743-1.426-1.759-1.963v0C652.022,601.178,652.536,601.961,654.261,601.454Zm42.627-35.445c-2.063-.4-2.676-.958-4.345.455l-.023.147c2.792,1.352,4.3.845,6.363-1.363a7.954,7.954,0,0,0-.55-.924c-.768-.883-2.554-1.655-1.882.226.421-.516.41-1.046,1.06-.557a4.247,4.247,0,0,1,.371.763A2.475,2.475,0,0,1,696.888,566.009Zm-1.519,2.128c-1.839-.31-2.722-.478-2.2,1.6h0C694.558,569.754,694.9,569.449,695.369,568.138ZM676.8,587.194a1.434,1.434,0,0,0,.987.394C683.341,586.247,678.552,586.08,676.8,587.194Zm0,0Zm-19.008.023c2.855-3.111.679-1.977-1.818-1.771C655.853,586.711,656.707,586.985,657.791,587.216Zm-1.818-1.771h0v0ZM626.051,714.819c-7.144.609-.263,2.839,1.818,3.059l.07-.2C627.169,716.232,627.448,715.788,626.051,714.819ZM612.3,708.236v0c-2.869.666-2.869,2.328-1.789,4.725.924.111.851-.093,1.232-.888a2.377,2.377,0,0,0,.143-.195,8.211,8.211,0,0,0-.3-1.651c1.886,1.046,2.5,2.278,1.252-.709A3.519,3.519,0,0,0,612.3,708.236Zm88.822,11.256-.358-.118c-2.221.118-4.372-.441-6.492.138C696.859,721.571,698.987,722.54,701.124,719.492Zm-17.65-4.6c-.53,1.3-.385,3.747,1.44,3.048l.129-.215C685.171,715.776,685.424,715.233,683.475,714.9Zm-53.316-5.21-.279-.138C627.219,711.458,629.474,711.624,630.158,709.685Zm-1.139,2.658c-1.162.922-2.389,2.629.2,1.854.6-.792.507-.89-.029-1.714Zm8.28,3.428-.2.043C634.243,717.293,637.284,720.207,637.3,715.772Zm-3.849-7.363v0h0Zm0,0c-.226-.8-.387-.432-1.1-.537-.31.22-.238,1.236-.315,1.642C631.6,711.128,633.394,708.479,633.45,708.411Zm39.4-3.655c-2.027-2.375-.666-2.212-3.623-4.916h0c-.591,3.684-.471,6.138,3.938,5.432C673.874,704.783,673.421,704.858,672.848,704.756Zm-15.981,5.133c-4.148,1.571,1.73,1.13,2.57.924-.55-.682-1.723-.589-2.57-.924Zm7.864,1.9v0Zm-2.647-.342c-.195.672.127,1.119-.172,1.734-.589.011-1.3-.179-1.58.43,2.5.7,3.324.607,4.4-1.823a2.421,2.421,0,0,0-.888-.279A5.407,5.407,0,0,0,662.084,711.447Zm3.917.915c3.233.466,2.824.1,3.906-1.968h0a25.819,25.819,0,0,0-3.385,1.32C666.291,711.871,665.73,712.323,666,712.362Zm6.727-1.449c-.417.523.419,1.27.627,1.9l.272-.023c.455-.677,1.721-1.3,1.368-2.033C674.669,710.077,673.2,710.32,672.728,710.913Zm2.654-3.491c.507.2,1.028.346,1.553.494a16.2,16.2,0,0,0,3.263.077,3.505,3.505,0,0,0,2.18-1.03C679.179,705.818,677.911,704.772,675.382,707.421Zm7-.46v0l0,0Zm-1.662,1.288c-3.356,3.317-.553,3.544.394.224l.066-.063C681.108,708.076,681.022,708.146,680.719,708.25ZM653.032,588.391c-.19.686-.817,1.388-.573,2.054.684,1.872,4.972,2.552,6.344,1.288a9.37,9.37,0,0,0,1.429-2.667l.014-.134c-2.138-.346-3.44.577-5.448,1.252C654.741,588.192,656.6,588.851,653.032,588.391ZM753.418,515.2a1.626,1.626,0,0,0-1.18-.478c-5.371-.917-8.57-3.371-10.391,3.138l.134.093c1.447.457,1.9-.322,3.1-1.114,2.049-.374.745.179-.059,1.243.745,1.388,1.655.711,2.864.138.487-1.777.186-1.886-1.01-3.152C749.247,514.948,751.144,515.89,753.418,515.2Z" transform="translate(212.117 28.487)"/><path class="a" d="M965.263,282.35c.152-.036.17-.036,0,0Zm149.8,24.522c-6.263.247-4.886-3.874-9.637-5.86-4.943-.679-3.306-.482-6.757-3.462-4.191-2.774-3.077-4.961-8.634-2.808-1.037.349-2.76,1.379-3.256.4-.328-.643.213-1.7-.365-2.135-.826-.623-2.049-.306-3.07-.457-.709.226-7.209,2.595-7.755,2.115-.67-.591.027-1.789.041-2.683a6.021,6.021,0,0,0-.448-2.264c-2.964-4.393-12.587-4.574-16.583-1.925-2.321,2.3-7.465,8.188-7.694,11.48-.072,1.06.541,2.058.813,3.086,1.9,1.309,4.456,3.308.073,3.333-2.386-2.434-2.461-3.057-5.842-1.986-.491.168-.969.62-1.474.5-.283-.066.181-.847-.109-.867a9.035,9.035,0,0,0-2.69.668c-4.544,1.547-9.25,1.062-1.261-2.484,1.336-.541,10.278-4.76,8.584-7.372-.355-.552-1.2-.519-1.809-.777-.315.125-3.337,1.358-4.039,1.553-.433.12-1.159.641-1.329.226-1.329-3.247,6.5-1.094-2.092-3.634-3.781-1.313,5.686.5,7.633-2.819,3.387-3.822,7.062-1.648,7.381-6.786-3.342-4.175-5.554.371-7.411-.627-.722-.389-.765-1.449-1.148-2.174-.573-.693-.867-1.782-1.714-2.079-3.111-1.087-6.354,4-11.706-.971-.89-.258-1.8-1.071-2.672-.772-2.165.74,1.6,6.243-4.75,4.628-4.361-2.289-3.029-1.2-6.12,1.986-2.624,3.82,1.037,4.225,3.854,3.607,1.838.075,6.664.041,2.88,3.055a23.346,23.346,0,0,0-3.1-.163c-2.862.226,1.63.86-2.287,3.636-4.386,1.2-2.013,3.138-4.241,6.573-1.44.641-2.842.5-2.312,2.4.317,1.134,2.391,1.877,1.927,2.957-.3.7-1.354.7-2.031,1.051-5.536.351-7.164,3.365-12.055,4.85-1.848-4.61,6.007-8.183,2.91-13.608-.331-.5-1.187-.942-.992-1.51.342-1,1.669-1.34,2.264-2.21,1.352-1.986,1.171-4.415,1.094-6.652-1.177-4.784-3.514-3.181-6.827-.686-4.7,3.541-8.41,8.52-12.546,12.678-2.149,1.893-11.874,9.206-12.535,11.206a9.957,9.957,0,0,0,0,3.111c.376.405,1.1.668,1.125,1.22.147,2.758-6.279,7.932-8.636,8.43-.562.12-1.121-.251-1.682-.378-4.031-.317-1.488,3.168-4.739.7.507-6.032,8.1-6.763,4.891-11.1-1.39-4.769,4.325.163,4.2-6.82-1.288-1.719-3.2-2.384-2.978-2.645,1.732-2.031,7.433-5.432,9.8-7.277,1-.795,9.22-7.424,9.125-7.993-.274-1.628-3.838-.79-4.891-.946-2.423-.211-3.444.881-5.513-.432-1.214-2.038-2.357-5.935-3.639-1.716-.05,1.279-.1,9.313-2.5,5.425-.444-3.654-.516-5.375-4.615-3.285-4.035-1.816-.643-2.851.088-3.032-.288.063-1.13.226-3.025.507-6.732,2.654-3.813-3.392-9.456-1.569-3.254,4.823,2.2,1.307.682,7.239-1.008.306-1.974,1-3.025.915-3.2-.249-2.382-5.688-6.376-1.107,1.3,5.966,11.351,2.577,12.27,9.037-4.46,2.235-7.615-6.018-11.72-.768-.874,1.78-.815,2.387-2.45,3.392-.7.428-1.87.292-2.235,1.028-.346.7.4,1.513.6,2.267.3.419,1.024.752.91,1.254-.149.672.222-.745-3.265-.666-2.853.063-5.409,1.569-7.76,3.016-1.592,1.123-4.284,2.629-5.147,4.533-.226.5.3,1.236-.061,1.653-.541.623-1.506.675-2.257,1.012-4.028,1.227-6.637,1.427-2.72,5.538-.349.512-.532,1.189-1.048,1.533-.648.43-4.75.337-2.649,2.119a23.787,23.787,0,0,0,3.786,1.637c10.637,3.874,1.076,1.743-3.505,2.88-2.665.405-1-.525-4.044-2.588-2.635-4,1.972-2.756-1.809-4.868-2.527-2.008,2.011-2.679-.6-3.444a16.51,16.51,0,0,0-2.885-.31c-4.388-.131-8.278-1.9-12.571-1.08-4.728-1,.845-3.073-4.141-2.056-5.733.912-1.411-3.347-7.549-.557-2.645,4.322,2,9.279-2.688,5.52-.967-1.263-4.721-6.777-6.055-6.72-.777.032-1.075,1.119-1.615,1.678-2.506,1.872-3.066.125-5.916,2.364-.059,4.789,1.755.523,5.056,4.442,2.971,3.412,5.083,1.913,8.914,4.341,3.435,2.418,5.292-.836,3.885,3.31-2.026,5.167.213,1.725,1.18,6.163.1,2.439,1.762,2.063,2.1,4.461-8-2.119-11.656-12.736-21.15-12.388-.351.926-1.254,1.809-1.055,2.781.564,2.744,3.514.888.908,2.174a18.016,18.016,0,0,0-3.05.512c-2.237.783-3.107,4.182-5.117,4.015.231-3.211,3.8-4.984,3.9-6.023.038-.38-.677-.356-1.017-.532-4.818,2.119-7.791,6.464-12.723,8.482-.625.26-1.7.125-1.872.781-.186.736,1.03,1.2,1.18,1.95.46,2.289-1.225,4.941-2.192,6.822-3.646,6.224-5.742,7.866-11.36,12.007-.494-1.225-.172-.181,1.934-2.522,2.04-2.271,3.906-4.354,4.644-7.347.032-2.108,1-3.492,1.818-5.43,1.651-3.924,1.449-8.135.734-12.241-.183-.783-.337-1.576-.548-2.353-1.2-4.395-1.617,1.6-2.411,2.1-.625.392-1.463-.2-2.194-.3-4.458-2.513-.768,1.442-4.23,3.426-.806.138-1.755-.063-2.423.41-2.172,1.542-2.194,6.218-1.193,8.249.636,1.481.254.043-2.051,1.277-1.515.811-1.816,2.294-2.473,3.738-3.793,4,.559-8.833,1.039-9.981-.407-.908-.41-2.153-1.225-2.724-2.923-2.047-12.646,3.091-15.078,4.755-5.108,4.039-4.03,3.4-1.981,9.234.335,7.608,6.82,2.341,10.3,6.972,1.1,3.928,5.57,7.963-1.551,5.812-.679-.795-2.09-1.34-2.038-2.384.125-2.493,5.665-1.513-1.085-3.492-9.748-2.239-6.132-4.578-11.795-8.923-4.728.516-12.41,1.877-4.836,6.571,2.867,1.768,8.527,8.785.079,4.35-1.925-2.076-3.8-2.848-5.622-5-1.488-2.162-4.508-5.946-5.744-1.2.285,4.947-3.211,4.282-2.663,9.6,4.18,3.8-.045,3.682-3.528,4.476-5.167,1.132-7.936,2.9-10.384,7.621.534,5.2,9.614,1.753,5.477,4.2-2.359.487-9.56,1.7-10.916,3.485a6.377,6.377,0,0,0-.643,2.212c-.392,2.364-1.988,1.374-4.565,3.306-3.455,1.055-4.449-2.015-10.105.813-5.1,3.507-1.54,1.94-3.526,6.05-6.607,6.476,4.787,3.127,7.293,2.149.24-.093,4.773-2.085,5.138-1.168,1.558,3.885-3.186,1.091,1.68,3.138,1.184-.408,9.693-4.71,10.037-4.646.521.1.559.9.84,1.352-1.5,2.722-1.8,2.226-3.881,4.03-1.587,1.223-2.694.729-4.76,1.685-2.364,1.2-4.005.408-6.616,1.243-5.314,0,.442.607-3.775-1.859-1.977-1.157-5.541-.385-7.606-.156-1.744.281-11.38,1.755-10.633,4.492.265.967,1.854.765,2.78,1.146,2.953,3.659-4.406,2.5,2.452,2.9,3.319-.22,8.611.26,1.164,2.907-3.342.858-2.278,1.542.3,2.9,3.641,2.955,1.11,2.787-1.954,2.62-3.333,3.625,1.755,6.442-3.068,2.556-4.132-5.656.143-7.565-2.631-11.835-5.88-1.34-3.908,10.683-9.207,4.538-.4-.666-.48-1.7-1.193-2-.519-.217-.933.627-1.429.892-2.024,1.087-2.092.885-4.667,1.465-3.371,1.236-4.232,1.343-1.139,3.881,4.2-.582.788-2.045,5.677-1.519,2.844,1.162,5.47.983,8.466,1.642,1.048,2.808.161,3.661-2.656,4.089-2.749-.009-4.574,1.1-7.234.783-3.016,0-5.036,1.451-8.149,1.624a12.162,12.162,0,0,0-9.469.978c-3.987,2.8-2.364,3.009,1.084,3.931-.265,4.277-5.425.811-2.728,5.244,5.923.7,11.559-2.964,15.18-7.42,1.938-.8,4.3,1.2,6.512,1.583,1.549.362,9.213,4.535,2.905,2.561-1.852-.879-8.093-3.677-7.9.145-1.325,1.676-2.715.564-4.443,1.54a13.174,13.174,0,0,0-2.124,1.92c-.1,3.6-2.314,2.81-5.387,3.276-1,.208-7.2,1.334-7.3,2.785-.057.872,1.449.98,2.174,1.469,2.359,1,6.415,4.569-.256,2.853-.869-.385-1.657-1.214-2.606-1.155-1.8.111-4.537,4.017-5.581,5.138-.46,4.624,1.492,1.141,5.695,2.737.054,1.166,2.4-.428,3.156-.614a21.314,21.314,0,0,1,6.32-.485,98.309,98.309,0,0,1,16.574,2.454c-1.986,1.723-4.049-1.519-6.587,1.214.279.245,4.021,3.154.818,3.188-1.1.011-3.639-2.285-4.064-2.62-6.166-4.436-14.541-1.988-21,.641-2.839.308-4.083-.616-6.736.306-3.131,1.211-4.553.057-5.131,3.238.426,2.513,1.429,5.357-2.289,4.207-2.486-.618-5.21,1.318-8.006,1.574-3.272,4.035,3.111.77,2.314,5.837-3,.72-3.283,2.728-6.107,3.326-1.2-.122-9.408-.876-3.679,1.361.881,3.045-6.209-.039-1.377,3.068,5.14,1.4,1.506-.036-.106,1.363-.58.5-.464,1.46-.7,2.19,2.183,3.4,1.954,3.482-1.406,1.268-1.784-.9-9.376-2.733-3.331,1.7,2.937,3.5-.319,1.816-1.159,6.179,3.238,1.583,4.334,1.239,7.662-.131,8.036-1.042,3.369,1.449.086,2.248-1.492.283-8.3,1.549-7.778,3.387.145.507,7.341-.756,9.347-1.139,5.283-1.087,10.5-2.391,15.712-3.781a41.255,41.255,0,0,1,4.184-.992c.344.761-1.139,1.22-1.707,1.83-3.6,2.187-7.538,2.257-11.174,4.026-.826,1.612-1.306,4.9-2.991,2.5-.1-.652.125-1.447-.3-1.954-.575-.7-5.745.254-6.827.387-3.371.552-11.819,2.017-14.412,4.49-.26.249.1.716.14,1.073,1.1-.122,8.106-1.069,8.235-.865.254.408-.362.892-.543,1.338-2.065,4.125,1.728,2.613-2.622,3.611-4.005.487-6.793.179-6.15,5.126-.7,3.9-2.122.073-2.4,4.889-3.075,3.6-6.428-2.867-5.47,4.852,3.648,8.749-.138-.138,5.276,3.471.453,5.8-1.61.432-1.1,4.578.206,4.415-5.763,3.281-4.721,6.415,4.15,2.805-.385,1.239,2.33,4.533.419.34,1.524.546,1.259,1.014-.881,1.562-6.831,2.959-8.783,3.5-3.731-.007-3.775-.865-7.074,1.2-2.778,2.353-5.828,2.312-9.216,3.188-2.9,1.053-4.585,1.791-7.606,1.159-2.864-.618-6.965-.643-8.063,2.425,3.014.172,1.7-1.168,5.151-.67,1.8.541,3.233.147,4.307,1.422,3.1,1.624,4.952-.179,2.919,2.477-3.38,4.284,4.313-1.094,5.008-1.54,2.5-1.626.822.179,5.056.86-.591,2.907-8.3.652-9.039,5.178,2.595,2.862,3.9,3.322,7.6,3.016,4.261.883-3.14,2.069-3.795,2.257-1.814.924-2.065,1.657-2.509,3.618-.532.715-1.535.62-2.776,1.73-2.022,1.495.312-.337-3.351-1.252a10.143,10.143,0,0,1-2.344-1.191c-2.214-1.986-.306-3.942-4.372-4.735-4.624,4.005,3.584,1-2.871,3.516-1.3.181-9.53,1.254-2.719,2.423,6.066,2.434,1.268,2.943-1.275,1.983-2.583-1.248-5.5-3.159-5.6,1.2.688,3.437.023,3.417-3.43,3.818-3.75,1.535-.3,1.481-3.795,3.666-3.491,2-.213,2.165-3.981,3.111-3.351.759-.928.41-2.017,5-.9,3.514,1.347,2.359-1.583,4.347-1.621.607-8.534,2.663-9.36,3.888-.211.31.324.677.485,1.017,2.681,1.845-.367.77-.679,3.729,4.533-.057,7.916-4.148,12.505-3.79-3.236,3.324-5.486.165-4.576,5.6,3.795,3.94-.478,4.988,5.065,4.857a64.878,64.878,0,0,0,22.434-9.834c2.611-2.19,7.207-6.036.3-5.681-1.565.41-7.916,3.591-8.627,3.227,4.1-4.085,10.551-4.927,15.055-8.615,1.859-1.66,2.941-.575,5.681-.4,6.648.389-1.549,2.611-2.98,3.079-6.451,2.289-3.371,3.682,1.354,4.458,9.65,1.549-3.424,4.49-6.03,5.283-1.814.577-11.731,4.39-11.548,5.991.05.446.876.186,1.316.276,1.823-.627,7.823-3.2,3.075.958-1.551,5.332,3.981.507,1.268,4.119-6.492,1.1-12.861-1.415-19.33.158-5.862,3.514,2.722.623-3.514,3.007-.906.165-2.04,1.119-2.715.494-.58-.534.763-1.422.86-2.205.29-2.373-1.017-4.415-2.113-6.349-4.8-6.315-5.74-1.547-11.3-.063-2.771.195-6.143.337-5,3.847,2.316,2.056-1.744-.711.478,3.63-2.667,3.17-2.656,2.742-2.511-1.171-1.492-4.08-2.258-3.371-4.76-.38a14.5,14.5,0,0,1-2.613.636c-1.159.054-2.67-1.585-3.415-.693-.383.46.183,1.184.274,1.777-.208.817-.05,1.836-.625,2.455-1.565,1.673-5.226-1.959-3.032,2.178,4.323,2.787,1.671,1.388,1.232,5-3.922.07-8.588-2.26-11.455,1.162,2.079,4.037,2.464,1.429,5.6,3.811,2.1,1.356,3.763.19,6.134,1.026-3.224,1.66-4.959-1-4.168,2.611,3.743,5.482-5.133-2.518-5.536-2.869-3.122-2.645-5.106-5.088-8.822-1.857.188,1.732-.238.138,2.434.79,1.667.408,2.473,1.938,3.453,3.143,3.2,4.578,8.74,5.518,11.217,9.625-.127.374,0,1.01-.38,1.116-.414.12-.729-.455-1.089-.7a33.839,33.839,0,0,0-6.347-3.412c-4.562-2.244-3.122-5.434-6.82-7.954a12.828,12.828,0,0,0-3.172-.02c-2.905.727-.636,2.058-2.565.532-4.311-.641-6.016,2.647-10.35.466-4.042-3.394-6.933-1.929-11.358.206-1.177,5.729,3.306.464,4.135,5.149-4.338,2.162-5.255,4.316.908,3.021,1.852-.512,12.012-2.978,12.284-2.6.356.487-.962.722-1.445,1.082-1.483.661-8.923,3.686-1.981,3.614,2.538-.134-.161-.283-.738,3.331.426.519,4.807,5.3,2.536,4.23-.838-.4-1.617-.906-2.425-1.359-1.384-.867-5.407-4.13-6.655-4.23-.521-.041-.867.58-1.3.867-3.838-.063-.469-2.2-5.242-.521-5.015,1.648-1.531-1.372-6.924.611-4.7,2.131-2.681-1.014-8.16.174-7.363,3.811,1.4,4.925,4.685,5.178,4.513-.011,8.2-.546,10.665,3.72,3.007,3.711,7.776,2.719,11.516,5.312-3.888,1.241-3.967-1.9-9.546-.131a12.688,12.688,0,0,1-1.44,3.992c-1.042-5.45-2.165-14.331-9.657-9.811-2.767.96-3.054-.075-5.31,1.492-2.814,1.58.118.475-2.52-.231-1.377-.371-3.392,1.055-4.458,1.651-5.212,3.537-1.71,4.139-3.972,6.143-2.817-.122-1.345-.806-4.415-.6-3.885,3.664-.516,4.628-4.517,2.375-1.488-.879-9.65-3.743-4.162,1.22,2.88,2.5,2.353,3.874-.987,2.176-2.076-3.609-3.4-5.341-7.68-5.715-.165,5.869,2.62.992,5.142,6.89-1.9,1.1-3.489,1.2-4.735,2.833,5.262,3.4,14.906-1.433,20.831,1.141-1.34,1.248-2.59.632-4.44.937,1.8,1.938,9.947,1.624,13.01,1.879,5.484.722,8.231,2.228.181,1.524-5.212-.245-2.339,1.748-6.141.677-2.742-1.128-5.513-1.612-8.31-2.541-3.618-1.66-6.865-2.271-10.54-.473-1.445.926-6.43,3-5.624,4.286-.263.994-2.617,1.365-4.114,3.539,1.5,1.343,2.964,1.592,4.51,2.835.014,2.133-.67,2.167,1.114,3.63,5.047,1.076,10.364-.195,15.293,1.4.095.242.532.645.285.729-1.524.516-4.139.1-5.849.489-4.255.623-7.612-1.411-12.234-.618-4.51,2.506.711-1.069-.17,2.808-3.53,4.191,3.46,1.7,5.169,1.254,3.505-1.014,6.267-1.639,9.811-.385-2.916,1.225-6.492-.172-8.466,2.783.091,1.861.177.265-.962-.462-1.193-.759-3.254-.007-4.291.195-6.976,2.7-.405,2.178,2.344,3.426-1.546,2.638-4.884-.494-1.981,2.434,6.12,2.511,7,3.272,13.176.7,2.869-.937,10.694-3.754,10.873-3.6.331.292-.245.847-.367,1.272-.636,2.64,2.588.238,5.679,1.374,2.574,1.377,5.151,2.629,6.618-.747-.088-3.439,1.839-4.918,4.11-7.246.86.408-1.585,3.263-1.556,4.1a8.5,8.5,0,0,0,1.082,2.674c1.171.014,7.859-.74,8.453-.365.374.233.249.842.371,1.264-1.472,3.591,2.488.564,3.836-.084,4.13-.8,6.034.514,4.386-3.976-2.061-4.486-.408-3.229,2.934-6.143.43-.331.792-1.211,1.284-.99.174.077-.713,1.048-1.605,3.1-.9,2.076-.711,1.6-.761,3.627,3.276,2.8,9.379.156,5.529,2.681-2.81,1.085-5.294,3.007-8.24,3.394-1.087-.034-6.009.011-6.521,1.18-.274.62.068,1.354.1,2.031,2.219,2.3,3.847,3.322,2.728,6.734-3.122-1.46,2.769-3.091-4.692-2.912-5.149.118,2.151-.648.555-3.537-.464-.842-1.4-1.318-2.1-1.977-5.228-3.084-5.948-4.11-10.581.566-3.575,2.536-1.578,1.048-4.975.672-2.137-3.279-4.275-3.3-7.739-2.4-2.7.664-4.827.131-7.583.519-2.353.663-5.174.58-5.862,3.168-2.971.75-5.989-1.714-9.043-2.153-2.889,1.325-4.56,1.954-1,4.005,1.318.856,2.3,2.051,0,2.029-3.777.46-.518,2.749.711,3.845,2.658.027,7.026-2.81,5.83-.26-2.124,3.032-.937,2.221,1.807,4.474.847,1.766.215.792-.942,2.045-.863.03-4.8-3.5-6.514-4.25-5-1.433-4.581-.953-.711,2.063,3.978,4.083.761-.245.722,3.535a8.276,8.276,0,0,0,10.73-1.427c.559-3.088,2.846-2.3,5.511-2.029-1.642,3.738.532,8.029-2.23,11.317-4.169.84-4.968-.555-7.871-3.1-4.053-1.716-2.633.491-1.807,3.473-.627,2.316-1.863,1.223-3.249,3.136,1.422,1.7,3.12,1.551,2.529,3.7-1.019,1.839-.07-.238,2.407,2.237.383.494.523,1.46,1.148,1.483,1.823.066,3.729-4.166,4.372-5.278.652-1.046,5.024-6.3,2.1-1.245-.627,1.2-1.547,1.993-.17,2.842.317,1.066-1.474,2.253-2.162,3.043.58,1.839,3.079-.548,3.865-1.069,2.058-.885.754,1.931.6,3.356-.62,1.782-1.248.863-.806,2.765,1.309,1.655,1.223,1.175,3.064.577,2.088-.5,2.031-.974,1.6-3.036-.672-2.776.165-3.548,1.775-5.948,3.195-1.834,2.1.419,5.443-1.854,1.187-3.849-1.021-1.918.215-3.217,1.153-1.841-.02-1.791.48-3.607,2.989,2.507,3.168,3.066,6.9,1.152.566-.362,6.657-4.845,5.912-2.626-4.159,5.59,1.325,1.852,2.808.831.609-.46,8.52-7.053,4.76-2.167-.722,3.51,1.153-.328,3.433,2.04-3.236,1.544.24.258-4.078.351-1.823.041-3.491,1.2-4.968,2.108-5.244,4.433-2.665,8.527-5.772,13.234-2.353-3.971,2.054-8.527,1.39-12.8-4.73.555-8.287,4.345-11.9,7.271-4.667,5.833,5.151,1.458.691,4.99-4.873,2.058-2.43,4.485-7,5.955-3.677,1.008-2.629.713-4.687,3.046-1.931,1.526-.22,1.313,1.694,2.407,1,.206,2.013.863,3.009.62,2.541-.614,1.3-2.76,1.993-1.386.179.518.009,1.406.537,1.553,1.565.437,4.963-1.947,6.254-2.649,4.823-.627-4.409,3.333-5.065,3.514a15.258,15.258,0,0,0-6.236,1.848c-.675,2.651,1.918.306,1.085,2.126-1.51.876-1.71,1.852-3.039.856-2.02-2-2.461-3.428-3.827-.3-.607,2.862-.629,4.447-3.623,5.1-.627-1.177,1.757-4.169,2.208-5.794.041-3.419-.346-3.385-1.433-.448-.693,2.1-.869,1.155-2.957.562-1.8,1.78-1.177,3.308-3.025,5.029-1.436,3.276.285,4.99,2.968,6.935,1.605.462.682,1.1,2.026,1.424.478-.245.86.516,2,1.132,2.833-1.562,1.173-2.713,2.389-5.618,1.78,2.482-.6,3.589,2.692,4.03a18.257,18.257,0,0,1,3.99-.99c.414-2.334-.894-2.713-2.939-3.159-3.417.256-.14-.847.872-1.186,2.452-2.4.043-3.326,2.375-2.1,3.186,1.109,3.419.238,6.272.7-2.108,1.87-3.369,1.51-5.357,3.94.8,1.807,1.424,1.574,2.565.113.426-1.067,2.287-1.637,3.306-2.312,2.262-2.477,3.17-5.5,5.269-8.034.183,2.131-1.732,3.1.51,4.243,3.614-.34-2.878,3.057-3.612,3.566-1.879,1.284-4.055,2.33-4.818,4.569.713.444,1.5-.238,2.529-.113,1.39.419,2.715-.079,1.56,1.239-2.491,2.479-.215,1.284,2.06.349,5.439-1.947-.74,1.381-1.814,1.977-2.663,1.309-3.813,1.388-4.225,4.316-3.134,1.3-5.638,1.535-1.829,3.987,2.538.881,1.349.238,1.042,2.235.716,1.347.933,2.294,1.762.7,3.041-3.818,9.99-3.618,14.541-4.23-3.729,1.585-7.5,2.249-11.439,3.122-3.754,2.518-1.884,3.709,1.1,5.359-4.026.337-6.261-2.923-9.39-5.024-1.623.937-2.079,2.076-3.215,3.528-1.893-2.615-.865-3.392-3.763-5.867-1.7,2.423,1.078,2.941-.113,3.827-.419-.147-.912-.724-1.254-.442-.072.059-.878,4.026-1.214,4.836-1.2,4.746,2.5,7.825,5.557,11,3.31,2.357,4.775.826,8.462,3.5,3.122,3.99,8.015,5.357,12.709,6.743,3.976-.208,2.06-.394,3.879-2.921,1.243,1.109.4,1.854,1.114,3.31-2.1,2.937-3.224,1.569-3.17,5.853,2.214,1.5,3.442,2.563,3.752-.568.4-1.913,1.055-1.372,1.852.007,1.082.725,1.832.208,2.914.99,1.479.729,2.939-.181,2.554,1.7-1.5,2.815,2.731.274,3.9-.122,4.859-1,9.872-.346,14.792-.974,3.63-.577,4.549.242,6.068-3.5,1.381-2.629,2-3.193,2.106.021,2.482,3.281,3.532,1.422,5.09-1.3a5.062,5.062,0,0,1,.731-1.623c.833-.822,2.26-.62,3.356-1.035a32.4,32.4,0,0,0,6.992-3.987,20.9,20.9,0,0,0,5.2-5.23c2.083-3.27.72-3.347,5.156-4.3,6.4-1.608.068-1.236,4.275-4.832,3.025-.6,6.786-.3,2.672-3.4-.469-.446-1.737-.783-1.406-1.34.167-.279,7.2-2.2,8.428-2.642,5.756-4.03-3.351-4.078.249-5.615,2.448.838,2.314.5,4.139,2.156.822.747,1.252,2.344,2.364,2.353a9.393,9.393,0,0,0,2.853-.958c3.319-2.493,1.68.007,6.05-.826,5.092-3.2,1.291-3.636,2.319-7.019a9.821,9.821,0,0,1,1.533-2.325c4.069-1.175,4-3.686,1.2-6.46-3.439-2.747-3.766-1.671-2.167-5.8.84-3.213.715,1.109,4.947,1.567,3.766-2.62-.238-8.751,2.862-3.729,1.934,4.467,1.843,3.777-1.5,7.01.38,2.71,2.008,3.335,3.181,5.874.5,3.521,2.171,4.567,5.692,4.843,2.368.552,1.744,1.614,4.187,1.556,1.753-.466,2.208.26,4.674.229,3.07,1.322,3.48,4.9,4.524,7.866,3.453,2.916,5.423-.856,6.888-3.9,2.425-5.033,1.06-10.757-.933-15.626-.881-2.244-1.839-4.212-.5-6.587,1.128-1.995,4.347-2.556,4.88-4.977a9.62,9.62,0,0,0-.238-2.817,7.734,7.734,0,0,1-.494-2.4c.183-1.449,5.239-.736,5.785-.8,2.973-.328,5.246-1.9,7.379-3.833,1.644-1.863,3.2-3.46,3.462-6.091.421-4.175-2.024-4.66,1.533-8.5,4.753-8.249-7.166-16.092-7.472-25.068,4.32-4.144,7.472.292,12.134-5.221,1.284-2.314,4.015-5.57,3.448-8.373-.806-3.976-6.809-6.283-9.956-7.884-2.121-1.132-4.49-2.319-6.1-4.173-8.337-9.6,6.159-19.606-1.085-30.271-1.553-2.076-4.2-4.99-3.956-7.8.351-4.024,3.371-1.961,1.082-6.829-3.134-7.794,5.711-5.756.587-13.038a16.128,16.128,0,0,1-2.6-2.98c-3.72-7.137,4.048-6.865,4.932-11.887.158-.89-.428-1.757-.641-2.638-1.087-3.967,1.431-6.476,4.261-9.007,6.034-5.4,13.316-9.442,20.419-13.257,7.957-3.141,18.936,6.833,24.6-1.5a21.251,21.251,0,0,0,2.33-5.226c2.332-9.979-4.816-8.294-11.142-11.8a10.687,10.687,0,0,1-.933-2.842c-.068-2.008,2.457-4.809,3.577-6.281,4.171-5.484,9.924-10.23,12.63-16.663.412-2.013.682-3.62,2.187-5.151.686-.7,1.712-1.067,2.255-1.882,1.051-1.587.26-4.85.052-6.5-.729-6.317,2.5-8.785,2.565-13.857.054-4.159-1.854-8.163-3.546-11.853.471-.65.754-1.494,1.415-1.952,2.321-1.614,15.048-2.273,19.149-3.648,3.747-1.259,5.609-3.528,4.089-7.341-.691-1.4-2.065-3.392-.908-5.018.444-.625,4.216-2.633,4.433-2.776a21.235,21.235,0,0,0,6.532-7.339c1.612-2.742,3.36-5.491,6.1-7.261,3.761-2.432,6.981-3,9.059-7.257,2.205-8.582-7.465-8.462-8.063-15.474,1.864-2.878,5.129-3.516,7.515-5.95,3.163-3.224,5.212-7.456,7.132-11.491,3.249-6.082,9.028-8.215,14.885-11.317,8.443-1.485,11.253,7.737,19.051,4.178,5.8-4.547,3.65-10.988,2.436-17.188a14.226,14.226,0,0,1-.353-3.759,15.554,15.554,0,0,1,1.288-2.568c16.108-8.387,34.544,13.4,51.1,5.733.79-.546,5.475-3.113,3.433-4.558-1.121-.792-5.821-.374-5.226-2.971.539-2.359,3.172-4.3,4.814-5.815,2.8-2.663,5.636-5.921,3.779-10.01-.867-1.913-3.011-3.215-3.679-5.2-.4-1.2,3.922-1.436,10.764-1.485,5.011-4.381,7.393,1.635,12.279.26-.016-4.569-2.353-6.014.688-10.182,2.108-1.4,2.595-2.142,5.181-2.3,7.814-.478,17.231,10.2,22.206,15.141a17.873,17.873,0,0,1,4.053,5.844c.573,1.517-.36,4.445.786,5.6,1.463,1.472,6.58.636,8.475.607a36.739,36.739,0,0,1,7.656.489c5.715,1.189,2.332,3.772,10.789,2.242,2.719-.666,5.55-1.449,7.631-3.462,3.113-3.009.9-3.132,5.7-4.11,9.107,2.715,17.408,4.961,24.717,11.364,5.158-2.373,6.089-4.309,7.889-9.643a14.254,14.254,0,0,1,1.5-2.543c4.882-5.316,18.7-.949,13.269-11.7-3.417-6.39.851-9.727,1.479-16.133.26-9.166,8.237-15.8,15.1-20.84,5.953-3.67,7.563-.72,13.518-.7,5.07.02,9.967-2.142,14.493-4.2,6.616-3.05,9.761-3.811,14.693,2.221,8.6,8.695,22.772,9.571,30.647,19.228a7.148,7.148,0,0,1,.417,2.513c-1.524,7.474-23.12,12.476-8.6,20.51,7.737,2,7.846-2.4,8.473-8.9,2.3-9.089,15.9-6.032,22.459-13.948,2.534-4.728,3.281-3.534,7.9-1.614,8.3,3.208,15.764,4.7,11.283-7.434q-.476-.931-.953-1.863c-4.44-.661-9.592.195-13.359-2.312-2.928-2.9-3.181-1.273-4.678,1.845-1.4,5.538-.088,1.626-4.963,2.07-3.213,1.82-4.748.951-8.167,1.651-2.2-2.183,4.753-2.871,1.73-7.7-3.154-3.263-.118-1.678-3.208-4.3-3.707-1.331-7.447-.811-11.122-2.1-2.638-1.449-5.339-1.9-8.027-3.238-1.9-.448-4.744.333-5.337-1.051a12.212,12.212,0,0,1,2.412-1.533c3.974-1.372,16.06,2.013,20.634,3.023,5.994,1.232,12.9,2.289,18.411-1.1,4.909-3.018,5.355-8.133,11.942-7.4,2.463.487,6.1,1.257,8.124-.829C1121.907,309.657,1118.834,307.228,1115.064,306.872ZM658.033,415.751c.315,1.515.75.084,1.245-.58.7,1.526-.136,2.294,1.775,1.723l.229-.163c1.042-1.155,7.692-10.232-.263-5.606.575,1.082,1.1,1.057,1.053,2.371C659.339,413.56,659.575,412.955,658.033,415.751Zm-.706-1.954c-.589-1.354-1.051-2.013-2.054-.586a.949.949,0,0,1-.115.258c-.1.159-.2.315-.308.469a54.018,54.018,0,0,0-6.541,11.294c1.716.222,1.877-.627,2.826-1.92,4.406-2.146,2.294-1.121,2.541-4.782.718.215.879.833,1.5,1.286,1.965-.532,2.273-.874,1.761-2.885l-.086-.236c-.947-1.673-.494.376-1.275-.9C655.9,414.708,656.411,414.449,657.326,413.8Zm25.563-8.063c-2-.661-2.146-.023-4.094.469-3.888-1.019-8.883-3.822-11.695.165.863.272,1.691.288,2.534.641-1.918,1.239-2.948-.129-2.955,2.6a2.071,2.071,0,0,1-.324,1.128.255.255,0,0,0,.143.2c.822-.138.523-.575,1.263-.265-1.406,2-2.181,1.542-1.3,4.173l.349.131c1.82-1.232.7-2.153,2.491-3.333.276.3.552.607.824.913.3,1.336.636,1.508,1.974,1.254.059-1.134-.26-1.578.516-2.5,1.469,1.014,1.956,1.782,3.1.086a4.332,4.332,0,0,0-1.888-1.4C677.335,409.115,680.822,408.87,682.89,405.734ZM745.7,387.747a12.187,12.187,0,0,0-1.621-5.611c.322-.813.933-1.22,1.32-2-1,.018-1.829.321-2.848.274a20.278,20.278,0,0,0-4.995-3.91c.1,1.112,1.406,2.253.48,2.937a3.221,3.221,0,0,0-1.633-.813c-4.569,1.918-2.835,1.68.059,4.506-1.748,2.346-2.1.073-4.359,2.382.138.8.833,2.337.229,2.948-.392-.5-.433-.831-.987-1.168-2.679.915-3.607,2.126-5,4.551a5.841,5.841,0,0,1-1.916,1.54c1.329-4.5,4.6-6.016,6.4-10.117-2.242-.319-3.6,1.141-5.79.86,1.934-3.439,5.611-5.9,3.743-10.08a2.588,2.588,0,0,0-.557-.3c-4.476-.072-7.069,1.162-8.588,5.425.709.462,1.469.7,2.19,1.123-2.042.4-3.3-.245-4.667,1.4-.041.371-.109.736-.15,1.109,2.3.924,4.66,1.506,6.748,2.853-2.246-.439-4.1-1.112-6.417-1.028-.99,3.582.251,2.975,3.224,4.39.405.263.917.344,1.089.795a.582.582,0,0,1-.321.075c-.134.011-.267.014-.4.014-1.687-.14-4.227-1.175-4.61.867a11.918,11.918,0,0,1,.7,1.429c-2.514-.5-3.723-1.234-6.148-.2.654,2.482,2.525,1.872,1.66,3.267-1.932.946.688.888,1.467.992.247.011.5-.045.623.2a10.609,10.609,0,0,1-2.516.408c-3.643,1.193-4.827,4.572-6.7,7.583-1.974-.922-2.715-.109-3,2.011,1.517.414,1.981-.1,2.6-1.094l.009.186a24.881,24.881,0,0,0,6.3-3.686c1.884-2.013,4.153-3.22,6.487-4.644.691-1.1.86-2.244,1.965-2.937.034.8.426,1.664.1,2.4-.331.759-5.215,4.522-6.046,5.432a12.708,12.708,0,0,0,4.3-.011c1.522.278,2.158,1.286,3.607,1.408a21.01,21.01,0,0,1,3.156-5.543c.5.777.324,1.121,1.223,1.56.346-1.707-.091-3.863,2.047-2.575a20.641,20.641,0,0,0-.378,3.641c3.711-1.485,4.182-4.146,5.926-7.574C739.2,391.56,743.68,394.44,745.7,387.747Zm-53.907-3.159c-1.791.582-2.513.96-2.31,2.921,3.009,2.436,4.943,2.69,7.23-.423.075-.582-.109-1.483.378-1.832,3.743,1.3,6.433,1.642,9.641-.946-.217-1.2-1.766-1.544-.308-1.447,2.126.462,2.8.521,3.193,2.731-3.229,1.58-6.2,1.562-9.118,3.722l-.179-.05c3.494,4.046,12.318.718,15.042-2.864-.593-2.384-1.067-2.151-2.925-3.419,1.066-1.691,2.178-1.961,2.805-3.919-1.508-.353-2.418.249-3.736.962.532-1.463,1.225-2.4,1.424-3.971-1.084-.059-1.49.358-2.511.7a7.105,7.105,0,0,0-1.318-5.031c-2.167-.057-2.864.534-3.584,2.556,1.338,2.085,2.95,3.738,3.856,6.052-1.046-.167-1.744-.987-2.683-1.488-.423.77-.648,2.971-1.517,1.739-.1-1.073-.1-1.594-1.037-2.2-1.354,2.067.274,2.3-1.275,4.771-1.2-.709-.288-1.044-1.974-1.51a14.243,14.243,0,0,1-3.722,1.51c-.034-1.866.842-2.7-1.245-3.222-.541,1.623.154,2.781-.6,4.279-1.485-.727-1.37-1.234-1.411-2.819-.6-.761-.888-.312-1.589.163-2.083,1.721-1.32,1.363.557,2.45C692.669,384.523,692.3,384.516,691.788,384.588Zm13.9,16.262a26.341,26.341,0,0,0,3.433-3.9,8.01,8.01,0,0,0-2.613.408c-1.363.342-2.454.057-3.822.362-.369.992-.118,1.766-.838,2.513a4.109,4.109,0,0,0-1.4.607,1.133,1.133,0,0,1-1.08.1c1.465-1.266,1.691-1.359.471-3.03-2.292-.3-1.669.193-1.981,2.131-.947-.26-.89-1.048-1.159-1.906-1.107-.265-1.574.1-2.563.607-.263.369-.4,1.089-.758,1.275a7.8,7.8,0,0,0-3.879.457c1.012.946,2.119,1.549,3.063,2.583-.561.111-1-.3-1.612-.308-2.568,1.637-.9.043-3.17.036-.734,1.311-.453,1.27.338,2.42-.17.3-.829.747-.849.956a6.226,6.226,0,0,1,1.522.12,8.235,8.235,0,0,1-1.732.666c-2.051.589-1.58.6-2.024,2.43l-.279.652c3.756-.546,9.188-1.666,12.109-4.182-.211-1.8-.387-2.658,1.06-3.842,1.621,1.085.57,1.907.272,3.6A21.863,21.863,0,0,0,705.693,400.85Zm-19.681,4.187c-.27-.7-.283-1.567-.811-2.106a2.437,2.437,0,0,0-3.813.758c.976.706,1.963,1.377,2.978,2.024v0A1.481,1.481,0,0,0,686.012,405.037Zm33.355-29.775a10.168,10.168,0,0,0,.414-3.084c4.141.555,4.981,1,8.015-2.214,1.633-2.747,8-6.831,7.721-9.97-.066-.745-.75-1.293-1.123-1.938-.428-.147-.541-.059-.922.161-4.673,3.018-9.161,6.342-13.662,9.6-1.257,2.742-2.375,5.532-3.607,8.283l-.036.125C716.833,378.733,718.314,376.408,719.367,375.262Zm36.774,4.069c-1.241.061-3.7,4.467-4.055,4.99l.016.249a23.582,23.582,0,0,0,8.609-2.07,19.979,19.979,0,0,0-2.577-2.323C757.47,379.895,756.863,379.3,756.141,379.331ZM734.13,399.7l-.079.247c1.934.172,8.885-1.211,8.217-4.241-.15-.684-.842-1.119-1.264-1.678C735.971,392.11,734.759,395.19,734.13,399.7Zm12.218-23.988c-.89-2.5-3.584-2.255-5.975-2.98-5.74-.081,2.91,4.4,3.856,4.771v0C746,377.32,745.786,377.261,746.348,375.713Zm15.259,5.122c2.955-.235,4.6-.847,6.306-3.31-1.938-1.288-4.085-3.233-5.932-.974.611.731,3.313,2.878.408,1.388-6.652-4.132-1.909,1.055-.781,2.9Zm98.538-54.215-.322.113a7.132,7.132,0,0,1-3-1.843c-3.956.281-3.51,1.368-1.7,4.35C856.3,329.318,864.565,327.341,860.145,326.619Zm-11.179,9.163v0c3.279-.768,4.445-1.417,4.272-4.909C848.957,330.183,849.122,332.191,848.966,335.782Zm-18.918-8.077c-.482-.894-5.724,2.83-9.39,5.719l-.122.4a8.979,8.979,0,0,0,2.9-.523C825.382,332.9,831.955,331.243,830.048,327.706Zm-19.215,7.812a3.228,3.228,0,0,0,2.923.405c4.97-1.608,7.753-5.285,11.951-8.142a1.234,1.234,0,0,0,.494-1.252c-1.78-1.232-1.279-.222-3.041.258-1.152-2.629-.58-2.855-3.593-1.293a1.168,1.168,0,0,0-.514.691c.145.512.489.77-.093.971a8.848,8.848,0,0,1-2.312-1.615c-1.9-2.586,1.243-2.119-1.92-2.1-1.18-.657.249-1.71-1.408-.835-1.076.46-2.314.512-3.193,1.259.971.951,1.653.985.494,1.995-2.7-.614-4.042-.974-6.385.641.8.847,1.839.788,2.42,1.728-1.7.444-3.41.4-5,1.114,2.855,2.529,6.578,3.326,9.157,6.107Zm-1.125,2.079c.059-1.028-.761-1.913-1.141-2.871l-.245-.161c-1.322-.376-2.919-.331-3.627-1.569a5.214,5.214,0,0,0-5.038-.333c1.716,3.333,3.557,4.868,2.061,8.527a4.2,4.2,0,0,1-1.961-1.229,14.324,14.324,0,0,1-.344-4.225c-2.475-.528-2.541.691-3.872,2.57-1.7-1.753-2.171-2.493-4.515-1.413,1.8,3.752,3.288,2.69,6.963,3.7-3.607.258-6.94-.575-10.549-.593a2.683,2.683,0,0,0,.761,1.017,7.972,7.972,0,0,0,2.425,2.248,4.8,4.8,0,0,1,2.341-.05,1.677,1.677,0,0,1-.423.405c-3,.967-5.892-.215-8.923.444-.478.586-.906.777-.967,1.56,5.828,2.855,14.136,2.04,20.215.156,2.667-3.883-.634-.288.26-4.2C804.091,341.008,809.663,338.4,809.708,337.6Zm-8.973-15.7c-.639.77-1.4,1.313-1.239,2.371,1.4.349.419.478.48,1.956l-.036.088a11.8,11.8,0,0,0,8.081-4.248c-2.7-1.282-1.931-.2-4.569.731C801.96,321.128,801.87,318.814,800.735,321.893Zm-19.162,31.26c.369-2.278,2.14-1.707,1.11-4.1l-.251-.165c-2.613-.036-2.3,1.436-4.135,2.987.149-2.267.992-3.852.851-6.19-1.673-.131-1.775.872-2.672,2.117-.924-1.214-1.141-2.586-2.776-2.674-.109,2.23,1.209,2.092,0,3.956-1.673-1.793-2.287-3.331-4.7-4.121.421,3.165,2.5,3.958,4.544,6.256-3.267-.562-5.314-2.5-8.631-3.174-.245.6.283.747.722,1.125.722,1.336.761,1.214-.6,1.61-1.3-.521-1.893-1.395-3.322-1.2,2.135,3.1,4.318,2.647,7.857,3.188a14.957,14.957,0,0,1-4.716.607c.543,1.112,1.685,1.132,2.305,2.31a1.671,1.671,0,0,1-1.325-.315c-4.03-1.861-8.317-1.993-12.152.417a12.571,12.571,0,0,0,4.187-.1c1.49.48,1.605,1.107,2.441,2.473a3.268,3.268,0,0,1-1.746-.405,9.736,9.736,0,0,0-4.329.532c.369.79.817.618,1.61.5a9.027,9.027,0,0,1,3.786,1.981c.333.457.464.082.958.05-2.131,1.513-4.352.716-6.876,1.273,2.031,1.968,3.652,1.94,6.376,1.673a2.118,2.118,0,0,1,1.3-.516,11.037,11.037,0,0,1-8.86,3.494,1.553,1.553,0,0,0-1.323.743,2.876,2.876,0,0,0-.086,1.707c3.145-.05,6.143-.666,9.281-.489-1.028,1.03-2.079,1.755-2.319,3.245,3.9-.306,6.295-6.381,10.923-8.9,1.592-.118,1.245.2.693,1.447,4.255.528,9.3,1.467,13.067-.994a33.118,33.118,0,0,1-3.29-2.239c.292-.235.571-.174.928-.152,1.773-.7,1.069-1.2.38-2.747-.281-.328-.516-.36-.466-.806,1.551-.781,3.129-1.019,4.673-1.766C784.577,352.393,784.539,352.767,781.573,353.154Zm50.439-29.173c2.371-.165,2.28-.743,4.031-2.074,3.582-1.59-.435-1.329-3.05-2.418-.559-1.379-.611-2.416-2.2-2.685-.4,1.132-.177,1.823-1.488,1.913-.772-1.139-.765-1.786-1.884-2.7-.729-.919-.91-1.9-1.637-2.79-.661.267-1.551.231-1.984.8-2.28,2.987,6.159,9.161,7.857,10.031Zm-11.722-5.151c-9.041-.177,1.5,3.061,1.848,3.154h0C826.315,320.562,822.549,320.2,820.289,318.83Zm-10.993.256a21.5,21.5,0,0,1,2.341,1.694v0c3.555-.494,3.6-2.959,2.812-6.007-3.127.192-2.208,1.207-2.368,3.928C810.757,318.264,810.245,317.945,809.3,319.086Zm44.76,2.076c1.162-3.188,2.509-3.3-.473-5.452-3.861.143-14.308,4.094-7.343,8.079l.358.027c1.329-.573,1.5-1.182,2.414-2.2,1.214,2.8,2.556,2.593,5.38,2.3C854.867,322.894,854.375,322.2,854.056,321.162Zm40.442-17.34c3.061-.435,5.269-.421,7.492-2.622-.081-.471-.2-.623.242-.879,2.072.405,2.117.562,3.256,2.119a5.878,5.878,0,0,0,3.937-1.048c.082-1.039-.933-.842-.666-1.669a30.252,30.252,0,0,1,5.017-.131c.423-1.239.8-2.491,1.18-3.743,1.515-1.259,1.725-.609,3.494-.765.953-1.818,1.535-1.916,3.342-2.74.962-1.467.693-.946.385-2.339.668.061,1.2.208,1.725-.26a32.573,32.573,0,0,0-2.448-2.2c-2.038-1.836-1.732,1.621-2.276,3.213-1.3-.5-1.7-1.306-2.615-2.328-.774,1.189.79,1.415-1.263,1.313-.725-.476-1.216-.942-2.1-.779-.922,1.436-.136,1.472,1.345,2.273.672.36,1.549.6,1.438,1.481a26.621,26.621,0,0,0-3.829.571c-3.664,3.093-.534,1.383-5.545-.933-.609-.546.122-.806-.43-1.091-2.819,2.894-.663,1.879.888,5.269-.876.4-1.2-.2-1.965.383-.745,2.76-.768.618-1.635-.745-.776.131-.5.256-.879.842-.609-.528-.251-1.284-.109-1.99-.106-.285-.249-.362-.514-.494-2.432-.441-2.292-.641-3.845.8-2.719-1.03-2.767-1.619-1.927,1.673a1.141,1.141,0,0,1,.152.571c-2.042-.931-3.322-3.075-4.057-.96a.485.485,0,0,1-.251.478c-.838-.029-7.182-.942-6.34.039l.208.134c1.943,1.669-1.465.471.951,2.278,2.362-.279,4.642-.863,6.976-1.306a.765.765,0,0,1,.4-.025c-.3.636-.854.833-1.467,1.125-1.877,1.741-2.962,3.07-3.193,5.69,2.321-.575,2.133-1.653,3.679-3.3C893.984,303.143,892.589,303.148,894.5,303.822Zm33.176,2.742a11.448,11.448,0,0,0-1.574-8.525c-2.993-.281-4.624.229-3.754.143-1.08,2.174-.163-.374,1.014,1.594,2.968,1.042.668.971-.967,1.048-.79.636-.543,1.558-1.395.933-.731-.446-1.114-.616-1.814-.059-.018,1.374.559,2.5-.663,3.068a8.052,8.052,0,0,1-.322-2.867c-.854-.58-1.61-1.275-2.2-.131.233.426.346.414.749.652-.183.668-1.85.2-2.411.163-1.517.455-6.379,2.959-5.4,5.33.4.969,1.429,1.533,2.144,2.3l.5.106c2.167.711,2.28-1.193,3.371-2.812a54.149,54.149,0,0,0-1.331,5.667c3.086.473,5.029.387,7.651-1.354-.713-.346-1.447-.349-2.192-.632a11.679,11.679,0,0,1,3.344-.772A25.257,25.257,0,0,0,927.674,306.564Zm-28.946,6.827c4.046.682,8.052,1.433,12.143,1.775l.487-.1c.235-3.707-3.125-4.8-6.08-6.428-.292.159-.475.256-.6.573-.235,3.734-1.037.675-1.839-.786a18,18,0,0,0-4.608,1.112c.256.752.756,1.336.421,2.079-1.354-.571-1.315-1.223-2.9-1.275a.776.776,0,0,0-.387.426C895.936,312.574,897,312.834,898.728,313.391ZM932.9,294.269c-.249-2.321-.879-2.14-3.19-2.43-2.11,3.965-1.112,6.725,1.087,10.5l.2.143c5.6.994,10.087-1.531,7.284-7.59C936.2,293.715,935.219,294.05,932.9,294.269ZM631.969,528.129a22.483,22.483,0,0,0,1.039-2.217V525.7C630.366,527.787,631.12,529.519,631.969,528.129Zm15.352-97.268v0c-1.712.451-3.066.426-3.507,2.307A4.6,4.6,0,0,0,647.32,430.861Zm57.36-55.846c-2.353.4-1.875,1.241-.07,2.251h0C707.011,376.6,706.5,376.134,704.681,375.015Zm63.737-2.944c7.017-4.644,3.369-6.935-.743-.453l.02.226C767.921,372.219,768.012,372.2,768.417,372.072Zm91.965-47.212.365.129C865.434,323.793,862.081,322.054,860.383,324.86Zm-2.269-2.5.722.063c.3-.525,1.324-1.134.91-1.574-.731-.777-2.328-1.481-3.109-.758C855.974,320.709,857.62,321.608,858.114,322.364Zm24.527-12.952c-4.447-.609-4.017.7-2.663,4.039v0C882.5,313.056,883.188,311.9,882.64,309.413Zm81.192-31.55c-.4.466.453,1.146.679,1.719l.308-.027c.342-.509,1.338-1,1.028-1.528A1.449,1.449,0,0,0,963.832,277.863Zm-6.213,2.239.281-.077c-.5-1.574-3-1.073-4.282-.992C954.861,280.211,955.959,280.147,957.619,280.1Zm13.728,33.853-.109.283c.435,0,1.055.374,1.3.016.346-.5.537-1.669-.052-1.816C971.877,312.284,971.727,313.45,971.347,313.955Zm-12.669-35.63c2.622-2.242,2.842-3.768-1.1-3.661.222.951,1.005.713.953,1.687-3.55.643-4.1.521.143,1.977Zm16.98,1.49c-1.786,1.461.616,2.316,1.988,3.335,3.073-.063,5.181-1.506,8.285-1.852,3.67.469,6.8-.525,8.658-3.77-1.562-.924-3.168,1.184-4.6,2.142-2.606.46-.874-.034-2.063-1.635-2.323-.99,1.042-1.8,2.069-2.244,3.444-2.937-3.19-1.234-4.2-.994-3.349-.1-.67-.831-3.274-1.918-2.205-.285-1.662-1.064-3.779-.365-.5,2.341,1.71,2.027,3.428,3.892-1.845,1.014.342.106-2.812-.557a15.643,15.643,0,0,0-2.987-.039c-2.5.473-2.855.115-5.031,1.476-.965,1.293.1,1.216,1.4,1.4C973.249,278.728,977.551,278.431,975.658,279.814ZM474.249,773.586l-.063-.052c-1.669.163-3.453.12-3.113,2.2C472.975,775.771,475.162,776.034,474.249,773.586Zm-17.3-26.818c.99,1.234,1.6,1.311,3.147,1.392,3.283,2.905,3.059,1.78,4.71-1.868l.014-.269c-.466-.845-.616-1.977-1.4-2.536-.539-.38-4.995,2.593-5.344,2.81C457.519,746.313,457.249,746.268,456.953,746.768Zm14,31.964c-.134-.226-.249-.17-.48-.1C469.15,780.562,470.636,780.293,470.957,778.733Zm0,0v0h0ZM455.184,748.9c-1.15,3.464.473,5.219,3.471,6.856,3.756-2.432.962-6.222-2.033-8.031h0C455.959,747.565,455.54,748.444,455.184,748.9Zm-1.918,6.951c2.217-.068,1.635.722,1.388,2.6.67.215,1.087-.192,1.646-.543.111-1.5-.815-2.282-1.626-3.489-.96-1.159-2.081-1.909-3.034-3.093v0c-.3.4-.059,1.137-.186,1.682-2.944,3.58.333-.3-.652,5.176a5.589,5.589,0,0,0,.768,4.157,3.63,3.63,0,0,0,1.3-1.019C452.374,758.042,450.95,758.633,453.267,755.85Zm-.245,13.047c-.63-.131-.677-.048-.722.582a41.03,41.03,0,0,1-.609,8.944.662.662,0,0,0,.181.62c5.493-.138,3.161-7.182,1.15-10.146Zm4.209,6.4v0c-.634,1.748-1.067,2.631,1.073,2.83C458.9,776.706,458.327,776.251,457.231,775.3Zm11.894,2.819c-.113-.516-.571-.392-.881-.833v0C466.872,777.908,464.581,780.046,469.125,778.119Zm-26.388-61.056-.138-.084c1.071,2.891,3.9,6.032,7.157,6.057C447.875,720.383,445.462,718.8,442.738,717.063Zm8.908,9.374c-.881-2.93-3.421-2.935-6.2-3.625l-.072-.02A9.727,9.727,0,0,0,451.645,726.437Zm-1.22,10.588a24.623,24.623,0,0,0-3.057-7.284c-1.526-.075-.546,2.543-.428,3.526a1.281,1.281,0,0,0,.02.247.927.927,0,0,0,.136.163c.156.152.324.285.487.43.874,1.345.489,1.361-.974.944-1.017.288-.448,1.039-.143,1.8A25.594,25.594,0,0,0,450.4,739.2,3.113,3.113,0,0,0,450.425,737.025Zm-4-11.774c-.806,1.03.394,1.685,1.254,2.038,1.748,1.667,1.834,2.819,4.343,3.392.131-3.677-2.43-3.813-5.489-5.344Zm18.864-5.027v0c-2.162.027-3,1.544-4.334,3.111-1.492.716-3.143.883-4.336,2.018C462.7,733.835,465.668,727.028,465.288,720.224Zm-13.124,25.018c.792.559,1.589,1.374,2.183.269a5.9,5.9,0,0,0-1.746-3.6v0c-.971.374-.063,1.472.258,2.128C451.718,744.723,450.989,742.939,452.164,745.242ZM449.6,746.27l-.115.181C452.048,749.465,454.471,743.856,449.6,746.27Zm8.629-.919A2.449,2.449,0,0,0,457.2,743.1v0C455.744,744.486,455.909,746.227,458.225,745.351Zm14.706-5.269-.322.066c-1.243.566-1.445.842-1.209,2.194C474.052,743.333,474.585,742.081,472.932,740.082Zm-24.3-70.817c.068,2.033-.088,1.585,1.981-.4l.122-.154c-1.023-1.463-2.362-1.662-4.044-1.9C446.481,667.933,447.855,668.579,448.629,669.265Zm-1,7.3c.593-.331,3.089-2.162,3.494-1.639.745.922,1.743-.177,2.325-.736l-.143-.054c-3.2-1.8-5.8-1.664-9.268-.684-.571.3-1.123.444-1.252,1.121a10.563,10.563,0,0,0,1.911.287C445.457,677.031,444.76,676.929,447.633,676.567Zm-.722,17.023-.179-.129a1.8,1.8,0,0,0-2.282-.383C444.479,695.6,445.645,695.627,446.911,693.59Zm-2.692,11.616c.315.4.213.217.059.027a3.24,3.24,0,0,0,.967.319c1.841-1.925,1.949-2.359,1.451-4.981v0c-.811-.26-1.037-.283-1.488.455-.018.346.02.677.027,1.023,0,.1.02.158-.043.24a3.543,3.543,0,0,1-.55-1.981c-.206-.48-.285,1.037-.208,1.556.122,1.03-.125.978-.779.283-2.036-.53-1.936,1.522-.7,2.74A2.406,2.406,0,0,1,444.219,705.205Zm31.1-60.168a3.173,3.173,0,0,0-1.845,1.628l.229.12C475.185,647.089,476.8,646.581,475.316,645.037ZM473.389,655.6l.168-.156c1.073-4-.423-4.042-3.944-3.7C466.986,656.32,468.618,659.911,473.389,655.6Zm-12.63,3.734c3.048,3.688,5.049.858,7.658-1.793v0a7.545,7.545,0,0,0-3.256-1.119c-1.73.387-3.417.233-4.044,2.049a9.733,9.733,0,0,1,2.233.888C462.448,659.472,461.649,659.2,460.759,659.334Zm37.073-24.861Zm0,0c-2.131-.84-3.079-.4-4.7,1.186C495.1,637.468,496.118,636.023,497.832,634.472Zm-.854,5.846v0c-2.561-2.907-4.653-2.208-6.725.772C492.755,641.86,494.555,641.147,496.978,640.318Zm-15.3,11.695.235-.045a14.056,14.056,0,0,0-7.823-1.277C476.5,652.1,478.93,652.074,481.679,652.013Zm35.834-23.951.093-.17c-.682-1.447-1.06-2.919-1.669-4.388-1.9.43-1.426,2.031-2.026,3.7a28.2,28.2,0,0,1-2.889-1.773,11.724,11.724,0,0,0-2.362,2.928C512.289,631.182,513.53,629.849,517.513,628.062Zm90.6-32.519h0Zm-5.346,1.988c2.144.494,3.466-.967,5.344-1.988C605.47,594.78,604.007,595.076,602.762,597.531Zm-63.637,6.193c1.515.618,3.079.774,4.594,1.381a3.2,3.2,0,0,1-1.868-.147c-3.953-.154-8.511.294-9.589,4.685,4.669,1.266,8.9-.235,13.547-1.2a22.061,22.061,0,0,0,8.688-2.808l.294-.093c.641-.6-.276-.543-.824-1.017-1.325-1.49-1.916-.806-3.686-.328-.72-1.877.709-2.493-1.716-2.5a8.427,8.427,0,0,0-1.189.229,19.8,19.8,0,0,1-6.512,1.336C540.078,603.178,539.655,603.087,539.125,603.724Zm-2.991,10.821a7.693,7.693,0,0,0,6.254-.462v0C540.081,611.816,538.185,612.156,536.134,614.544Zm3.514,6.3.043-.057c.224-.591.1-.734-.2-1.272-.679-.593-1.381-.79-2.083-1.363-2.122-2.418-1.356-1.089-2.289.958-.423-.559-.412-1.159-.788-1.757a17.039,17.039,0,0,0-2.355-.136,6.909,6.909,0,0,0,.405,2.475C533.591,621.713,537.866,621.328,539.648,620.846Zm-7.1.607h0c-.125-1.454-1.587-3.72-2.647-1.667C530.688,621.521,530.566,621.634,532.547,621.453Zm3.922-21.318c3.786.3,6.516.713,9.856-1.284v0c.2-1.682.58-2.735-.745-3.922-1.307.516-1.406,1.116-2.325,2.092-3.763,1.116-7.54,2.176-11.274,3.387C533.632,601.464,534.707,600.7,536.469,600.135Zm-6.714,12.209-.05-.226c-2.085-4.329-4.171-2.029-8.108-1.488a6.452,6.452,0,0,0-2.282.912C522.308,615.183,526.452,615.849,529.756,612.344Zm-.772,9.6.272-.011c.643-2.108-.55-2.728-2.332-3.469C520.812,620.461,525.134,622.449,528.983,621.948Zm-6.141,2.844-.106-.111c-2.5-.745-3.822-.412-5.969,1.044C519.5,627.426,520.708,627.02,522.843,624.792Zm-.9-2.224-.143-.181C517.7,623.126,519.675,624.292,521.941,622.569Zm78.475-75.658c-.525-.46-1-.349-1.676-.335-4.2,1.325.958.824,1.574.648v0A1.544,1.544,0,0,0,600.416,546.911Zm1.71,1.974.235-.118c4.662-5.249-2-.722-3.707.177-.774.469-1.58.888-2.321,1.406C593.356,552.445,601.279,549.3,602.126,548.885Zm9.161,11.285.034-.195c-1.361-1.039-1.974-1.023-3.634-.67C607.836,562.371,609.806,563.628,611.287,560.17Zm1.193,2.067c-1.3,1.508.473,1.952,1.7,2.468h0C614.944,563.535,613.334,562.912,612.48,562.238Zm-9.168-.98c.82,2.282,1.995,1.537,4.245,1.868.663,1.039-1,.652-1.947,1.293,1.823,2.1,3.575,2.513,6.276,2.925.448.165.725.442,1.2.426.315-.525.527-1.082.808-1.624-.974-1.5-2.547-1.08-4.187-1.155C607.621,562.611,606.62,560.211,603.312,561.257Zm41.13-58.438c-2.658.546-3.38,1.209-4.9,3.419-.865.711-1.569,1-1.868,2.115,1.012-.188,1.886-.577,2.812-.011,3.523-.528,6.886-3.385,10.25-4.7l.2-.106c.471-.435.466-.548-.115-.838-2.522.387-4.318,1.469-6.748,2.151C643.727,503.829,644.778,503.827,644.442,502.819Zm-4.565,27.1c-.285-4.1-1.777-6.075-5.147-8.355-.663.75-.632,1-.371,1.938-.256,3.514-.457,1.517,1.909,2.565a.787.787,0,0,1,.181.165c-1.349.976-2.744,1.773-4.015,2.857a42.486,42.486,0,0,1-2.484,7.157c-.306.269-.564.385-.245.736a1.1,1.1,0,0,0,.317-.059c3.014-1.583,2.762-1.621,3.326-4.646,2.052-1.411,3.806-1.433,6.24-1.836v0A1.245,1.245,0,0,1,639.878,529.92ZM628.1,516.54l-.186-.161c-3.661.43-5.163-.222-6.012,3.688C626.075,521.5,627.005,520.729,628.1,516.54Zm7.73,25.394.272-.29c-.249-1.143-1.15-.641-2.133-.593.081-.745.645-1.091,1.116-1.642-.926-1.972-1.6-2-3.679-1.585a6.244,6.244,0,0,0-.786.3c-.014.969.564,1.431.693,2.4-1.232.772-2.543,1.193-3.706,2.06C630.513,543.847,632.906,542.892,635.834,541.934Zm-19.753,1.8c2.081.079,3.134-.636,4.916-1.664C621.664,538.848,616.775,542.77,616.08,543.739Zm11.165-1.628Zm-3.358-.233a27.817,27.817,0,0,1-2.124,2.106c.883,1.877,4.288-1.173,5.482-1.873.145-.976-1-.215-1.775-.489.795-.586,1.574-.684,2.384-1.223C626.8,538.325,624.983,540.881,623.888,541.877ZM648.321,494.5a3.4,3.4,0,0,0,2.341-2.436l-.057-.129C648.156,491.457,644.8,491.5,648.321,494.5Zm-4.673,3.987c1.035-.813-.731-.315-1.173-.3-.2-.666.949-.865,1.467-1.22a3.241,3.241,0,0,0-1.347-2.7c-.335.163-.353.294-.455.643a1.221,1.221,0,0,1-1.076.426c-3.7,1.223.383,1.3,1.884,1.709a2.622,2.622,0,0,1-1.109.394,20.739,20.739,0,0,0-6.22,5.581,48.3,48.3,0,0,0,9.311-3.756h0A1.062,1.062,0,0,1,643.648,498.492ZM728,417.647l.242-.161c-4.159-1.433-6.039-1.877-9.979.326a6.089,6.089,0,0,0,2.962.541A67.388,67.388,0,0,0,728,417.647Zm-15.657.555c-.084-.412.154-1.128-.251-1.232a3.383,3.383,0,0,0-3,.383c-.462.417,1.121.541,1.68.813.41.036.815.066,1.225.086Zm-5.219-.514c-.577-.442-.648-.258-1.123.233-.555.79-1.734,1.406-1.664,2.368.091,1.184,6.109.106,6.546.048l.337-.147c1.451-1.182.609-.195-1.73-1.146A21.191,21.191,0,0,1,707.124,417.687Zm-21.932,27.293a14.548,14.548,0,0,0,2.835-.462h0C691.691,441.009,687.309,441.569,685.192,444.981Zm408.332-113.77-.306-.113c-4.809-1.83-3.747.122-6.027,4.221-.788.745-1.42,1.08-.265,1.68,1.123.152,1.8.437,2.513-.546.437-1.062,2.113-.7,3.292-.917a10.559,10.559,0,0,0,3.519-1.685C1095.363,332.667,1094.244,332.49,1093.524,331.211ZM942.885,282.894c1.01-.217,2.092-.276,2.167-1.485-1.5-.365-2.735.029-3.944-.77a1.906,1.906,0,0,1-.407-.378c1.293-.276,2.6-.421,3.9-.641a7.569,7.569,0,0,0-2.557-.208c-2.468-.385-3.589-.648-5.975.077-.312.231-.36.3-.206.668,1.431.55,2.482.235,3.985.4a4.551,4.551,0,0,1-1.811.471c-2.23.645-.582.888.74,1.515l.1.22C940.472,283.915,941.065,283.349,942.885,282.894Z" transform="translate(0 0)"/></g></svg>